SplineFontDB: 3.0
FontName: 3270Medium
FullName: 3270-Medium
FamilyName: IBM 3270
Weight: Medium

StartChar: Euro
Encoding: 862 8364 2
Width: 540
VWidth: 0
InSpiro: 1
Flags: W
HStem: 49 61<281 372> 262 61<54 115 176 416> 384 61<54 115 176 449> 598 61<283 375>
VStem: 115 61<219 262 323 384 445 494>
DStem2: 115 521 176 494 0.712175 0.702002<24.4887 173.7> 176 219 115 189 0.696786 -0.717279<0 151.346> 372 110 402 49 0.723869 0.689938<0 90.4476> 401 659 375 598 0.729187 -0.684314<22.7843 107.634>
LayerCount: 2
Back
Fore
SplineSet
54 445 m 1
 115 445 l 1
 115 521 l 1
 255 659 l 1
 401 659 l 1
 466 598 l 1
 471 592 474 583 473 575 c 0
 472 567 469 559 463 554 c 0
 457 549 450 545 442 545 c 0
 434 545 426 548 420 553 c 2
 375 598 l 1
 283 598 l 1
 176 494 l 1
 176 445 l 1
 481 445 l 1
 449 384 l 1
 176 384 l 1
 176 323 l 1
 451 323 l 1
 416 262 l 1
 176 262 l 1
 176 219 l 1
 281 110 l 1
 372 110 l 1
 420 158 l 2
 426 164 435 167 443 167 c 0
 451 167 460 163 466 157 c 0
 472 151 476 143 476 134 c 0
 476 125 472 116 466 110 c 2
 402 49 l 1
 251 49 l 1
 115 189 l 1
 115 262 l 1
 54 262 l 1
 54 293 l 1
 54 323 l 1
 115 323 l 1
 115 384 l 1
 54 384 l 1
 54 445 l 1
  Spiro
    54 445 v
    114 445 v
    116 521 v
    255 659 v
    401 659 v
    466 597 v
    470.256 590.415 o
    472.742 582.918 o
    473 575 o
    471.299 567.119 o
    468.033 559.882 o
    463 554 o
    456.673 549.448 o
    449.659 546.22 o
    442 545 o
    434.082 545.961 o
    426.585 548.707 o
    420 553 [
    375 598 v
    283 598 v
    176 494 v
    176 445 v
    481 445 v
    449 385 v
    176 384 v
    176 323 v
    451 323 v
    416 261 v
    176 262 v
    176 219 v
    281 110 v
    372 110 v
    420 158 ]
    426.844 162.996 o
    434.823 166.002 o
    443 167 o
    451.177 165.743 o
    459.156 162.255 o
    466 157 o
    471.255 150.378 o
    474.743 142.621 o
    476 134 o
    474.743 125.12 o
    471.255 116.881 o
    466 110 [
    402 49 v
    251 49 v
    115 189 v
    115 262 v
    54 262 v
    54 293 v
    54 323 v
    115 323 v
    114 384 v
    54 385 v
    0 0 z
  EndSpiro
EndSplineSet
Validated: 1
EndChar

StartChar: eightones
Encoding: 1606 -1 6
Width: 540
VWidth: 0
Flags: W
HStem: 178 288<200.547 345.453>
VStem: 133 280<247.566 396.878>
LayerCount: 2
Back
Fore
SplineSet
133 322 m 0
 133 402 196 466 273 466 c 0
 350 466 413 402 413 322 c 0
 413 243 350 178 273 178 c 0
 196 178 133 243 133 322 c 0
EndSplineSet
Validated: 1
EndChar

StartChar: hyphen
Encoding: 44 45 7
Width: 540
VWidth: 0
Flags: W
HStem: 300 56<119 417>
VStem: 119 298<300 356>
LayerCount: 2
Back
Fore
SplineSet
119 356 m 1
 417 356 l 1
 417 300 l 1
 119 300 l 1
 119 356 l 1
EndSplineSet
Validated: 1
EndChar

StartChar: less
Encoding: 59 60 9
Width: 540
VWidth: 0
Flags: W
VStem: 125 294
LayerCount: 2
Back
Fore
SplineSet
411 99 m 2
 416 93 419 85 419 77 c 0
 419 69 415 62 410 56 c 0
 405 50 397 47 389 46 c 0
 381 45 375 46 368 50 c 1
 125 295 l 1
 125 351 l 1
 367 597 l 1
 373 600 380 604 387 603 c 0
 394 602 400 599 405 594 c 0
 411 589 414 581 415 573 c 0
 416 565 415 558 411 551 c 1
 183 323 l 1
 411 99 l 2
EndSplineSet
Validated: 1
EndChar

StartChar: bracketleft
Encoding: 90 91 10
Width: 540
VWidth: 0
Flags: W
HStem: -13 62<237 357> 598 61<237 357>
VStem: 179 178<-13 49 598 659> 179 58<49 598>
LayerCount: 2
Back
Fore
SplineSet
179 659 m 1xe0
 357 659 l 1
 357 598 l 1xe0
 237 598 l 1
 237 49 l 1xd0
 357 49 l 1
 357 -13 l 1
 179 -13 l 1
 179 659 l 1xe0
EndSplineSet
Validated: 1
EndChar

StartChar: bracketright
Encoding: 92 93 11
Width: 540
VWidth: 0
Flags: W
HStem: -13 62<179 298> 598 61<179 298>
VStem: 179 178<-13 49 598 659> 298 59<49 598>
LayerCount: 2
Back
Fore
SplineSet
179 659 m 1xe0
 357 659 l 1
 357 -13 l 1
 179 -13 l 1
 179 49 l 1xe0
 298 49 l 1
 298 598 l 1xd0
 179 598 l 1
 179 659 l 1xe0
EndSplineSet
Validated: 1
EndChar

StartChar: parenleft
Encoding: 39 40 13
Width: 540
VWidth: 0
Flags: W
HStem: 49 21G<334.5 341.5> 578 20G<333.5 341>
VStem: 184 57<214 434>
LayerCount: 2
Back
Fore
SplineSet
192 470 m 2
 317 589 l 2
 323 594 330 598 337 598 c 0
 345 598 352 594 357 588 c 0
 363 582 366 575 366 567 c 0
 366 559 363 553 357 547 c 2
 241 434 l 1
 241 214 l 1
 358 98 l 2
 364 93 367 85 367 77 c 0
 367 69 364 63 358 58 c 0
 352 52 345 49 338 49 c 0
 331 49 323 52 318 58 c 2
 193 183 l 2
 187 189 184 194 184 202 c 2
 184 446 l 2
 184 454 186 464 192 470 c 2
EndSplineSet
Validated: 1
EndChar

StartChar: braceright
Encoding: 124 125 14
Width: 540
VWidth: 0
InSpiro: 1
Flags: W
HStem: 0 60<114 192> 307 60<339 375> 613 60<114 192>
VStem: 237 60<104 263 410 569>
LayerCount: 2
Back
Fore
SplineSet
114 673 m 1
 204 673 l 2
 214 673 222 668 225 664 c 2
 288 603 l 2
 295 596 297 587 297 582 c 2
 297 410 l 1
 339 367 l 1
 375 367 l 1
 375 307 l 1
 339 307 l 1
 297 263 l 1
 297 92 l 2
 297 87 295 77 288 70 c 2
 225 9 l 2
 222 6 214 0 204 0 c 1
 174 0 144 0 114 0 c 1
 114 20 114 40 114 60 c 1
 192 60 l 1
 237 104 l 1
 237 275 l 2
 237 285 242 293 245 296 c 2
 284 337 l 1
 245 377 l 2
 242 380 237 388 237 398 c 2
 237 569 l 1
 192 613 l 1
 114 613 l 1
 114 673 l 1
  Spiro
    204 673 ]
    213.214 671.558 o
    220.45 668.107 o
    225 664 [
    288 603 ]
    293.44 595.563 o
    296.224 588.104 o
    297 582 [
    297 410 v
    339 367 v
    375 367 v
    375 307 v
    339 307 v
    297 263 v
    297 92 ]
    296.224 85.6371 o
    293.44 77.6956 o
    288 70 [
    225 9 ]
    220.45 5.33733 o
    213.214 1.66367 o
    204 0 v
    114 0 v
    114 60 v
    192 60 v
    237 104 v
    237 275 ]
    238.405 284.214 o
    241.596 291.45 o
    245 296 [
    284 337 v
    245 377 ]
    241.596 381.55 o
    238.405 388.786 o
    237 398 [
    237 569 v
    192 613 v
    114 613 v
    114 673 v
    0 0 z
  EndSpiro
EndSplineSet
Validated: 1
EndChar

StartChar: braceleft
Encoding: 122 123 15
Width: 540
VWidth: 0
Flags: W
HStem: 0 60<280 358> 307 60<97 133> 613 60<280 358>
VStem: 175 60<104 263 410 569>
LayerCount: 2
Back
Fore
SplineSet
358 673 m 1
 358 613 l 1
 280 613 l 1
 235 569 l 1
 235 398 l 2
 235 388 230 380 227 377 c 2
 188 337 l 1
 227 296 l 2
 230 293 235 285 235 275 c 2
 235 104 l 1
 280 60 l 1
 358 60 l 1
 358 40 358 20 358 0 c 1
 328 -0 298 0 268 0 c 1
 258 0 250 6 247 9 c 2
 184 70 l 2
 177 77 175 87 175 92 c 2
 175 263 l 1
 133 307 l 1
 97 307 l 1
 97 367 l 1
 133 367 l 1
 175 410 l 1
 175 582 l 2
 175 587 177 596 184 603 c 2
 247 664 l 2
 250 668 258 673 268 673 c 2
 358 673 l 1
EndSplineSet
Validated: 1
EndChar

StartChar: equal
Encoding: 60 61 17
Width: 540
VWidth: 0
Flags: W
HStem: 244 56<60 476> 411 56<60 476>
LayerCount: 2
Back
Fore
SplineSet
60 467 m 1
 476 467 l 1
 476 411 l 1
 60 411 l 1
 60 467 l 1
60 300 m 1
 476 300 l 1
 476 244 l 1
 60 244 l 1
 60 300 l 1
EndSplineSet
Validated: 1
EndChar

StartChar: quotedbl
Encoding: 33 34 19
Width: 540
VWidth: 0
Flags: W
HStem: 476 183<115 177 298 359>
VStem: 115 62<476 659> 298 61<476 659>
LayerCount: 2
Back
Fore
SplineSet
115 659 m 1
 177 659 l 1
 177 476 l 1
 115 476 l 1
 115 659 l 1
298 659 m 1
 359 659 l 1
 359 476 l 1
 298 476 l 1
 298 659 l 1
EndSplineSet
Validated: 1
EndChar

StartChar: slash
Encoding: 46 47 20
Width: 540
VWidth: 0
InSpiro: 1
Flags: W
LayerCount: 2
Back
Fore
SplineSet
70 118 m 0
 64 124 61 131 61 139 c 0
 61 147 64 154 70 160 c 0
 435 525 l 0
 440 531 448 534 456 534 c 0
 463 534 471 531 477 525 c 0
 483 520 486 512 486 504 c 0
 486 496 483 488 477 483 c 0
 112 118 l 0
 106 112 98 109 91 109 c 0
 83 109 76 112 70 118 c 0
  Spiro
    69.5646 117.787 o
    61.8654 131.339 o
    61.8654 146.661 o
    69.5646 160.213 o
    434.565 525.213 o
    448.117 532.912 o
    463.439 532.912 o
    476.991 525.213 o
    484.69 511.661 o
    484.69 496.339 o
    476.991 482.787 o
    111.991 117.787 o
    98.4389 110.088 o
    83.1167 110.088 o
    0 0 z
  EndSpiro
EndSplineSet
Validated: 1
EndChar

StartChar: backslash
Encoding: 91 92 21
Width: 540
VWidth: 0
Flags: W
LayerCount: 2
Back
Fore
SplineSet
421 123 m 2
 62 489 l 2
 56 495 54 504 54 512 c 0
 54 520 56 527 62 533 c 0
 68 539 77 542 85 542 c 0
 93 542 100 539 106 533 c 2
 465 167 l 2
 471 161 474 153 474 145 c 0
 474 137 471 129 465 123 c 0
 459 117 451 113 443 113 c 0
 435 113 427 117 421 123 c 2
EndSplineSet
Validated: 1
EndChar

StartChar: bar
Encoding: 123 124 22
Width: 540
VWidth: 0
Flags: W
VStem: 237 61<-118 720>
LayerCount: 2
Back
Fore
SplineSet
237 720 m 1
 298 720 l 1
 298 -118 l 1
 237 -118 l 1
 237 720 l 1
EndSplineSet
Validated: 1
EndChar

StartChar: brokenbar
Encoding: 165 166 23
Width: 540
VWidth: 0
Flags: W
VStem: 237 61<-118 234 354 720>
LayerCount: 2
Back
Fore
SplineSet
237 354 m 17
 237 720 l 1
 298 720 l 1
 298 354 l 9
 237 354 l 17
298 234 m 17
 298 -118 l 1
 237 -118 l 1
 237 234 l 9
 298 234 l 17
EndSplineSet
Validated: 1
EndChar

StartChar: question
Encoding: 62 63 24
Width: 540
VWidth: 0
Flags: W
HStem: 50 61<238 298> 477 21G<119 179> 600 59<224 371>
VStem: 119 60<477 556> 238 60<50 111 232 324> 417 59<519 555>
LayerCount: 2
Back
Fore
SplineSet
179 477 m 1
 119 477 l 1
 119 569 l 0
 119 577 123 585 128 590 c 0
 191 652 l 0
 197 658 206 659 212 659 c 0
 383 659 l 0
 391 659 399 656 404 651 c 0
 467 588 l 0
 473 582 476 574 476 567 c 0
 476 506 l 0
 476 498 471 489 466 484 c 0
 298 324 l 1
 298 232 l 1
 238 232 l 1
 238 337 l 0
 238 344 241 353 247 359 c 0
 417 519 l 1
 417 555 l 1
 371 600 l 1
 224 600 l 1
 179 556 l 1
 179 477 l 1
238 111 m 1
 298 111 l 1
 298 50 l 1
 238 50 l 1
 238 111 l 1
EndSplineSet
Validated: 1
EndChar

StartChar: exclam
Encoding: 32 33 25
Width: 540
VWidth: 0
Flags: W
HStem: 49 61<237 299> 639 20G<237 298>
VStem: 237 61<49 110 231 659>
LayerCount: 2
Back
Fore
SplineSet
237 110 m 1
 299 110 l 1
 299 49 l 1
 237 49 l 1
 237 110 l 1
237 659 m 1
 298 659 l 1
 298 231 l 1
 237 231 l 1
 237 659 l 1
EndSplineSet
Validated: 1
EndChar

StartChar: dollar
Encoding: 35 36 26
Width: 540
VWidth: 0
Flags: W
HStem: 109 60<64 242 302 382> 295 60<164 242 302 380> 478 60<164 242 302 486> 638 20G<242 302>
VStem: 61 60<397 435> 242 60<-11 109 169 295 355 478 538 658> 424 60<211 250>
LayerCount: 2
Back
Fore
SplineSet
486 538 m 1
 486 478 l 1
 302 478 l 1
 302 355 l 1
 392 355 l 2
 400 355 409 351 414 346 c 2
 476 284 l 2
 482 278 484 270 484 263 c 2
 484 199 l 2
 484 191 481 183 476 178 c 2
 416 118 l 2
 410 112 401 109 394 109 c 2
 302 109 l 1
 302 -11 l 1
 242 -11 l 1
 242 109 l 1
 64 109 l 1
 64 169 l 1
 242 169 l 1
 242 295 l 1
 151 295 l 2
 144 295 136 298 130 304 c 2
 70 364 l 2
 65 369 61 377 61 385 c 2
 61 448 l 2
 61 455 64 463 70 469 c 2
 130 529 l 2
 135 534 143 538 151 538 c 2
 242 538 l 1
 242 658 l 1
 302 658 l 1
 302 538 l 1
 486 538 l 1
242 478 m 1
 164 478 l 1
 121 435 l 1
 121 397 l 1
 164 355 l 1
 242 355 l 1
 242 478 l 1
302 169 m 1
 382 169 l 1
 424 211 l 1
 424 250 l 1
 380 295 l 1
 302 295 l 1
 302 169 l 1
EndSplineSet
Validated: 1
EndChar

StartChar: cent
Encoding: 161 162 27
Width: 540
VWidth: 0
InSpiro: 1
Flags: W
HStem: 232 61<147 237 298 420> 476 61<145 237 298 420> 639 20G<237 298>
VStem: 55 62<325 446> 237 61<110 232 293 476 537 659>
LayerCount: 2
Back
Fore
SplineSet
237 659 m 1
 298 659 l 1
 298 537 l 1
 420 537 l 1
 420 476 l 1
 298 476 l 1
 298 293 l 1
 420 293 l 1
 420 232 l 1
 298 232 l 1
 298 110 l 1
 237 110 l 1
 237 232 l 1
 134 232 l 2
 131 232 128 231 125 232 c 0
 123 233 120 235 118 236 c 0
 116 237 114 239 112 241 c 2
 63 290 l 2
 62 291 61 292 60 293 c 0
 59 294 59 296 58 297 c 0
 57 298 56 299 55 300 c 0
 54 301 55 303 55 304 c 0
 55 305 55 307 55 308 c 0
 55 309 55 311 55 312 c 2
 55 458 l 2
 55 461 54 463 55 466 c 0
 56 468 58 471 59 473 c 0
 60 475 62 477 64 479 c 2
 109 528 l 2
 110 529 111 530 112 531 c 0
 113 532 115 532 116 533 c 0
 118 534 121 535 123 536 c 0
 126 537 129 537 132 537 c 2
 237 537 l 1
 237 659 l 1
  Spiro
    237 659 v
    298 659 v
    298 537 v
    420 537 v
    420 476 v
    298 476 v
    298 293 v
    420 293 v
    420 232 v
    298 232 v
    298 110 v
    237 111 v
    237 232 v
    134 232 ]
    131.003 232.037 o
    127.997 232.297 o
    125 233 o
    122.743 233.999 o
    120.257 235.001 o
    118 236 o
    116.002 237.295 o
    113.998 239.039 o
    112 241 [
    63 290 v
    60 293 o
    59.2598 294.258 o
    58.7402 295.742 o
    58 297 o
    57.2598 297.999 o
    56.7402 299.001 o
    56 300 o
    55.2967 301.258 o
    55.0369 302.742 o
    55 304 o
    55 308 o
    55 312 v
    55 458 ]
    55.0369 460.738 o
    55.2967 463.262 o
    56 466 o
    56.999 468.257 o
    58.001 470.743 o
    59 473 o
    60.2947 474.998 o
    62.0389 477.002 o
    64 479 [
    109 528 v
    112 531 o
    113.258 531.74 o
    114.742 532.26 o
    116 533 o
    118.257 533.999 o
    120.743 535.001 o
    123 536 o
    125.997 536.703 o
    129.003 536.963 o
    132 537 [
    237 537 v
    0 0 z
  EndSpiro
237 476 m 1
 145 476 l 1
 117 446 l 1
 117 325 l 1
 147 293 l 1
 237 293 l 1
 237 476 l 1
  Spiro
    237 476 v
    145 476 v
    117 446 v
    117 325 v
    147 293 v
    237 293 v
    0 0 z
  EndSpiro
EndSplineSet
Validated: 1
EndChar

StartChar: sterling
Encoding: 162 163 28
Width: 540
VWidth: 0
InSpiro: 1
Flags: W
HStem: 50 62<120 148 285 385> 112 57<120 155> 353 61<60 184 244 366> 598 61<286 325>
VStem: 184 60<160 353 414 555>
LayerCount: 2
Back
Fore
SplineSet
155 112 m 1x78
 148 112 l 1
 120 112 l 1xb8
 120 106 l 1
 148 106 l 1
 155 112 l 1x78
  Spiro
    155 110 v
    148 112 v
    120 112 v
    120 106 v
    148 106 v
    0 0 z
  EndSpiro
244 140 m 1
 252 138 l 2
 256 136 260 134 263 131 c 2
 285 112 l 1
 385 112 l 1
 438 160 l 1
 479 116 l 1
 417 58 l 2
 413 54 404 50 396 50 c 2
 274 50 l 2
 268 50 259 53 253 58 c 2
 227 83 l 1
 207 89 l 1
 173 56 l 2
 168 51 159 50 152 50 c 2
 90 50 l 2xb8
 74 50 60 62 60 78 c 2
 60 139 l 2
 60 155 74 169 90 169 c 2
 150 169 l 2x78
 154 169 157 168 160 168 c 2
 184 160 l 1
 184 353 l 1
 60 353 l 1
 60 414 l 1
 184 414 l 1
 184 567 l 2
 184 573 186 582 192 588 c 2
 252 649 l 2
 257 654 265 659 274 659 c 2
 338 659 l 2
 344 659 353 655 359 649 c 2
 419 589 l 1
 376 547 l 1
 325 598 l 1
 286 598 l 1
 244 555 l 1
 244 414 l 1
 366 414 l 1
 366 353 l 1
 244 353 l 1
 244 140 l 1
  Spiro
    244 140 v
    252 138 ]
    255.959 135.965 o
    259.707 133.701 o
    263 131 [
    285 110 v
    385 110 v
    438 160 v
    479 116 v
    417 58 ]
    411.562 54.1517 o
    404.103 51.183 o
    396 50 [
    274 50 ]
    267.23 50.9611 o
    259.77 53.7073 o
    253 58 [
    227 83 v
    207 89 v
    173 56 ]
    166.896 51.7073 o
    159.437 48.9611 o
    152 48 [
    90 48 ]
    75.1244 52.2142 o
    64.2142 63.1244 o
    60 78 [
    60 139 ]
    64.2142 153.876 o
    75.1244 164.786 o
    90 169 [
    150 169 ]
    153.7 168.741 o
    156.966 168.259 o
    160 168 [
    184 160 v
    184 353 v
    60.5 353 v
    60.5 414 v
    184 414 v
    184 567 ]
    184.739 573.77 o
    187.263 581.23 o
    192 588 [
    252 649 ]
    257.919 653.81 o
    265.416 657.521 o
    274 659 [
    338 659 ]
    344.77 657.743 o
    352.23 654.255 o
    359 649 [
    419 589 v
    376 547 v
    325 598 v
    286 598 v
    244 555 v
    244 414 v
    365.5 414 v
    365.5 353 v
    244 353 v
    0 0 z
  EndSpiro
EndSplineSet
Validated: 1
EndChar

StartChar: yen
Encoding: 164 165 29
Width: 540
VWidth: 0
InSpiro: 1
Flags: W
HStem: 49 21G<237 298> 171 61<54 237 298 481> 354 61<54 237 298 481>
VStem: 237 61<49 171 232 354 415 448>
DStem2: 103 653 62 606 0.742239 -0.670136<1.06458 220.237> 267 506 297 451 0.746699 0.665163<0 218.079>
LayerCount: 2
Back
Fore
SplineSet
267 506 m 1
 429 652 l 1
 471 606 l 1
 297 451 l 1
 297 415 l 1
 481 415 l 1
 481 354 l 1
 298 354 l 1
 298 232 l 1
 481 232 l 1
 481 171 l 1
 298 171 l 1
 298 49 l 1
 237 49 l 1
 237 171 l 1
 54 171 l 1
 54 232 l 1
 237 232 l 1
 237 354 l 1
 54 354 l 1
 54 415 l 1
 237 415 l 1
 237 448 l 1
 62 606 l 1
 103 653 l 1
 267 506 l 1
  Spiro
    267 506 v
    429 652 v
    471 606 v
    297 451 v
    298 415 v
    481 415 v
    481 354 v
    298 354 v
    298 232 v
    481 232 v
    481 171 v
    298 171 v
    298 49 v
    237 49 v
    237 171 v
    54 171 v
    54 232 v
    237 232 v
    237 354 v
    54 354 v
    54 415 v
    237 415 v
    236 448 v
    62 606 v
    103 653 v
    0 0 z
  EndSpiro
EndSplineSet
Validated: 1
EndChar

StartChar: paragraph
Encoding: 181 182 30
Width: 540
VWidth: 0
InSpiro: 1
Flags: W
HStem: 48 21G<64 120> 172 59<245 306 367 428> 362 56<120 265> 604 55<120 265>
VStem: 64 56<48 362 418 604> 306 61<-12 172 231 292 460 560>
LayerCount: 2
Back
Fore
SplineSet
120 604 m 1
 120 418 l 1
 265 418 l 1
 306 460 l 1
 306 560 l 1
 265 604 l 1
 120 604 l 1
  Spiro
    120 604 v
    120 418 v
    265 418 v
    308 460 v
    308 560 v
    265 604 v
    0 0 z
  EndSpiro
120 48 m 1
 64 48 l 1
 64 659 l 1
 276 659 l 2
 279 659 281 660 283 659 c 1
 286 659 288 656 290 654 c 0
 292 653 294 652 295 650 c 2
 355 590 l 2
 357 589 359 587 360 584 c 0
 361 582 362 580 363 578 c 1
 363 575 364 573 364 571 c 2
 364 448 l 2
 364 445 363 443 362 440 c 0
 362 438 361 436 359 434 c 0
 358 432 357 430 355 428 c 2
 295 370 l 2
 293 369 291 367 289 366 c 0
 287 365 285 363 282 362 c 0
 280 362 278 362 276 362 c 2
 120 362 l 1
 120 48 l 1
  Spiro
    120 48 v
    64 48 v
    64 659 v
    276 659 ]
    278.701 659.222 o
    280.965 659.444 o
    283 659 v
    285.701 658.15 o
    287.965 656.183 o
    290 654 o
    291.961 652.964 o
    293.705 651.702 o
    295 650 [
    355 590 ]
    356.961 588.668 o
    358.705 586.664 o
    360 584 ]
    363 578 v
    363.259 575.299 o
    363.741 573.035 o
    364 571 [
    364 448 ]
    363.704 445.262 o
    362.962 442.738 o
    362 440 o
    361.25 437 o
    359 434 o
    357.964 432.002 o
    356.702 429.998 o
    355 428 [
    295 370 ]
    293.002 368.742 o
    290.998 367.258 o
    289 366 o
    286.965 364.742 o
    284.701 363.258 o
    282 362 o
    276 362 v
    120 362 v
    0 0 z
  EndSpiro
306 292 m 1
 367 292 l 1
 367 231 l 1
 428 231 l 1
 428 172 l 1
 367 172 l 1
 367 -12 l 1
 306 -12 l 1
 306 172 l 1
 245 172 l 1
 245 231 l 1
 306 231 l 1
 306 292 l 1
  Spiro
    306.109 292 v
    366.609 292 v
    366.609 231 v
    427.609 231 v
    427.609 171.5 v
    366.609 171.5 v
    366.609 -12 v
    306.109 -12 v
    306.109 171.5 v
    244.609 171.5 v
    244.609 231 v
    306.109 231 v
    0 0 z
  EndSpiro
EndSplineSet
Validated: 1
EndChar

StartChar: currency
Encoding: 163 164 31
Width: 540
VWidth: 0
Flags: W
HStem: 178 48<207.823 317.653> 419 47<208.222 315.778>
VStem: 118 48<261.479 383.156> 358 48<261.284 382.963>
DStem2: 86 588 52 555 0.698805 -0.715312<0 169.573> 54 92 88 59 0.701517 0.712652<0.334057 166.894> 311 458 355 433 0.69874 0.715376<12.8601 180.325> 358 214 313 188 0.69874 -0.715376<0 167.481>
LayerCount: 2
Back
Fore
SplineSet
214 187 m 1
 88 59 l 1
 54 92 l 1
 170 212 l 1
 138 238 118 278 118 322 c 0
 118 367 138 407 170 433 c 1
 52 555 l 1
 86 588 l 1
 213 458 l 1
 228 464 245 466 262 466 c 0
 279 466 296 464 311 458 c 1
 437 587 l 1
 472 554 l 1
 355 433 l 1
 386 407 406 366 406 322 c 0
 406 279 388 240 358 214 c 1
 474 92 l 1
 439 59 l 1
 313 188 l 1
 297 182 280 178 262 178 c 0
 245 178 229 182 214 187 c 1
166 322 m 0
 166 269 209 226 262 226 c 0
 315 226 358 269 358 322 c 0
 358 375 315 419 262 419 c 0
 209 419 166 375 166 322 c 0
EndSplineSet
Validated: 1
EndChar

StartChar: zero
Encoding: 47 48 32
Width: 540
VWidth: 0
Flags: W
HStem: 49 60<223 314> 600 60<225 311>
VStem: 60 59<213 495> 238 60<262.18 442.82> 417 59<211 495>
CounterMasks: 1 38
LayerCount: 2
Back
Fore
SplineSet
268 444 m 0
 284 444 298 430 298 414 c 0
 298 291 l 0
 298 275 284 261 268 261 c 0
 251 261 238 275 238 291 c 0
 238 414 l 0
 238 430 251 444 268 444 c 0
119 495 m 1
 119 213 l 1
 223 109 l 1
 314 109 l 1
 417 211 l 1
 417 495 l 1
 311 600 l 1
 225 600 l 1
 119 495 l 1
69 528 m 2
 193 651 l 0
 198 657 207 660 214 660 c 0
 323 660 l 0
 331 660 339 656 344 651 c 0
 467 528 l 0
 473 523 476 514 476 507 c 0
 476 199 l 0
 476 191 472 182 467 178 c 1
 347 58 l 0
 341 52 332 49 326 49 c 0
 212 49 l 0
 204 49 195 53 191 58 c 0
 69 180 l 0
 63 186 60 194 60 201 c 0
 60 507 l 0
 60 515 64 524 69 528 c 2
EndSplineSet
Validated: 1
EndChar

StartChar: one
Encoding: 48 49 33
Width: 540
VWidth: 0
Flags: W
HStem: 50 21G<238 298> 638 20G<265.5 271>
VStem: 238 60<50 554>
LayerCount: 2
Back
Fore
SplineSet
249 648 m 2
 255 654 262 658 269 658 c 0
 273 658 279 658 283 656 c 0
 295 651 298 641 298 628 c 2
 298 50 l 1
 238 50 l 1
 238 554 l 1
 142 456 l 1
 100 495 l 1
 249 648 l 2
EndSplineSet
Validated: 1
EndChar

StartChar: two
Encoding: 49 50 34
Width: 540
VWidth: 0
Flags: W
HStem: 48 60<160 476> 476 21G<60 119> 600 60<223 374>
VStem: 60 59<476 496> 417 59<455 557>
LayerCount: 2
Back
Fore
SplineSet
119 476 m 1
 60 476 l 1
 60 508 l 0
 60 516 64 524 69 529 c 0
 190 651 l 0
 196 657 204 660 211 660 c 0
 385 660 l 0
 393 660 401 656 406 651 c 0
 467 590 l 0
 473 584 476 576 476 569 c 0
 476 443 l 0
 476 435 472 427 467 422 c 0
 160 108 l 1
 476 108 l 1
 476 48 l 1
 87 48 l 0
 80 48 72 51 66 57 c 0
 60 63 57 71 57 78 c 0
 57 85 60 93 66 99 c 0
 417 455 l 1
 417 557 l 1
 374 600 l 1
 223 600 l 1
 119 496 l 1
 119 476 l 1
EndSplineSet
Validated: 1
EndChar

StartChar: three
Encoding: 50 51 35
Width: 540
VWidth: 0
Flags: W
HStem: 50 60<159 318> 600 60<119 417>
VStem: 417 58<209 251 579 600>
LayerCount: 2
Back
Fore
SplineSet
119 600 m 1
 119 660 l 1
 476 660 l 1
 476 567 l 2
 476 559 472 551 467 546 c 2
 334 413 l 1
 338 412 342 409 344 407 c 2
 466 285 l 2
 472 279 475 271 475 264 c 2
 475 197 l 2
 475 189 471 181 466 176 c 2
 349 59 l 2
 343 53 335 50 328 50 c 2
 147 50 l 2
 139 50 131 54 126 59 c 2
 60 125 l 1
 102 167 l 1
 159 110 l 1
 318 110 l 1
 417 209 l 1
 417 251 l 1
 313 356 l 1
 264 356 l 2
 257 356 249 359 243 365 c 0
 237 371 234 378 234 386 c 0
 234 394 237 401 243 407 c 2
 417 579 l 1
 417 600 l 1
 119 600 l 1
EndSplineSet
Validated: 1
EndChar

StartChar: four
Encoding: 51 52 36
Width: 540
VWidth: 0
Flags: W
HStem: 244 56<117 357 417 476> 640 20G<326 417>
VStem: 60 57<300 371> 357 60<25 244 300 600>
LayerCount: 2
Back
Fore
SplineSet
417 300 m 1
 476 300 l 1
 476 244 l 1
 417 244 l 1
 417 25 l 1
 357 25 l 1
 357 244 l 1
 90 244 l 2
 74 244 60 258 60 274 c 2
 60 386 l 2
 60 392 63 401 69 407 c 2
 309 651 l 2
 313 656 322 660 330 660 c 2
 417 660 l 1
 417 300 l 1
357 300 m 1
 357 600 l 1
 343 600 l 1
 117 371 l 1
 117 300 l 1
 357 300 l 1
EndSplineSet
Validated: 1
EndChar

StartChar: five
Encoding: 52 53 37
Width: 540
VWidth: 0
Flags: W
HStem: 50 60<63 314> 417 60<119 315> 600 60<119 476>
VStem: 60 59<477 600> 417 59<214 315>
LayerCount: 2
Back
Fore
SplineSet
476 660 m 1
 476 600 l 1
 119 600 l 1
 119 477 l 1
 326 477 l 2
 333 477 341 474 347 468 c 2
 467 348 l 2
 472 344 476 335 476 327 c 2
 476 201 l 2
 476 194 473 186 467 180 c 2
 346 59 l 2
 342 54 333 50 325 50 c 2
 63 50 l 1
 63 110 l 1
 314 110 l 1
 417 214 l 1
 417 315 l 1
 315 417 l 1
 60 417 l 1
 60 660 l 1
 476 660 l 1
EndSplineSet
Validated: 1
EndChar

StartChar: six
Encoding: 53 54 38
Width: 540
VWidth: 0
Flags: W
HStem: 35 60<225 310> 355 57<229 314>
VStem: 60 61<200 246 328 493> 416 60<202 252>
LayerCount: 2
Back
Fore
SplineSet
60 186 m 2
 60 187 60 186 60 187 c 0
 60 505 l 0
 60 512 63 520 69 526 c 0
 212 669 l 1
 255 627 l 1
 121 493 l 1
 121 328 l 1
 196 403 l 0
 201 408 209 412 217 412 c 0
 327 412 l 0
 334 412 342 409 348 403 c 0
 467 282 l 0
 472 277 476 269 476 261 c 0
 476 189 l 0
 476 182 473 174 467 168 c 0
 343 44 l 0
 338 39 330 35 322 35 c 0
 213 35 l 0
 206 35 198 38 192 44 c 0
 69 166 l 0
 68 167 60 186 60 186 c 2
121 246 m 1
 121 200 l 1
 225 95 l 1
 310 95 l 1
 416 202 l 1
 416 252 l 1
 314 355 l 1
 229 355 l 1
 121 246 l 1
EndSplineSet
Validated: 1
EndChar

StartChar: seven
Encoding: 54 55 39
Width: 540
VWidth: 0
Flags: W
HStem: 49 21G<179 238> 600 60<60 416>
VStem: 179 59<49 320> 416 60<582 600>
LayerCount: 2
Back
Fore
SplineSet
238 49 m 1
 179 49 l 1
 179 333 l 2
 179 341 183 350 188 354 c 2
 416 582 l 1
 416 600 l 1
 60 600 l 1
 60 660 l 1
 476 660 l 1
 476 570 l 2
 476 563 473 554 467 549 c 2
 238 320 l 1
 238 49 l 1
EndSplineSet
Validated: 1
EndChar

StartChar: eight
Encoding: 55 56 40
Width: 540
VWidth: 0
Flags: W
HStem: 49 55<219 315> 363 56<223 315> 602 57<221 315>
VStem: 60 60<207 254> 119 60<458 554> 356 59<458 560> 418 58<208 254>
LayerCount: 2
Back
Fore
SplineSet
128 583 m 2xee
 186 649 l 2
 192 656 200 659 208 659 c 2
 327 659 l 2
 336 659 343 656 348 651 c 2
 406 591 l 2
 412 585 415 578 415 571 c 2
 415 446 l 1
 405 426 l 1
 369 392 l 1
 469 285 l 2
 473 280 476 273 476 265 c 2
 476 194 l 1
 476 187 473 181 467 175 c 1
 346 56 l 2
 341 51 335 49 327 49 c 2
 207 49 l 2
 198 49 190 52 186 56 c 2
 69 175 l 1
 60 195 l 1
 60 266 l 2xf6
 60 271 64 278 70 285 c 2
 168 390 l 1
 129 424 l 2
 123 429 119 437 119 446 c 2
 119 565 l 2
 119 570 122 577 128 583 c 2xee
120 254 m 1
 120 207 l 1
 219 104 l 1
 315 104 l 1
 418 208 l 1
 418 254 l 1
 315 363 l 1
 223 363 l 1
 120 254 l 1
179 554 m 1xee
 179 458 l 1
 222 419 l 1
 316 419 l 1
 356 458 l 1
 356 560 l 1
 315 602 l 1
 221 602 l 1
 179 554 l 1xee
EndSplineSet
Validated: 1
EndChar

StartChar: nine
Encoding: 56 57 41
Width: 540
VWidth: 0
Flags: W
HStem: 294 60<159 253> 600 60<224 373>
VStem: 60 60<393 496> 417 59<151 434 516 557>
LayerCount: 2
Back
Fore
SplineSet
417 434 m 1
 286 303 l 0
 282 298 273 294 265 294 c 0
 147 294 l 0
 140 294 132 297 126 303 c 0
 69 360 l 0
 64 364 60 373 60 381 c 0
 60 508 l 0
 60 515 63 524 69 529 c 0
 191 651 l 0
 195 656 204 660 212 660 c 0
 385 660 l 0
 392 660 401 657 406 651 c 0
 467 589 l 0
 472 584 476 576 476 568 c 0
 476 140 l 0
 476 133 473 125 467 119 c 0
 387 39 l 1
 345 81 l 1
 417 151 l 1
 417 434 l 1
417 516 m 1
 417 557 l 1
 373 600 l 1
 224 600 l 1
 120 496 l 1
 120 393 l 1
 159 354 l 1
 253 354 l 1
 417 516 l 1
EndSplineSet
Validated: 1
EndChar

StartChar: germandbls
Encoding: 222 223 42
Width: 540
VWidth: 0
InSpiro: 1
Flags: W
HStem: 53 59<278 381> 601 58<215 259>
VStem: 55 56<49 503> 300 57<519 558> 422 57<152 251>
DStem2: 63 536 111 503 0.727338 0.686279<12.265 155.164> 309 445 248 424 0.709142 -0.705066<0 216.916>
LayerCount: 2
Back
Fore
SplineSet
55 515 m 2
 55 518 54 520 55 523 c 0
 56 525 57 528 58 530 c 0
 59 532 61 534 63 536 c 2
 184 650 l 2
 185 651 186 652 187 653 c 0
 188 654 189 654 190 655 c 0
 192 656 194 659 196 659 c 0
 197 659 199 659 200 659 c 0
 201 659 203 659 204 659 c 2
 271 659 l 2
 274 659 276 660 279 659 c 0
 281 658 284 655 286 654 c 0
 288 653 290 651 292 649 c 2
 349 589 l 2
 350 588 351 587 352 586 c 0
 353 585 353 584 354 583 c 0
 355 581 356 579 356 577 c 0
 356 576 357 574 357 573 c 0
 357 572 357 570 357 569 c 2
 357 507 l 2
 357 506 357 504 357 503 c 0
 357 502 356 501 356 500 c 0
 356 499 355 497 355 496 c 0
 355 495 355 494 354 493 c 0
 353 492 353 491 352 490 c 0
 351 489 350 489 349 488 c 2
 309 445 l 1
 471 283 l 2
 473 281 475 279 476 277 c 0
 477 275 478 273 478 271 c 0
 478 270 479 268 479 267 c 0
 479 266 479 264 479 263 c 2
 479 140 l 2
 479 137 478 135 477 132 c 0
 477 130 476 128 475 126 c 0
 474 124 472 122 470 120 c 2
 413 64 l 2
 411 62 409 60 407 59 c 0
 405 58 402 57 400 56 c 0
 398 55 395 53 393 53 c 2
 267 53 l 2
 266 53 264 53 263 53 c 0
 262 53 261 53 260 53 c 0
 258 54 255 56 253 57 c 0
 251 58 249 60 247 62 c 2
 186 122 l 1
 226 162 l 1
 278 112 l 1
 381 112 l 1
 422 152 l 1
 422 251 l 1
 248 424 l 2
 246 426 244 428 243 430 c 0
 242 432 242 435 241 437 c 0
 240 439 240 442 240 444 c 0
 240 446 240 449 240 451 c 0
 240 454 242 456 243 458 c 0
 244 460 246 462 248 464 c 2
 300 519 l 1
 300 558 l 1
 259 601 l 1
 215 601 l 1
 111 503 l 1
 111 49 l 1
 55 49 l 1
 55 515 l 2
  Spiro
    55 515 ]
    54.7781 517.738 o
    54.5556 520.262 o
    55 523 o
    55.999 525.257 o
    57.001 527.743 o
    58 530 o
    59.2947 531.998 o
    61.0389 534.002 o
    63 536 [
    184 650 v
    187 653 o
    187.999 653.74 o
    189.001 654.26 o
    190 655 o
    191.998 656.48 o
    194.002 658.187 o
    196 659 o
    200 659 o
    204 659 v
    271 659 ]
    273.738 659.222 o
    276.262 659.444 o
    279 659 o
    281.257 657.483 o
    283.743 655.517 o
    286 654 o
    287.998 652.705 o
    290.002 650.961 o
    292 649 [
    349 589 v
    352 586 o
    352.74 585.001 o
    353.26 583.999 o
    354 583 o
    354.962 581.002 o
    355.704 578.998 o
    356 577 o
    356.259 575.742 o
    356.741 574.258 o
    357 573 o
    357 569 v
    357 507 v
    357 503 o
    356.741 502.001 o
    356.259 500.999 o
    356 500 o
    355.741 498.742 o
    355.259 497.258 o
    355 496 o
    354.963 495.001 o
    354.703 493.999 o
    354 493 o
    353.26 492.001 o
    352.74 490.999 o
    352 490 o
    351.001 489.26 o
    349.999 488.74 o
    349 488 [
    309 445 v
    471 283 ]
    472.961 281.002 o
    474.705 278.998 o
    476 277 o
    476.962 275.002 o
    477.704 272.998 o
    478 271 o
    478.259 269.742 o
    478.741 268.258 o
    479 267 o
    479 263 v
    479 140 ]
    478.704 137.262 o
    477.962 134.738 o
    477 132 o
    476.704 130.002 o
    475.962 127.998 o
    475 126 o
    473.705 124.002 o
    471.961 121.998 o
    470 120 [
    413 64 ]
    411.002 62.0389 o
    408.998 60.2947 o
    407 59 o
    404.743 58.001 o
    402.257 56.999 o
    400 56 o
    397.743 54.7791 o
    395.257 53.5546 o
    393 53 [
    267 53 v
    263 53 o
    260 53 o
    257.743 54.2578 o
    255.257 55.7422 o
    253 57 o
    251.002 58.2947 o
    248.998 60.0389 o
    247 62 [
    186 122 v
    226 162 v
    278 112 v
    381 112 v
    422 152 v
    422 251 v
    248 424 ]
    246.039 425.998 o
    244.295 428.002 o
    243 430 o
    242.26 432.257 o
    241.74 434.743 o
    241 437 o
    240.297 439.257 o
    240.037 441.743 o
    240 444 o
    240 451 o
    240.555 453.701 o
    241.779 455.965 o
    243 458 o
    244.295 459.998 o
    246.039 462.002 o
    248 464 [
    300 519 v
    300 558 v
    259 601 v
    215 601 v
    111 503 v
    111 49 v
    55 49 v
    0 0 z
  EndSpiro
EndSplineSet
Validated: 1
EndChar

StartChar: section
Encoding: 166 167 43
Width: 540
VWidth: 0
Flags: W
HStem: -71 60<116 258> 598 61<214 357>
VStem: 55 61<336 437> 116 57<512 554> 298 59<31 73> 357 59<150 251>
DStem2: 116 336 64 303 0.722374 -0.691503<0 301.248> 173 508 141 459 0.722374 -0.691503<10.7677 310.633>
LayerCount: 2
Back
Fore
SplineSet
332 126 m 1xe4
 357 150 l 1
 357 251 l 1
 141 459 l 1
 116 437 l 1
 116 336 l 1
 332 126 l 1xe4
357 73 m 1xc8
 357 20 l 2
 357 17 357 15 357 12 c 1
 356 10 353 8 352 6 c 0
 351 4 350 2 348 0 c 2
 292 -61 l 2
 290 -63 288 -65 286 -66 c 0
 283 -67 281 -70 279 -71 c 0
 276 -72 273 -71 271 -71 c 2
 116 -71 l 1
 116 -11 l 1xd4
 258 -11 l 1
 298 31 l 1
 298 79 l 1
 64 303 l 2
 62 305 60 307 59 309 c 0
 58 311 56 314 55 316 c 0
 54 319 55 322 55 324 c 2
 55 450 l 2xe8
 55 453 57 455 58 458 c 0
 59 460 60 463 61 465 c 0
 63 467 65 468 67 470 c 2
 116 512 l 1
 116 565 l 2
 116 568 115 570 116 573 c 0
 116 575 118 577 119 579 c 0
 120 581 122 583 123 585 c 2
 180 646 l 2
 181 648 183 650 186 651 c 0
 188 652 190 653 193 654 c 0
 195 655 198 659 201 659 c 2
 357 659 l 1
 357 598 l 1
 214 598 l 1
 173 554 l 1
 173 508 l 1
 407 284 l 2
 409 282 411 280 412 278 c 0
 414 275 415 273 415 271 c 0
 416 268 416 265 416 263 c 2
 416 137 l 2xd4
 416 134 414 131 413 129 c 0
 412 126 411 124 410 122 c 0
 409 120 407 118 405 116 c 2
 357 73 l 1xc8
EndSplineSet
Validated: 1
EndChar

StartChar: numbersign
Encoding: 34 35 44
Width: 540
VWidth: 0
InSpiro: 1
Flags: W
HStem: 293 60<58 117 177 296 355 415> 476 61<58 117 177 296 355 415> 578 20G<117 177 296 355>
VStem: 117 60<232 293 354 476 537 598> 296 59<233 293 353 476 537 598>
LayerCount: 2
Back
Fore
SplineSet
296 476 m 1
 177 476 l 1
 177 353 l 1
 296 353 l 1
 296 476 l 1
  Spiro
    296 476 v
    177 476 v
    177 353 v
    296 353 v
    0 0 z
  EndSpiro
117 598 m 1
 177 598 l 1
 177 537 l 1
 296 537 l 1
 296 598 l 1
 355 598 l 1
 355 536 l 1
 415 536 l 1
 415 476 l 1
 355 476 l 1
 355 353 l 1
 415 353 l 1
 415 293 l 1
 355 293 l 1
 355 233 l 1
 296 233 l 1
 296 293 l 1
 177 293 l 1
 177 232 l 1
 117 232 l 1
 117 293 l 1
 58 293 l 1
 58 354 l 1
 117 354 l 1
 117 476 l 1
 58 476 l 1
 58 537 l 1
 117 537 l 1
 117 598 l 1
  Spiro
    117 598 v
    177 598 v
    177 537 v
    296 537 v
    296 598 v
    355 598 v
    355 536 v
    415 536 v
    415 476 v
    355 476 v
    355 353 v
    415 353 v
    415 293 v
    355 293 v
    355 233 v
    296 233 v
    296 293 v
    177 293 v
    177 232 v
    117 232 v
    117 293 v
    58 293 v
    58 354 v
    117 354 v
    117 476 v
    58 476 v
    58 537 v
    117 537 v
    0 0 z
  EndSpiro
EndSplineSet
Validated: 1
EndChar

StartChar: at
Encoding: 63 64 45
Width: 540
VWidth: 0
Flags: W
HStem: 51 60<157 476> 292 60<239 298 358 377> 412 58<282 298> 596 60<162 376>
VStem: 60 60<149 554> 179 60<352 369> 298 60<352 412> 416 60<392 556>
LayerCount: 2
Back
Fore
SplineSet
298 352 m 1
 298 412 l 1
 282 412 l 1
 239 369 l 1
 239 352 l 1
 298 352 l 1
358 352 m 1
 377 352 l 1
 416 392 l 1
 416 556 l 1
 376 596 l 1
 162 596 l 1
 120 554 l 1
 120 149 l 1
 157 111 l 1
 476 111 l 1
 476 51 l 1
 145 51 l 0
 138 51 129 54 123 60 c 0
 68 115 l 0
 63 120 60 128 60 136 c 0
 60 566 l 0
 60 573 62 581 68 587 c 0
 128 647 l 0
 133 652 142 656 150 656 c 0
 388 656 l 0
 395 656 404 653 410 647 c 0
 468 589 l 0
 473 584 476 576 476 568 c 0
 476 379 l 0
 476 372 474 364 468 358 c 0
 411 301 l 0
 406 296 398 292 390 292 c 0
 209 292 l 0
 193 292 179 306 179 322 c 0
 179 381 l 0
 179 388 181 396 187 402 c 0
 248 463 l 0
 253 468 262 470 270 470 c 0
 328 470 l 0
 344 470 358 458 358 442 c 0
 358 352 l 1
EndSplineSet
Validated: 1
EndChar

StartChar: percent
Encoding: 36 37 46
Width: 540
VWidth: 0
InSpiro: 1
Flags: W
HStem: -13 58<362.735 426.194> 115 58<362.432 427.55> 470 58<119.735 183.194> 598 58<119.432 184.55>
VStem: 60 57<530.825 595.314> 187 55<530.991 595.166> 303 57<47.8254 112.314> 430 55<47.9906 112.166>
LayerCount: 2
Back
Fore
SplineSet
70 118 m 0
 64 124 61 131 61 139 c 0
 61 147 64 154 70 160 c 0
 435 525 l 0
 440 531 448 534 456 534 c 0
 463 534 471 531 477 525 c 0
 483 520 486 512 486 504 c 0
 486 496 483 488 477 483 c 0
 112 118 l 0
 106 112 98 109 91 109 c 0
 83 109 76 112 70 118 c 0
  Spiro
    69.5646 117.787 o
    61.8654 131.339 o
    61.8654 146.661 o
    69.5646 160.213 o
    434.565 525.213 o
    448.117 532.912 o
    463.439 532.912 o
    476.991 525.213 o
    484.69 511.661 o
    484.69 496.339 o
    476.991 482.787 o
    111.991 117.787 o
    98.4389 110.088 o
    83.1167 110.088 o
    0 0 z
  EndSpiro
360 81 m 0
 360 61 375 45 395 45 c 0
 414 45 430 61 430 81 c 0
 430 101 414 115 395 115 c 0
 375 115 360 101 360 81 c 0
  Spiro
    364.672 62.9127 o
    377.255 49.97 o
    394.9 45.062 o
    412.545 49.97 o
    425.129 62.9127 o
    429.9 81.062 o
    425.129 99.2113 o
    412.545 112.154 o
    394.9 117.062 o
    377.255 112.154 o
    364.672 99.2113 o
    359.9 81.062 o
    0 0 z
  EndSpiro
303 80 m 0
 303 131 344 173 394 173 c 0
 444 173 485 131 485 80 c 0
 485 29 444 -13 394 -13 c 0
 344 -13 303 29 303 80 c 0
  Spiro
    302.9 80.062 o
    315.306 126.797 o
    348.023 160.124 o
    393.9 172.762 o
    439.778 160.124 o
    472.494 126.797 o
    484.9 80.062 o
    472.494 33.3275 o
    439.778 8.52036e-07 o
    393.9 -12.638 o
    348.023 8.52036e-07 o
    315.306 33.3275 o
    0 0 z
  EndSpiro
117 564 m 0
 117 544 132 528 152 528 c 0
 171 528 187 544 187 564 c 0
 187 584 171 598 152 598 c 0
 132 598 117 584 117 564 c 0
  Spiro
    121.549 545.851 o
    134.133 532.908 o
    151.778 528 o
    169.423 532.908 o
    182.006 545.851 o
    186.778 564 o
    182.006 582.149 o
    169.423 595.092 o
    151.778 600 o
    134.133 595.092 o
    121.549 582.149 o
    116.778 564 o
    0 0 z
  EndSpiro
60 563 m 0
 60 614 101 656 151 656 c 0
 201 656 242 614 242 563 c 0
 242 512 201 470 151 470 c 0
 101 470 60 512 60 563 c 0
  Spiro
    59.7777 563 o
    72.184 609.735 o
    104.9 643.062 o
    150.778 655.7 o
    196.655 643.062 o
    229.372 609.735 o
    241.778 563 o
    229.372 516.265 o
    196.655 482.938 o
    150.778 470.3 o
    104.9 482.938 o
    72.184 516.265 o
    0 0 z
  EndSpiro
EndSplineSet
Validated: 1
EndChar

StartChar: underscore
Encoding: 94 95 47
Width: 540
VWidth: 0
Flags: W
HStem: -13 62<54 481>
LayerCount: 2
Back
Fore
SplineSet
54 49 m 1
 481 49 l 1
 481 -13 l 1
 54 -13 l 1
 54 49 l 1
EndSplineSet
Validated: 1
EndChar

StartChar: ampersand
Encoding: 37 38 48
Width: 540
VWidth: 0
InSpiro: 1
Flags: W
HStem: 53 57<155 256> 298 62<141 177> 538 56<155 198>
VStem: 60 56<152 259 393 496> 177 56<275 298> 237 57<398 498>
LayerCount: 2
Back
Fore
SplineSet
186 242 m 2
 184 244 182 245 181 247 c 0
 180 249 178 251 177 253 c 0
 176 255 177 258 177 260 c 2
 177 298 l 1
 141 298 l 1
 114 259 l 1
 114 152 l 1
 155 110 l 1
 256 110 l 1
 287 141 l 1
 186 242 l 2
  Spiro
    186 242 ]
    184.039 243.739 o
    182.295 245.261 o
    181 247 o
    179.742 248.998 o
    178.258 251.002 o
    177 253 o
    176.556 255.257 o
    176.778 257.743 o
    177 260 [
    177 298 v
    141 298 v
    114 259 v
    114 152 v
    155 110 v
    256 110 v
    287 141 v
    0 0 z
  EndSpiro
65 368 m 2
 64 370 61 371 60 373 c 0
 60 374 60 374 60 375 c 0
 60 376 60 377 60 378 c 0
 60 379 60 380 60 381 c 0
 60 382 60 383 60 384 c 2
 60 507 l 2
 60 508 60 510 60 511 c 0
 60 512 60 513 60 514 c 0
 60 515 60 517 60 518 c 0
 60 519 59 520 60 521 c 0
 61 522 63 523 64 524 c 0
 65 525 66 526 67 527 c 2
 122 586 l 2
 124 588 126 590 128 591 c 0
 130 592 133 593 135 594 c 0
 138 595 140 594 143 594 c 2
 210 594 l 2
 212 594 215 594 217 593 c 0
 219 592 222 591 224 590 c 0
 225 589 226 589 227 588 c 0
 228 587 229 587 230 586 c 2
 286 531 l 2
 287 530 287 529 288 528 c 0
 289 527 290 526 290 525 c 0
 291 523 292 520 293 518 c 0
 294 516 294 513 294 511 c 2
 294 387 l 2
 294 386 297 384 297 383 c 0
 297 382 296 380 296 379 c 0
 295 377 295 374 294 372 c 0
 293 371 293 370 292 369 c 0
 291 368 290 367 289 366 c 2
 233 309 l 1
 233 275 l 1
 328 182 l 1
 433 286 l 1
 474 246 l 1
 368 141 l 1
 471 39 l 1
 431 0 l 1
 328 101 l 1
 288 61 l 2
 286 59 284 57 282 56 c 0
 280 55 277 54 275 53 c 0
 272 52 270 53 267 53 c 2
 143 53 l 2
 141 53 138 52 136 53 c 0
 134 54 132 56 130 57 c 0
 129 58 128 58 127 59 c 0
 126 60 125 60 124 61 c 2
 64 120 l 2
 62 122 61 124 60 126 c 0
 59 128 57 131 56 133 c 0
 55 136 57 138 57 141 c 2
 57 268 l 2
 57 269 57 270 57 271 c 0
 57 272 57 273 57 274 c 0
 57 275 60 276 60 277 c 0
 60 278 60 278 60 279 c 0
 61 281 59 282 60 284 c 2
 92 328 l 1
 65 368 l 2
  Spiro
    65 368 ]
    63.4834 369.739 o
    61.5166 371.261 o
    60 373 o
    60 375 o
    60 378 o
    60 381 o
    60 384 v
    60 507 v
    60 511 o
    60 514 o
    60 518 o
    59.7781 518.999 o
    59.5556 520.001 o
    60 521 o
    61.2578 521.999 o
    62.7422 523.001 o
    64 524 o
    67 527 v
    122 586 ]
    123.998 587.961 o
    126.002 589.705 o
    128 591 o
    130.257 591.999 o
    132.743 593.001 o
    135 594 o
    137.738 594.444 o
    140.262 594.222 o
    143 594 [
    210 594 ]
    212.257 593.963 o
    214.743 593.703 o
    217 593 o
    219.257 592.001 o
    221.743 590.999 o
    224 590 o
    224.999 589.26 o
    226.001 588.74 o
    227 588 o
    227.999 587.26 o
    229.001 586.74 o
    230 586 [
    286 531 ]
    286.74 530.001 o
    287.26 528.999 o
    288 528 o
    288.962 527.001 o
    289.704 525.999 o
    290 525 o
    290.999 522.743 o
    292.001 520.257 o
    293 518 o
    293.703 515.743 o
    293.963 513.257 o
    294 511 [
    294 387 ]
    294.776 385.742 o
    296.224 384.258 o
    297 383 o
    296.741 381.742 o
    296.259 380.258 o
    296 379 o
    295.26 376.743 o
    294.74 374.257 o
    294 372 o
    293.26 371.001 o
    292.74 369.999 o
    292 369 o
    289 366 v
    233 309 v
    233 275 v
    328 182 v
    433 286 v
    474 246 v
    368 141 v
    471 39 v
    431 0 v
    328 101 v
    288 61 ]
    286.002 59.0389 o
    283.998 57.2947 o
    282 56 o
    279.743 55.001 o
    277.257 53.999 o
    275 53 o
    272.262 52.5556 o
    269.738 52.7781 o
    267 53 [
    143 53 ]
    140.743 52.7781 o
    138.257 52.5556 o
    136 53 o
    134.002 54.2578 o
    131.998 55.7422 o
    130 57 o
    129.001 57.7402 o
    127.999 58.2598 o
    127 59 o
    126.001 59.7402 o
    124.999 60.2598 o
    124 61 [
    64 120 ]
    62.2977 121.998 o
    61.0359 124.002 o
    60 126 o
    58.7422 128.257 o
    57.2578 130.743 o
    56 133 o
    55.8144 135.738 o
    56.5193 138.262 o
    57 141 [
    57 268 v
    57 271 o
    57 274 o
    57.7764 274.999 o
    59.2236 276.001 o
    60 277 o
    60 279 o
    60.2226 280.739 o
    59.7774 282.261 o
    60 284 [
    92 328 v
    0 0 z
  EndSpiro
237 398 m 1
 237 498 l 1
 198 538 l 1
 155 538 l 1
 116 496 l 1
 116 393 l 1
 139 360 l 1
 201 360 l 1
 237 398 l 1
  Spiro
    237 398 v
    237 498 v
    198 538 v
    155 538 v
    116 496 v
    116 393 v
    139 360 v
    201 360 v
    0 0 z
  EndSpiro
EndSplineSet
Validated: 1
EndChar

StartChar: period
Encoding: 45 46 50
Width: 540
VWidth: 0
Flags: W
HStem: 50 111<179 298>
VStem: 179 119<50 161>
LayerCount: 2
Back
Fore
SplineSet
179 161 m 1
 298 161 l 1
 298 50 l 1
 179 50 l 1
 179 161 l 1
EndSplineSet
Validated: 1
EndChar

StartChar: comma
Encoding: 43 44 51
Width: 540
VWidth: 0
InSpiro: 1
Flags: W
HStem: -96 285
VStem: 238 119<107 189>
LayerCount: 2
Back
Fore
SplineSet
357 189 m 1
 357 82 l 1
 339 40 l 1
 204 -96 l 1
 120 -12 l 1
 238 107 l 1
 238 189 l 1
 357 189 l 1
  Spiro
    357 189 v
    357 82 v
    339 40 v
    204 -96 v
    120 -12 v
    238 107 v
    238 189 v
    357 189 z
  EndSpiro
EndSplineSet
Validated: 1
EndChar

StartChar: colon
Encoding: 57 58 52
Width: 540
VWidth: 0
Flags: W
HStem: 50 111<179 298> 300 111<179 298>
VStem: 179 119<50 161 300 411>
LayerCount: 2
Back
Fore
SplineSet
179 161 m 1
 298 161 l 1
 298 50 l 1
 179 50 l 1
 179 161 l 1
179 411 m 1
 298 411 l 1
 298 300 l 1
 179 300 l 1
 179 411 l 1
EndSplineSet
Validated: 1
EndChar

StartChar: plus
Encoding: 42 43 53
Width: 540
VWidth: 0
Flags: W
HStem: 293 63<60 238 298 476>
VStem: 238 60<133 293 356 522>
LayerCount: 2
Back
Fore
SplineSet
238 522 m 1
 298 522 l 1
 298 356 l 1
 476 356 l 1
 476 293 l 1
 298 293 l 1
 298 133 l 1
 238 133 l 1
 238 293 l 1
 60 293 l 1
 60 356 l 1
 238 356 l 1
 238 522 l 1
EndSplineSet
Validated: 1
EndChar

StartChar: logicalnot
Encoding: 171 172 54
Width: 540
VWidth: 0
Flags: W
HStem: 537 60<54 421>
VStem: 421 60<415 537>
LayerCount: 2
Back
Fore
SplineSet
54 597 m 1
 481 597 l 1
 481 415 l 1
 421 415 l 1
 421 537 l 1
 54 537 l 1
 54 597 l 1
EndSplineSet
Validated: 1
EndChar

StartChar: macron
Encoding: 174 175 55
Width: 540
VWidth: 0
Flags: W
HStem: 598 61<54 481>
LayerCount: 2
Back
Fore
SplineSet
54 659 m 1
 481 659 l 1
 481 598 l 1
 54 598 l 1
 54 659 l 1
EndSplineSet
Validated: 1
EndChar

StartChar: degree
Encoding: 175 176 56
Width: 540
VWidth: 0
Flags: W
HStem: 417 57<193.249 282.751> 603 56<193.739 282.261>
VStem: 120 57<490.318 587.312> 299 57<490.318 587.312>
LayerCount: 2
Back
Fore
SplineSet
238 659 m 0
 304 659 356 604 356 538 c 0
 356 472 304 417 238 417 c 0
 172 417 120 472 120 538 c 0
 120 604 172 659 238 659 c 0
177 538 m 0
 177 502 205 474 238 474 c 0
 271 474 299 502 299 538 c 0
 299 574 271 603 238 603 c 0
 205 603 177 574 177 538 c 0
EndSplineSet
Validated: 1
EndChar

StartChar: periodcentered
Encoding: 182 183 57
Width: 540
VWidth: 0
Flags: W
HStem: 231 123<177 298>
VStem: 177 121<231 354>
LayerCount: 2
Back
Fore
SplineSet
177 354 m 1
 298 354 l 1
 298 231 l 1
 177 231 l 1
 177 354 l 1
EndSplineSet
Validated: 1
EndChar

StartChar: asciicircum
Encoding: 93 94 58
Width: 540
VWidth: 0
InSpiro: 1
Flags: W
HStem: 475 187
VStem: 111 316
LayerCount: 2
Back
Fore
SplineSet
132 496 m 1
 111 517 l 1
 248 654 l 2
 254 660 261 662 268 662 c 0
 277 662 285 659 290 654 c 2
 427 517 l 1
 406 496 l 1
 385 475 l 1
 269 591 l 1
 153 475 l 1
 132 496 l 1
  Spiro
    132 496 v
    110.787 517.213 v
    247.787 654.213 ]
    262.454 661.94 o
    278.035 661.109 o
    290.213 654.213 [
    427.213 517.213 v
    406 496 v
    384.787 474.787 v
    269 590.574 v
    153.213 474.787 v
    0 0 z
  EndSpiro
EndSplineSet
Validated: 1
EndChar

StartChar: asciitilde
Encoding: 125 126 59
Width: 540
VWidth: 0
InSpiro: 1
Flags: W
HStem: 480 60<346 387> 598 60<163 204>
LayerCount: 2
Back
Fore
SplineSet
91 568 m 1
 70 589 l 1
 130 649 l 2
 136 655 144 658 151 658 c 2
 216 658 l 2
 224 658 233 654 237 649 c 2
 346 540 l 1
 387 540 l 1
 435 588 l 1
 456 567 l 1
 477 546 l 1
 420 489 l 2
 416 484 407 480 399 480 c 2
 334 480 l 2
 327 480 319 483 313 489 c 2
 204 598 l 1
 163 598 l 1
 112 547 l 1
 91 568 l 1
  Spiro
    91 568 v
    69.7868 589.213 v
    129.787 649.213 ]
    136.358 654.035 o
    143.845 656.998 o
    151 658 [
    216 658 ]
    224.056 656.763 o
    231.445 653.564 o
    237.213 649.213 [
    346.426 540 v
    386.574 540 v
    434.787 588.213 v
    456 567 v
    477.213 545.787 v
    420.213 488.787 ]
    414.445 484.436 o
    407.056 481.237 o
    399 480 [
    334 480 ]
    326.845 481.002 o
    319.358 483.965 o
    312.787 488.787 [
    203.574 598 v
    163.426 598 v
    112.213 546.787 v
    0 0 z
  EndSpiro
EndSplineSet
Validated: 1
EndChar

StartChar: dieresis
Encoding: 167 168 60
Width: 540
VWidth: 0
Flags: W
HStem: 598 61<114 177 298 360>
VStem: 114 63<598 659> 298 62<598 659>
LayerCount: 2
Back
Fore
SplineSet
114 659 m 1
 177 659 l 1
 177 598 l 1
 114 598 l 1
 114 659 l 1
298 659 m 1
 360 659 l 1
 360 598 l 1
 298 598 l 1
 298 659 l 1
EndSplineSet
Validated: 1
EndChar

StartChar: grave
Encoding: 95 96 61
Width: 540
VWidth: 0
Flags: W
HStem: 476 183
VStem: 184 184
LayerCount: 2
Back
Fore
SplineSet
192 651 m 0
 198 657 206 659 214 659 c 0
 221 659 229 657 235 651 c 0
 360 527 l 0
 366 521 368 513 368 506 c 0
 368 498 366 490 360 484 c 0
 354 478 346 476 338 476 c 0
 331 476 323 478 317 484 c 0
 192 609 l 0
 186 615 184 623 184 630 c 0
 184 638 186 646 192 651 c 0
EndSplineSet
Validated: 1
EndChar

StartChar: acute
Encoding: 179 180 62
Width: 540
VWidth: 0
Flags: W
HStem: 477 182
VStem: 179 181
DStem2: 308 650 231 486 0.704167 0.710035<-192.071 20.7609>
LayerCount: 2
Back
Fore
SplineSet
188 486 m 0
 182 492 179 500 179 507 c 0
 179 516 183 524 188 529 c 2
 308 650 l 2
 314 656 322 659 329 659 c 0
 338 659 346 655 351 650 c 0
 356 645 360 637 360 628 c 0
 360 621 357 613 351 607 c 2
 231 486 l 2
 226 481 218 477 209 477 c 0
 202 477 194 480 188 486 c 0
EndSplineSet
Validated: 1
EndChar

StartChar: cedilla
Encoding: 183 184 63
Width: 540
VWidth: 0
InSpiro: 1
Flags: W
HStem: -70 58<116 196>
VStem: 238 57<31 172>
LayerCount: 2
Back
Fore
SplineSet
295 19 m 2
 295 18 295 16 295 15 c 0
 295 14 294 13 294 12 c 0
 294 11 293 9 293 8 c 0
 293 7 293 6 292 5 c 0
 291 4 291 1 290 0 c 0
 289 -1 288 1 287 0 c 2
 229 -61 l 2
 227 -63 225 -65 223 -66 c 0
 221 -67 218 -69 216 -70 c 0
 214 -71 211 -70 209 -70 c 2
 116 -70 l 1
 116 -12 l 1
 196 -12 l 1
 238 31 l 1
 238 172 l 1
 295 172 l 1
 295 19 l 2
  Spiro
    295 19 v
    295 15 o
    294.741 14.001 o
    294.259 12.999 o
    294 12 o
    293.741 10.7422 o
    293.259 9.25781 o
    293 8 o
    292.963 7.001 o
    292.703 5.999 o
    292 5 o
    291.26 3.48337 o
    290.74 1.51663 o
    290 0 o
    289.001 -0.222555 o
    287.999 0.222555 o
    287 0 [
    229 -61 ]
    227.002 -62.9611 o
    224.998 -64.7053 o
    223 -66 o
    220.743 -67.2578 o
    218.257 -68.7422 o
    216 -70 o
    213.743 -70.4444 o
    211.257 -70.2219 o
    209 -70 [
    116 -70 v
    116 -12 v
    196 -12 v
    238 31 v
    238 172 v
    295 172 v
    0 0 z
  EndSpiro
EndSplineSet
Validated: 1
EndChar

StartChar: igrave
Encoding: 235 236 66
Width: 540
VWidth: 0
UnlinkRmOvrlpSave: 1
InSpiro: 1
Flags: W
HStem: 49 21G<237 298> 456 20G<237 298> 535 183
VStem: 121 184 237 61<49 476>
LayerCount: 2
Back
Fore
SplineSet
237 476 m 1xe8
 298 476 l 1
 298 49 l 1
 237 49 l 1
 237 476 l 1xe8
  Spiro
    237 476 v
    298 476 v
    298 49 v
    237 49 v
    0 0 z
  EndSpiro
EndSplineSet
Refer: 61 96 N 1 0 0 1 -63 59 2
Validated: 1
EndChar

StartChar: idieresis
Encoding: 238 239 82
Width: 540
VWidth: 0
UnlinkRmOvrlpSave: 1
Flags: W
HStem: 49 21G<237 298> 456 20G<237 298> 596 61<141 204 325 387>
VStem: 141 63<596 657> 237 61<49 476> 325 62<596 657>
LayerCount: 2
Back
Fore
SplineSet
237 476 m 1
 298 476 l 1
 298 49 l 1
 237 49 l 1
 237 476 l 1
EndSplineSet
Refer: 60 168 S 1 0 0 1 27 -2 2
Validated: 1
EndChar

StartChar: uni03BC
Encoding: 497 956 84
Width: 540
VWidth: 0
Flags: W
HStem: 51 58<156 317 433 482> 456 20G<56 113 359 419>
VStem: 56 57<-134 68 150 476> 359 60<153 476>
LayerCount: 2
Back
Fore
SplineSet
56 476 m 1
 113 476 l 1
 113 150 l 1
 156 109 l 1
 317 109 l 1
 359 153 l 1
 359 476 l 1
 419 476 l 1
 419 141 l 2
 419 138 417 134 415 129 c 1
 433 109 l 1
 482 109 l 1
 482 51 l 1
 421 51 l 2
 411 51 403 55 400 59 c 2
 374 84 l 1
 350 60 l 2
 347 57 339 51 329 51 c 2
 144 51 l 2
 139 51 131 52 124 59 c 2
 115 68 l 1
 115 -134 l 1
 56 -134 l 1
 56 476 l 1
EndSplineSet
Validated: 1
EndChar

StartChar: icircumflex
Encoding: 237 238 87
Width: 540
VWidth: 0
UnlinkRmOvrlpSave: 1
Flags: W
HStem: 49 21G<237 298> 456 20G<237 298> 491 187
VStem: 111 316 237 61<49 476>
LayerCount: 2
Back
Fore
SplineSet
237 476 m 1xe8
 298 476 l 1
 298 49 l 1
 237 49 l 1
 237 476 l 1xe8
EndSplineSet
Refer: 58 94 N 1 0 0 1 0 16 2
Validated: 1
EndChar

StartChar: multiply
Encoding: 214 215 91
Width: 540
VWidth: 0
Flags: W
VStem: 225 85<280.5 365.5>
DStem2: 138 496 95 453 0.705937 -0.708275<0.100517 183.142 244.053 427.192> 95 193 138 151 0.705937 0.708275<0.607758 183.041 243.953 427.7>
LayerCount: 2
Back
Fore
SplineSet
95 453 m 1
 138 496 l 1
 267 366 l 1
 397 496 l 1
 440 453 l 1
 310 323 l 1
 440 193 l 1
 397 151 l 1
 267 280 l 1
 138 151 l 1
 95 193 l 1
 225 323 l 1
 95 453 l 1
EndSplineSet
Validated: 1
EndChar

StartChar: iacute
Encoding: 236 237 92
Width: 540
VWidth: 0
UnlinkRmOvrlpSave: 1
Flags: W
HStem: 49 21G<235 298> 456 20G<235 298> 536 182
VStem: 235 63<49 476> 235 181
DStem2: 364 709 287 545 0.704167 0.710035<-192.071 20.7609>
LayerCount: 2
Back
Fore
SplineSet
235 476 m 1xf0
 298 476 l 1
 298 49 l 1
 235 49 l 1
 235 476 l 1xf0
EndSplineSet
Refer: 62 180 N 1 0 0 1 56 59 2
Validated: 1
EndChar

StartChar: uni00B9
Encoding: 184 185 103
Width: 540
VWidth: 0
Flags: W
HStem: 639 20G<265.5 273.5>
VStem: 238 61<263 558>
LayerCount: 2
Back
Fore
SplineSet
199 519 m 1
 157 561 l 1
 248 651 l 2
 254 657 262 659 269 659 c 0
 278 659 286 656 290 651 c 1
 299 643 299 634 299 630 c 2
 299 263 l 1
 238 263 l 1
 238 558 l 1
 199 519 l 1
EndSplineSet
Validated: 1
EndChar

StartChar: uni00B2
Encoding: 177 178 104
Width: 540
VWidth: 0
InSpiro: 1
Flags: W
HStem: 263 61<223 396> 601 58<254 294>
VStem: 156 54<539 557> 336 56<517 559>
DStem2: 164 343 223 324 0.703008 0.711182<27.965 244.663>
LayerCount: 2
Back
Fore
SplineSet
396 324 m 1
 396 263 l 1
 156 263 l 1
 156 298 l 1
 156 324 l 2
 156 326 156 329 156 331 c 0
 156 333 159 336 160 338 c 0
 161 340 162 341 164 343 c 2
 336 517 l 1
 336 559 l 1
 294 601 l 1
 254 601 l 1
 210 557 l 1
 210 539 l 1
 156 539 l 1
 156 568 l 2
 156 569 156 570 156 571 c 0
 156 572 156 573 156 574 c 0
 157 576 158 579 159 581 c 0
 159 582 160 583 161 584 c 0
 161 585 162 586 163 587 c 2
 222 648 l 2
 224 650 226 652 228 653 c 0
 230 654 232 655 234 656 c 0
 237 657 239 659 242 659 c 2
 305 659 l 2
 306 659 307 659 308 659 c 0
 309 659 310 656 311 656 c 0
 313 655 316 654 318 653 c 0
 320 652 322 650 324 648 c 2
 383 589 l 2
 384 588 385 587 386 587 c 0
 386 586 387 585 388 584 c 0
 389 583 389 582 390 581 c 0
 390 579 391 578 391 577 c 0
 391 576 392 575 392 574 c 0
 392 572 392 571 392 570 c 2
 392 506 l 2
 392 504 392 502 391 500 c 0
 390 498 389 495 388 493 c 0
 388 492 387 491 386 490 c 0
 386 489 385 488 384 487 c 2
 223 324 l 1
 396 324 l 1
  Spiro
    396 324 v
    396 263 v
    157 263 v
    157 298 v
    157 324 v
    158 331 o
    160 338 o
    164 343 [
    336 517 v
    336 559 v
    294 601 v
    254 601 v
    210 557 v
    210 539 v
    156 539 v
    156 568 ]
    157 574 o
    159 581 o
    163 587 [
    222 648 ]
    228 653 o
    234 656 o
    242 657 [
    305 657 ]
    311 656 o
    318 653 o
    324 648 [
    383 589 ]
    388 584 o
    391 577 o
    392 570 [
    392 506 ]
    391 500 o
    388 493 o
    384 487 [
    223 324 v
    0 0 z
  EndSpiro
EndSplineSet
Validated: 1
EndChar

StartChar: uni00B3
Encoding: 178 179 105
Width: 540
VWidth: 0
Flags: W
HStem: 265 59<219 287> 598 61<146 318>
VStem: 329 60<366 403>
LayerCount: 2
Back
Fore
SplineSet
146 598 m 1
 146 659 l 1
 361 659 l 2
 381 659 390 642 390 631 c 0
 390 630 390 630 390 629 c 0
 390 628 391 629 390 628 c 2
 390 598 l 2
 390 589 384 582 381 578 c 2
 309 504 l 1
 315 502 319 499 320 498 c 2
 381 437 l 2
 388 430 390 420 389 415 c 2
 389 354 l 2
 389 344 383 336 380 333 c 2
 321 273 l 2
 314 265 304 264 299 265 c 2
 207 265 l 2
 198 265 191 269 187 273 c 2
 156 301 l 1
 196 345 l 1
 219 324 l 1
 287 324 l 1
 329 366 l 1
 329 403 l 1
 286 446 l 1
 240 446 l 2
 239 446 227 445 218 453 c 0
 213 458 209 466 209 476 c 0
 209 482 211 489 217 496 c 2
 318 598 l 1
 146 598 l 1
EndSplineSet
Validated: 1
EndChar

StartChar: ordfeminine
Encoding: 169 170 106
Width: 540
VWidth: 0
Flags: W
HStem: 49 60<54 481> 171 58<158 360 420 481> 356 58<159 360> 537 60<116 319>
VStem: 58 59<275 312> 360 60<231 356 414 495>
LayerCount: 2
Back
Fore
SplineSet
360 231 m 1
 360 356 l 1
 159 356 l 1
 117 312 l 1
 117 275 l 1
 158 232 l 1
 360 231 l 1
420 229 m 1
 481 229 l 1
 481 171 l 1
 146 171 l 2
 136 171 128 180 125 183 c 2
 66 243 l 2
 59 250 58 260 58 264 c 2
 58 324 l 2
 58 334 63 341 66 344 c 2
 126 406 l 2
 133 413 142 414 147 414 c 2
 360 414 l 1
 360 495 l 1
 319 537 l 1
 116 537 l 1
 116 597 l 1
 332 597 l 2
 342 597 349 590 352 587 c 2
 412 527 l 2
 419 520 420 512 420 507 c 2
 420 229 l 1
54 109 m 1
 481 109 l 1
 481 49 l 1
 54 49 l 1
 54 109 l 1
EndSplineSet
Validated: 1
EndChar

StartChar: guillemotleft
Encoding: 170 171 108
Width: 540
VWidth: 0
Flags: W
DStem2: 36 346 99 325 0.700436 0.713715<29.1395 301.241> 99 325 36 304 0.703764 -0.710434<0 270.399> 219 345 282 324 0.700436 0.713715<29.1395 301.241> 282 324 219 303 0.703764 -0.710434<0 270.399>
LayerCount: 2
Back
Fore
SplineSet
247 561 m 1
 290 519 l 1
 99 325 l 1
 290 133 l 1
 247 91 l 1
 36 304 l 2
 31 309 27 317 27 326 c 0
 27 332 30 340 36 346 c 2
 247 561 l 1
430 560 m 1
 473 518 l 1
 282 324 l 1
 473 132 l 1
 430 90 l 1
 219 303 l 2
 214 308 211 316 211 324 c 0
 211 331 213 338 219 345 c 2
 430 560 l 1
EndSplineSet
Validated: 1
EndChar

StartChar: guillemotright
Encoding: 186 187 109
Width: 540
VWidth: 0
Flags: W
DStem2: 102 560 60 518 0.702121 -0.712057<0.417297 271.959> 60 132 102 90 0.705441 0.708769<0 270.117> 286 561 243 519 0.700436 -0.713715<0 271.401> 243 133 286 91 0.703764 0.710434<0.423594 270.118>
LayerCount: 2
Back
Fore
SplineSet
286 561 m 1
 497 346 l 2
 503 339 505 332 505 325 c 0
 505 317 502 309 497 304 c 2
 286 91 l 1
 243 133 l 1
 433 325 l 1
 243 519 l 1
 286 561 l 1
102 560 m 1
 314 345 l 2
 320 339 322 332 322 325 c 0
 322 316 318 308 314 303 c 2
 102 90 l 1
 60 132 l 1
 250 324 l 1
 60 518 l 1
 102 560 l 1
EndSplineSet
Validated: 1
EndChar

StartChar: exclamdown
Encoding: 160 161 110
Width: 540
VWidth: 0
Flags: W
HStem: 49 21G<237 298> 456 20G<237 298> 598 61<237 298>
VStem: 237 61<49 476 598 659>
LayerCount: 2
Back
Fore
SplineSet
237 659 m 1
 298 659 l 1
 298 598 l 1
 237 598 l 1
 237 659 l 1
237 476 m 1
 298 476 l 1
 298 49 l 1
 237 49 l 1
 237 476 l 1
EndSplineSet
Validated: 1
EndChar

StartChar: questiondown
Encoding: 190 191 111
Width: 540
VWidth: 0
Flags: W
HStem: 50 62<214 387> 601 61<297 362>
VStem: 115 64<145 196> 297 61<390 480 601 662> 419 61<144 236>
DStem2: 127 233 179 196 0.734638 0.67846<13.0982 231.407>
LayerCount: 2
Back
Fore
SplineSet
362 601 m 1
 297 601 l 1
 297 662 l 1
 362 662 l 1
 362 601 l 1
480 132 m 2
 480 131 480 130 480 129 c 0
 480 128 479 127 479 126 c 0
 478 124 477 122 476 120 c 0
 475 118 474 116 472 114 c 2
 425 60 l 2
 423 58 422 56 419 54 c 0
 417 52 414 51 411 50 c 0
 408 49 405 50 402 50 c 2
 201 50 l 2
 198 50 197 49 194 50 c 0
 192 51 189 52 187 53 c 0
 185 54 182 56 180 58 c 2
 125 109 l 2
 123 111 120 113 119 116 c 0
 118 118 116 121 115 124 c 0
 114 127 115 130 115 133 c 2
 115 211 l 2
 115 214 117 216 118 219 c 0
 119 222 121 225 122 227 c 0
 123 229 125 231 127 233 c 2
 297 390 l 1
 297 480 l 1
 358 480 l 1
 358 375 l 2
 358 374 358 372 358 371 c 0
 358 370 357 368 357 367 c 0
 356 365 355 362 354 360 c 0
 353 358 350 355 348 353 c 2
 179 196 l 1
 179 145 l 1
 214 112 l 1
 387 112 l 1
 419 144 l 1
 419 236 l 1
 480 236 l 1
 480 132 l 2
EndSplineSet
Validated: 1
EndChar

StartChar: a
Encoding: 96 97 128
Width: 540
VWidth: 0
Flags: W
HStem: 50 58<158 360 420 481> 234 58<159 360> 417 59<115 319>
VStem: 57 59<153 190> 360 60<109 234 292 375>
LayerCount: 2
Back
Fore
SplineSet
360 109 m 1
 360 234 l 1
 159 234 l 1
 116 190 l 1
 116 153 l 1
 158 108 l 1
 360 109 l 1
420 108 m 1
 481 108 l 1
 481 50 l 1
 145 50 l 2
 135 50 127 56 124 59 c 2
 66 121 l 2
 59 128 57 138 57 142 c 2
 57 202 l 2
 57 212 63 220 66 223 c 2
 125 284 l 2
 132 291 141 292 146 292 c 2
 360 292 l 1
 360 375 l 1
 319 417 l 1
 115 417 l 1
 115 476 l 1
 331 476 l 2
 341 476 349 470 352 467 c 2
 411 407 l 2
 418 400 420 392 420 387 c 2
 420 108 l 1
EndSplineSet
Validated: 1
EndChar

StartChar: b
Encoding: 97 98 129
Width: 540
VWidth: 0
Flags: W
HStem: 52 57<117 257> 416 59<117 261> 639 20G<57 117>
VStem: 57 60<109 416 475 659> 363 59<213 312>
LayerCount: 2
Back
Fore
SplineSet
57 52 m 1
 57 659 l 1
 117 659 l 1
 117 475 l 1
 273 475 l 2
 283 475 291 469 294 466 c 2
 413 345 l 2
 420 338 422 329 422 324 c 2
 422 201 l 2
 422 191 416 183 413 180 c 2
 290 59 l 2
 283 52 273 52 269 52 c 2
 57 52 l 1
117 109 m 1
 257 109 l 1
 363 213 l 1
 363 312 l 1
 261 416 l 1
 117 416 l 1
 117 109 l 1
EndSplineSet
Validated: 1
EndChar

StartChar: c
Encoding: 98 99 130
Width: 540
VWidth: 0
Flags: W
HStem: 51 58<222 422> 416 59<219 422>
VStem: 57 59<213 312>
LayerCount: 2
Back
Fore
SplineSet
422 475 m 1
 422 416 l 1
 219 416 l 1
 116 312 l 1
 116 213 l 1
 222 109 l 1
 422 109 l 1
 422 51 l 1
 210 51 l 2
 206 51 196 52 189 59 c 2
 66 180 l 2
 63 183 57 191 57 201 c 2
 57 324 l 2
 57 329 59 338 66 345 c 2
 186 466 l 2
 189 469 196 475 206 475 c 2
 422 475 l 1
EndSplineSet
Validated: 1
EndChar

StartChar: d
Encoding: 99 100 131
Width: 540
VWidth: 0
Flags: W
HStem: 51 58<222 362> 416 59<219 362> 639 20G<362 422>
VStem: 57 59<213 312> 362 60<109 416 475 659>
LayerCount: 2
Back
Fore
SplineSet
422 51 m 1
 210 51 l 2
 206 51 196 52 189 59 c 2
 66 180 l 2
 63 183 57 191 57 201 c 2
 57 324 l 2
 57 329 59 338 66 345 c 2
 186 466 l 2
 189 469 196 475 206 475 c 2
 362 475 l 1
 362 659 l 1
 422 659 l 1
 422 51 l 1
362 109 m 1
 362 416 l 1
 219 416 l 1
 116 312 l 1
 116 213 l 1
 222 109 l 1
 362 109 l 1
EndSplineSet
Validated: 1
EndChar

StartChar: e
Encoding: 100 101 132
Width: 540
VWidth: 0
Flags: W
HStem: 51 56<159 422> 231 62<117 362> 415 61<161 319>
VStem: 57 59<152 231 293 370> 362 58<293 371>
LayerCount: 2
Back
Fore
SplineSet
116 231 m 1
 116 152 l 1
 159 107 l 1
 422 107 l 1
 422 51 l 1
 147 51 l 2
 138 51 130 56 127 59 c 2
 65 119 l 2
 58 126 57 135 57 140 c 2
 57 382 l 2
 57 392 64 399 67 402 c 2
 128 465 l 2
 135 472 145 476 150 476 c 2
 331 476 l 2
 341 476 349 468 352 465 c 2
 411 403 l 2
 418 396 420 388 420 383 c 2
 420 231 l 1
 116 231 l 1
117 293 m 1
 362 293 l 1
 362 371 l 1
 319 415 l 1
 161 415 l 1
 117 370 l 1
 117 293 l 1
EndSplineSet
Validated: 1
EndChar

StartChar: f
Encoding: 101 102 133
Width: 540
VWidth: 0
Flags: W
HStem: 49 21G<181 240> 415 61<57 181 241 362> 599 60<281 422>
VStem: 181 59<49 415 476 558>
LayerCount: 2
Back
Fore
SplineSet
281 599 m 1
 241 558 l 1
 241 476 l 1
 362 476 l 1
 362 415 l 1
 240 415 l 1
 240 49 l 1
 181 49 l 1
 181 415 l 1
 57 415 l 1
 57 476 l 1
 181 476 l 1
 181 570 l 2
 181 578 183 585 189 591 c 2
 246 650 l 2
 252 656 259 659 268 659 c 2
 422 659 l 1
 422 599 l 1
 281 599 l 1
EndSplineSet
Validated: 1
EndChar

StartChar: g
Encoding: 102 103 134
Width: 540
VWidth: 0
Flags: W
HStem: -70 60<215 352> 112 60<217 288> 418 60<220 347>
VStem: 57 60<272 315> 390 60<28 190 274 375>
LayerCount: 2
Back
Fore
SplineSet
390 190 m 1
 321 121 l 0
 317 116 308 112 300 112 c 0
 205 112 l 0
 198 112 190 115 184 121 c 0
 66 239 l 0
 61 243 57 252 57 260 c 0
 57 327 l 0
 57 334 60 342 66 348 c 0
 187 470 l 0
 191 475 200 478 208 478 c 0
 359 478 l 0
 366 478 374 476 380 470 c 0
 441 408 l 0
 446 404 450 395 450 387 c 0
 450 16 l 0
 450 9 447 1 441 -5 c 0
 385 -61 l 0
 381 -66 372 -70 364 -70 c 0
 203 -70 l 0
 196 -70 188 -67 182 -61 c 0
 124 -3 l 1
 166 39 l 1
 215 -10 l 1
 352 -10 l 1
 390 28 l 1
 390 190 l 1
390 274 m 1
 390 375 l 1
 347 418 l 1
 220 418 l 1
 117 315 l 1
 117 272 l 1
 217 172 l 1
 288 172 l 1
 390 274 l 1
EndSplineSet
Validated: 1
EndChar

StartChar: h
Encoding: 103 104 135
Width: 540
VWidth: 0
Flags: W
HStem: 48 21G<57 117 362 422> 416 59<222 317>
VStem: 57 60<48 315 398 666> 362 60<48 372>
LayerCount: 2
Back
Fore
SplineSet
57 48 m 1
 57 666 l 1
 117 666 l 1
 117 398 l 1
 189 470 l 2
 195 475 202 475 210 475 c 2
 329 475 l 2
 337 475 344 472 350 467 c 2
 413 407 l 2
 419 401 422 394 422 385 c 2
 422 48 l 1
 362 48 l 1
 362 372 l 1
 317 416 l 1
 222 416 l 1
 117 315 l 1
 117 48 l 1
 57 48 l 1
EndSplineSet
Validated: 1
EndChar

StartChar: i
Encoding: 104 105 136
Width: 540
VWidth: 0
Flags: W
HStem: 49 21G<237 298> 456 20G<237 298> 598 61<237 298>
VStem: 237 61<49 476 598 659>
LayerCount: 2
Back
Fore
SplineSet
237 659 m 1
 298 659 l 1
 298 598 l 1
 237 598 l 1
 237 659 l 1
237 476 m 1
 298 476 l 1
 298 49 l 1
 237 49 l 1
 237 476 l 1
EndSplineSet
Validated: 1
EndChar

StartChar: j
Encoding: 105 106 137
Width: 540
VWidth: 0
Flags: W
HStem: -73 59<219 318> 456 20G<360 421> 598 61<360 422>
VStem: 360 61<29 476 598 659>
LayerCount: 2
Back
Fore
SplineSet
421 17 m 2
 421 9 417 2 411 -4 c 2
 351 -65 l 2
 345 -71 339 -73 330 -73 c 2
 206 -73 l 2
 198 -73 191 -70 185 -64 c 2
 125 -3 l 1
 167 39 l 1
 219 -14 l 1
 318 -14 l 1
 360 29 l 1
 360 476 l 1
 421 476 l 1
 421 17 l 2
360 659 m 1
 422 659 l 1
 422 598 l 1
 360 598 l 1
 360 659 l 1
EndSplineSet
Validated: 1
EndChar

StartChar: k
Encoding: 106 107 138
Width: 540
VWidth: 0
Flags: W
HStem: 49 21G<57 119 356.761 396.476> 233 60<119 199> 456 20G<360.328 400> 639 20G<57 119>
VStem: 57 62<49 233 293 659>
LayerCount: 2
Back
Fore
SplineSet
253 262 m 1
 419 91 l 1
 376 49 l 1
 199 233 l 1
 119 233 l 1
 119 49 l 1
 57 49 l 1
 57 659 l 1
 119 659 l 1
 119 293 l 1
 200 293 l 1
 380 476 l 1
 422 434 l 1
 253 262 l 1
EndSplineSet
Validated: 1
EndChar

StartChar: l
Encoding: 107 108 139
Width: 540
VWidth: 0
Flags: W
HStem: 49 60<310 359> 639 20G<237 297>
VStem: 237 60<123 659>
LayerCount: 2
Back
Fore
SplineSet
297 123 m 1
 310 109 l 1
 359 109 l 1
 359 49 l 1
 298 49 l 2
 290 49 283 52 277 58 c 2
 246 89 l 2
 240 95 237 102 237 110 c 2
 237 659 l 1
 297 659 l 1
 297 123 l 1
EndSplineSet
Validated: 1
EndChar

StartChar: m
Encoding: 108 109 140
Width: 540
VWidth: 0
Flags: W
HStem: 49 21G<57 117 238 299 420 480> 415 60<161 197 340 379>
VStem: 57 60<49 372 458 475> 238 61<49 373> 420 60<49 374>
CounterMasks: 1 38
LayerCount: 2
Back
Fore
SplineSet
299 373 m 1
 299 49 l 1
 238 49 l 1
 238 373 l 1
 197 415 l 1
 161 415 l 1
 117 372 l 1
 117 49 l 1
 57 49 l 1
 57 475 l 1
 118 475 l 1
 118 458 l 1
 127 467 l 2
 133 473 140 476 148 476 c 2
 210 476 l 2
 219 476 226 473 232 467 c 2
 268 428 l 1
 306 466 l 2
 312 472 319 475 327 475 c 2
 391 475 l 2
 399 475 406 472 412 466 c 2
 471 407 l 2
 477 401 480 394 480 386 c 2
 480 49 l 1
 420 49 l 1
 420 374 l 1
 379 415 l 1
 340 415 l 1
 299 373 l 1
EndSplineSet
Validated: 1
EndChar

StartChar: n
Encoding: 109 110 141
Width: 540
VWidth: 0
Flags: W
HStem: 50 22G<120 180 365 422> 417 58<57 106 222 322>
VStem: 120 60<50 373> 365 57<51 376>
LayerCount: 2
Back
Fore
SplineSet
165 442 m 1
 189 466 l 2
 192 469 200 475 210 475 c 2
 334 475 l 2
 339 475 347 474 354 467 c 2
 413 409 l 2
 416 406 422 398 422 388 c 2
 422 51 l 1
 365 51 l 1
 365 376 l 1
 322 417 l 1
 222 417 l 1
 180 373 l 1
 180 50 l 1
 120 50 l 1
 120 385 l 2
 120 388 122 392 124 397 c 1
 106 417 l 1
 57 417 l 1
 57 476 l 1
 120 476 l 2
 130 476 136 471 139 467 c 2
 165 442 l 1
EndSplineSet
Validated: 1
EndChar

StartChar: o
Encoding: 110 111 142
Width: 540
VWidth: 0
Flags: W
HStem: 53 57<160 322> 418 59<160 323>
VStem: 57 60<152 374> 362 60<152 374>
LayerCount: 2
Back
Fore
SplineSet
117 374 m 1
 117 152 l 1
 160 110 l 1
 322 110 l 1
 362 152 l 1
 362 374 l 1
 323 418 l 1
 160 418 l 1
 117 374 l 1
67 407 m 2
 128 470 l 2
 135 477 144 477 148 477 c 2
 336 477 l 2
 346 477 354 471 358 467 c 2
 414 404 l 2
 420 398 422 390 422 385 c 2
 422 140 l 2
 422 130 416 122 413 119 c 2
 355 60 l 2
 348 52 339 53 334 53 c 2
 148 53 l 2
 139 53 132 57 128 60 c 2
 66 118 l 2
 58 125 57 134 57 140 c 2
 57 387 l 2
 57 397 64 404 67 407 c 2
EndSplineSet
Validated: 1
EndChar

StartChar: p
Encoding: 111 112 143
Width: 540
VWidth: 0
Flags: W
HStem: 50 59<117 260> 424 54<117 257>
VStem: 57 60<-134 50 109 424> 363 59<213 323>
LayerCount: 2
Back
Fore
SplineSet
57 478 m 1
 277 478 l 1
 283 478 286 478 290 474 c 1
 413 356 l 2
 416 353 422 345 422 335 c 2
 422 201 l 2
 422 196 420 187 413 180 c 2
 293 59 l 2
 290 56 283 50 273 50 c 2
 117 50 l 1
 117 -134 l 1
 57 -134 l 1
 57 478 l 1
117 424 m 1
 117 109 l 1
 260 109 l 1
 363 213 l 1
 363 323 l 1
 257 424 l 1
 117 424 l 1
EndSplineSet
Validated: 1
EndChar

StartChar: q
Encoding: 112 113 144
Width: 540
VWidth: 0
Flags: W
HStem: -127 62<420 481> 54 59<219 359> 416 58<222 359>
VStem: 57 59<217 312> 359 122<-127 -65> 359 61<-65 54 113 416>
LayerCount: 2
Back
Fore
SplineSet
420 473 m 1xf4
 420 -65 l 1xf4
 481 -65 l 1
 481 -127 l 1
 359 -127 l 1xf8
 360 54 l 1
 206 54 l 2
 196 54 189 60 186 63 c 2
 66 184 l 2
 59 191 57 200 57 205 c 2
 57 324 l 2
 57 334 63 342 66 345 c 2
 189 466 l 2
 196 473 206 474 210 474 c 2
 420 473 l 1xf4
359 416 m 1
 222 416 l 1
 116 312 l 1
 116 217 l 1
 219 113 l 1
 359 113 l 1
 359 416 l 1
EndSplineSet
Validated: 1
EndChar

StartChar: r
Encoding: 113 114 145
Width: 540
VWidth: 0
Flags: W
HStem: 49 21G<106.94 166> 415 61<57 97.6726 269 317>
VStem: 107 59<50 313> 362 60<354 372>
LayerCount: 2
Back
Fore
SplineSet
166 313 m 1
 166 50 l 1
 107 49 l 1
 106 384 l 2
 106 393 104 399 98 406 c 1
 91 412 85 415 75 415 c 2
 57 415 l 1
 57 476 l 1
 106 476 l 2
 123 476 166 447 166 415 c 1
 166 396 l 1
 235 466 l 2
 241 472 248 476 256 476 c 2
 329 476 l 2
 338 476 345 473 350 467 c 2
 413 406 l 2
 419 400 422 393 422 384 c 2
 422 354 l 1
 362 354 l 1
 362 372 l 1
 317 415 l 1
 269 415 l 1
 166 313 l 1
EndSplineSet
Validated: 1
EndChar

StartChar: s
Encoding: 114 115 146
Width: 540
VWidth: 0
Flags: W
HStem: 49 60<161 317> 416 60<161 315>
VStem: 359 60<353 372>
LayerCount: 2
Back
Fore
SplineSet
359 372 m 1
 315 416 l 1
 161 416 l 1
 132 386 l 1
 411 165 l 2
 418 159 422 152 422 143 c 0
 422 134 419 126 413 120 c 2
 350 58 l 2
 344 52 337 49 329 49 c 2
 149 49 l 2
 141 49 134 52 128 58 c 2
 66 118 l 2
 60 124 57 131 57 140 c 2
 57 168 l 1
 117 168 l 1
 117 153 l 1
 161 109 l 1
 317 109 l 1
 347 139 l 1
 69 359 l 2
 62 364 59 372 58 381 c 0
 57 390 60 398 66 404 c 2
 126 467 l 2
 132 473 139 476 148 476 c 2
 327 476 l 2
 335 476 342 473 348 467 c 2
 410 406 l 2
 416 400 419 393 419 385 c 2
 419 353 l 1
 359 353 l 1
 359 372 l 1
EndSplineSet
Validated: 1
EndChar

StartChar: t
Encoding: 115 116 147
Width: 540
VWidth: 0
Flags: W
HStem: 49 60<310 359> 415 61<114 237 297 420> 639 20G<237 297>
VStem: 237 60<123 415 476 659>
LayerCount: 2
Back
Fore
SplineSet
297 123 m 1
 310 109 l 1
 359 109 l 1
 359 49 l 1
 298 49 l 2
 290 49 283 52 277 58 c 2
 246 89 l 2
 240 95 237 102 237 110 c 2
 237 415 l 1
 114 415 l 1
 114 476 l 1
 237 476 l 1
 237 659 l 1
 297 659 l 1
 297 476 l 1
 420 476 l 1
 420 415 l 1
 297 415 l 1
 297 123 l 1
EndSplineSet
Validated: 1
EndChar

StartChar: u
Encoding: 116 117 148
Width: 540
VWidth: 0
Flags: W
HStem: 51 58<158 316 432 481> 456 20G<58 117 358 418>
VStem: 58 59<150 476> 358 60<153 476>
LayerCount: 2
Back
Fore
SplineSet
373 84 m 1
 349 60 l 2
 346 57 338 51 328 51 c 2
 146 51 l 2
 141 51 133 52 126 59 c 2
 67 117 l 2
 64 120 58 128 58 138 c 2
 58 476 l 1
 117 476 l 1
 117 150 l 1
 158 109 l 1
 316 109 l 1
 358 153 l 1
 358 476 l 1
 418 476 l 1
 418 141 l 2
 418 138 416 134 414 129 c 1
 432 109 l 1
 481 109 l 1
 481 51 l 1
 420 51 l 2
 410 51 402 55 399 59 c 2
 373 84 l 1
EndSplineSet
Validated: 1
EndChar

StartChar: v
Encoding: 117 118 149
Width: 540
VWidth: 0
Flags: W
HStem: 48 21G<262.5 273.5> 455 20G<57 117 421 481>
VStem: 57 60<391 475> 421 60<394 475>
LayerCount: 2
Back
Fore
SplineSet
117 391 m 1
 268 137 l 1
 421 394 l 1
 421 475 l 1
 481 475 l 1
 481 386 l 2
 481 380 480 376 477 371 c 2
 294 63 l 2
 288 53 279 48 268 48 c 0
 257 48 248 53 242 63 c 2
 61 368 l 2
 58 373 57 377 57 383 c 2
 57 475 l 1
 117 475 l 1
 117 391 l 1
EndSplineSet
Validated: 1
EndChar

StartChar: w
Encoding: 118 119 150
Width: 540
VWidth: 0
Flags: W
HStem: 50 21G<383.5 390.5> 456 20G<57 117 421 481>
VStem: 57 60<151 476> 239 61<211 293> 421 60<154 476>
LayerCount: 2
Back
Fore
SplineSet
300 211 m 1
 387 122 l 1
 421 154 l 1
 421 476 l 1
 481 476 l 1
 481 141 l 2
 481 132 478 125 472 119 c 2
 408 58 l 2
 402 53 394 50 387 50 c 0
 380 50 372 53 366 59 c 2
 269 158 l 1
 169 56 l 2
 163 50 156 46 148 46 c 0
 140 46 133 50 127 56 c 2
 66 118 l 2
 60 124 57 131 57 139 c 2
 57 476 l 1
 117 476 l 1
 117 151 l 1
 148 120 l 1
 239 211 l 1
 239 293 l 1
 300 293 l 1
 300 211 l 1
EndSplineSet
Validated: 1
EndChar

StartChar: x
Encoding: 119 120 151
Width: 540
VWidth: 0
Flags: W
HStem: 48 21G<54 114 422 482> 456 20G<54 114 422 482>
VStem: 54 60<48 67 456 476> 422 60<48 67 456 476>
LayerCount: 2
Back
Fore
SplineSet
268 220 m 1
 114 67 l 1
 114 48 l 1
 54 48 l 1
 54 80 l 2
 54 88 56 95 62 101 c 2
 225 262 l 1
 62 424 l 2
 56 430 54 438 54 446 c 2
 54 476 l 1
 114 476 l 1
 114 456 l 1
 268 305 l 1
 422 456 l 1
 422 476 l 1
 482 476 l 1
 482 446 l 2
 482 438 479 430 473 424 c 2
 310 263 l 1
 473 101 l 2
 479 95 482 88 482 80 c 2
 482 48 l 1
 422 48 l 1
 422 67 l 1
 268 220 l 1
EndSplineSet
Validated: 1
EndChar

StartChar: y
Encoding: 120 121 152
Width: 540
VWidth: 0
Flags: W
HStem: 456 20G<57 117 361 421>
VStem: 57 60<274 476> 361 60<212 476>
LayerCount: 2
Back
Fore
SplineSet
227 78 m 1
 66 241 l 2
 60 247 57 254 57 262 c 2
 57 476 l 1
 117 476 l 1
 117 274 l 1
 270 121 l 1
 361 212 l 1
 361 476 l 1
 421 476 l 1
 421 200 l 2
 421 192 418 185 412 179 c 2
 105 -128 l 1
 63 -86 l 1
 227 78 l 1
EndSplineSet
Validated: 1
EndChar

StartChar: z
Encoding: 121 122 153
Width: 540
VWidth: 0
Flags: W
HStem: 49 60<180 481> 415 61<57 359>
LayerCount: 2
Back
Fore
SplineSet
57 476 m 1
 481 476 l 1
 180 109 l 1
 481 109 l 1
 481 49 l 1
 57 49 l 1
 359 415 l 1
 57 415 l 1
 57 476 l 1
EndSplineSet
Validated: 1
EndChar

StartChar: ae
Encoding: 229 230 154
Width: 540
VWidth: 0
Flags: W
HStem: 49 60<158 195 341 480> 231 63<298 423> 294 60<220 238> 415 60<54 194 340 379>
VStem: 54 60<151 190> 238 60<153 231 354 372> 423 60<294 373>
DStem2: 63 224 114 190 0.708557 0.705653<12.1442 160.639 288.499 331.05>
LayerCount: 2
Back
Fore
SplineSet
238 294 m 1xbe
 220 294 l 1
 114 190 l 1
 114 151 l 1
 158 109 l 1
 195 109 l 1
 238 153 l 1
 238 294 l 1xbe
238 354 m 1
 238 372 l 1
 194 415 l 1
 54 415 l 1
 54 475 l 1
 206 475 l 2
 216 475 224 470 227 467 c 2
 267 428 l 1
 307 467 l 2
 310 470 318 475 328 475 c 2
 392 475 l 2
 396 475 406 474 413 467 c 2
 474 407 l 2
 478 403 483 395 483 385 c 2
 483 231 l 1
 298 231 l 1xde
 298 152 l 1
 341 109 l 1
 480 109 l 1
 480 49 l 1
 328 49 l 2
 323 49 314 51 307 58 c 2
 268 98 l 1
 229 58 l 2
 222 50 213 49 208 49 c 2
 146 49 l 2
 136 49 128 54 125 57 c 2
 63 117 l 2
 56 124 54 134 54 139 c 2
 54 203 l 2
 54 213 60 221 63 224 c 2
 187 345 l 2
 194 352 203 354 208 354 c 2
 238 354 l 1
298 294 m 1
 423 294 l 1
 423 373 l 1
 379 415 l 1
 340 415 l 1
 298 375 l 1
 298 294 l 1
EndSplineSet
Validated: 1
EndChar

StartChar: oslash
Encoding: 247 248 155
Width: 540
VWidth: 0
Flags: W
HStem: 52 58<217 318> 416 61<219 318>
VStem: 115 60<210 373> 359 61<152 311>
DStem2: 63 99 105 57 0.705193 0.709015<0 57.822 157.682 359.048 463.86 521.682>
LayerCount: 2
Back
Fore
SplineSet
348 385 m 1
 318 416 l 1
 219 416 l 1
 175 373 l 1
 175 210 l 1
 348 385 l 1
359 311 m 1
 189 141 l 1
 217 110 l 1
 318 110 l 1
 359 152 l 1
 359 311 l 1
420 371 m 1
 420 140 l 2
 420 132 416 125 410 119 c 2
 351 59 l 2
 345 53 339 52 330 52 c 2
 205 52 l 2
 197 52 190 55 184 61 c 2
 146 98 l 1
 105 57 l 1
 63 99 l 1
 115 151 l 1
 115 385 l 2
 115 393 118 400 124 406 c 2
 185 467 l 2
 191 473 198 477 206 477 c 2
 331 477 l 2
 340 477 347 476 353 470 c 2
 391 427 l 1
 432 470 l 1
 474 426 l 1
 420 371 l 1
EndSplineSet
Validated: 1
EndChar

StartChar: uni0247
Encoding: 395 583 157
Width: 540
VWidth: 0
Flags: W
HStem: 51 56<191 421> 231 62<149 186 334 361> 409 61<193 318>
VStem: 89 60<192 231 293 364> 361 58<293 321>
DStem2: 62 105 107 61 0.699251 0.714876<-16.7937 34.6656 122.33 176.782 324.593 363.489 453.267 541.581>
LayerCount: 2
Back
Fore
SplineSet
421 470 m 2
 423 472 425 475 427 476 c 0
 429 477 432 478 435 479 c 0
 440 480 446 480 451 479 c 0
 456 478 461 474 465 470 c 0
 469 466 472 462 473 457 c 0
 474 452 474 447 473 442 c 0
 472 439 471 437 470 434 c 0
 469 431 467 429 465 427 c 2
 419 380 l 2
 419 379 419 378 419 377 c 2
 419 231 l 1
 273 231 l 1
 172 127 l 1
 191 107 l 1
 421 107 l 1
 421 51 l 1
 179 51 l 2
 170 51 162 56 159 59 c 2
 131 86 l 1
 107 61 l 2
 105 59 103 57 101 56 c 0
 99 55 96 52 93 51 c 0
 88 50 82 50 77 51 c 0
 72 52 67 57 63 61 c 0
 59 65 57 70 55 75 c 0
 53 80 53 86 54 91 c 0
 55 94 56 97 57 99 c 0
 58 101 60 103 62 105 c 2
 89 133 l 1
 88 136 89 138 89 140 c 2
 89 376 l 2
 89 386 96 393 99 396 c 2
 160 459 l 2
 167 466 177 470 182 470 c 0
 243 470 269 470 330 470 c 0
 340 470 348 462 351 459 c 2
 380 428 l 1
 421 470 l 2
148 192 m 1
 186 231 l 1
 148 231 l 1
 148 192 l 1
247 293 m 1
 339 387 l 1
 318 409 l 1
 193 409 l 1
 149 364 l 1
 149 293 l 1
 247 293 l 1
334 293 m 1
 361 293 l 1
 361 321 l 1
 334 293 l 1
EndSplineSet
Validated: 1
EndChar

StartChar: fm
Encoding: 1609 -1 158
Width: 540
VWidth: 0
Flags: W
HStem: 354 122<237 359> 537 122<54 481>
VStem: 237 122<354 476>
LayerCount: 2
Back
Fore
SplineSet
54 659 m 1
 481 659 l 1
 481 537 l 1
 54 537 l 1
 54 659 l 1
237 476 m 1
 359 476 l 1
 359 354 l 1
 237 354 l 1
 237 476 l 1
237 231 m 1
 359 231 l 1
 336 79 264 10 115 -13 c 1
 237 231 l 1
EndSplineSet
Validated: 1
EndChar

StartChar: dup
Encoding: 1610 -1 159
Width: 540
VWidth: 0
Flags: W
HStem: 49 21G<237 298> 457 20G<237 298> 537 122<54 481>
VStem: 237 61<49 233 293 477>
DStem2: 61 161 103 119 0.699729 0.714409<0 144.971> 105 407 63 365 0.704604 -0.709601<0.209883 140.926> 375 265 290 265 0.699729 -0.714409<0 144.888> 290 265 375 265 0.704604 0.709601<59.8913 200.112>
LayerCount: 2
Back
Fore
SplineSet
237 233 m 1
 298 233 l 1
 298 49 l 1
 237 49 l 1
 237 233 l 1
237 477 m 1
 298 477 l 1
 298 293 l 1
 237 293 l 1
 237 477 l 1
431 407 m 1
 474 365 l 1
 375 265 l 1
 476 161 l 1
 433 119 l 1
 290 265 l 1
 431 407 l 1
105 407 m 1
 246 265 l 1
 103 119 l 1
 61 161 l 1
 162 265 l 1
 63 365 l 1
 105 407 l 1
54 659 m 1
 481 659 l 1
 481 537 l 1
 54 537 l 1
 54 659 l 1
EndSplineSet
Validated: 1
EndChar

StartChar: A
Encoding: 64 65 160
Width: 540
VWidth: 0
Flags: W
HStem: 49 21G<60 119 416 476> 244 56<120 416> 577 20G<263 271>
VStem: 60 59<49 244 300 374> 416 60<49 244 300 373>
LayerCount: 2
Back
Fore
SplineSet
119 244 m 1
 119 49 l 1
 60 49 l 1
 60 387 l 2
 60 396 66 404 69 407 c 2
 246 588 l 2
 252 595 260 597 266 597 c 0
 276 597 284 593 289 588 c 2
 468 406 l 2
 475 399 476 390 476 385 c 2
 476 49 l 1
 416 49 l 1
 416 244 l 1
 119 244 l 1
120 300 m 1
 416 300 l 1
 416 373 l 1
 267 523 l 1
 120 374 l 1
 120 300 l 1
EndSplineSet
Validated: 1
EndChar

StartChar: B
Encoding: 65 66 161
Width: 540
VWidth: 0
Flags: W
HStem: 49 60<60 119 179 311> 293 61<179 311> 538 59<60 119 179 313>
VStem: 119 60<109 293 354 538>
LayerCount: 2
Back
Fore
SplineSet
119 109 m 1
 119 538 l 1
 60 538 l 1
 60 597 l 1
 326 597 l 2
 336 597 344 592 348 589 c 2
 468 464 l 2
 474 458 476 451 476 444 c 0
 476 434 472 426 467 421 c 2
 366 324 l 1
 467 225 l 2
 473 219 476 211 476 205 c 0
 476 196 472 188 467 183 c 2
 345 58 l 2
 338 51 329 49 324 49 c 2
 60 49 l 1
 60 109 l 1
 119 109 l 1
312 293 m 1
 179 293 l 1
 179 109 l 1
 311 109 l 1
 404 203 l 1
 312 293 l 1
311 354 m 1
 404 444 l 1
 313 538 l 1
 179 538 l 1
 179 354 l 1
 311 354 l 1
EndSplineSet
Validated: 1
EndChar

StartChar: C
Encoding: 66 67 162
Width: 540
VWidth: 0
Flags: W
HStem: 49 60<285 380> 538 59<284 381>
VStem: 60 60<273 374>
LayerCount: 2
Back
Fore
SplineSet
476 529 m 1
 434 487 l 1
 381 538 l 1
 284 538 l 1
 120 374 l 1
 120 273 l 1
 285 109 l 1
 380 109 l 1
 432 164 l 1
 476 122 l 1
 415 58 l 2
 411 54 403 49 393 49 c 2
 273 49 l 2
 268 49 259 52 252 59 c 2
 69 239 l 2
 66 242 60 250 60 260 c 2
 60 386 l 2
 60 391 61 400 68 407 c 2
 251 589 l 2
 254 592 262 597 272 597 c 2
 393 597 l 2
 398 597 407 597 414 590 c 2
 476 529 l 1
EndSplineSet
Validated: 1
EndChar

StartChar: D
Encoding: 67 68 163
Width: 540
VWidth: 0
Flags: W
HStem: 49 61<60 119 179 313> 538 59<60 119 179 313>
VStem: 119 60<110 538> 416 60<213 433>
LayerCount: 2
Back
Fore
SplineSet
179 110 m 1
 313 110 l 1
 416 213 l 1
 416 433 l 1
 313 538 l 1
 179 538 l 1
 179 110 l 1
119 538 m 1
 60 538 l 1
 60 597 l 1
 326 597 l 2
 336 597 344 591 347 588 c 2
 467 466 l 2
 474 459 476 450 476 445 c 2
 476 201 l 2
 476 191 470 182 467 179 c 2
 346 59 l 2
 339 52 330 49 325 49 c 2
 60 49 l 1
 60 109 l 1
 119 109 l 1
 119 538 l 1
EndSplineSet
Validated: 1
EndChar

StartChar: E
Encoding: 68 69 164
Width: 540
VWidth: 0
Flags: W
HStem: 49 60<119 476> 295 61<119 357> 537 61<119 476>
VStem: 60 59<109 295 356 537>
LayerCount: 2
Back
Fore
SplineSet
60 598 m 1
 476 598 l 1
 476 537 l 1
 119 537 l 1
 119 356 l 1
 357 356 l 1
 357 295 l 1
 119 295 l 1
 119 109 l 1
 476 109 l 1
 476 49 l 1
 60 49 l 1
 60 598 l 1
EndSplineSet
Validated: 1
EndChar

StartChar: F
Encoding: 69 70 165
Width: 540
VWidth: 0
Flags: W
HStem: 49 21G<60 119> 300 56<119 417> 537 60<119 476>
VStem: 60 59<49 300 356 537>
LayerCount: 2
Back
Fore
SplineSet
60 597 m 1
 476 597 l 1
 476 537 l 1
 119 537 l 1
 119 356 l 1
 417 356 l 1
 417 302 l 1
 119 300 l 1
 119 49 l 1
 60 49 l 1
 60 597 l 1
EndSplineSet
Validated: 1
EndChar

StartChar: G
Encoding: 70 71 166
Width: 540
VWidth: 0
Flags: W
HStem: 51 60<222 358> 244 56<238 358 417 476> 538 59<222 317>
VStem: 60 60<212 435> 358 59<111 244>
LayerCount: 2
Back
Fore
SplineSet
238 300 m 1
 476 300 l 1
 476 244 l 1
 417 244 l 1
 417 50 l 1
 210 51 l 2
 205 51 196 52 189 59 c 2
 69 178 l 2
 66 181 60 189 60 199 c 2
 60 447 l 2
 60 452 61 463 68 470 c 2
 188 589 l 2
 191 593 199 597 209 597 c 2
 329 597 l 2
 334 597 344 596 351 589 c 2
 426 513 l 1
 383 471 l 1
 317 538 l 1
 222 538 l 1
 120 435 l 1
 120 212 l 1
 222 111 l 1
 358 111 l 1
 358 244 l 1
 238 244 l 1
 238 300 l 1
EndSplineSet
Validated: 1
EndChar

StartChar: H
Encoding: 71 72 167
Width: 540
VWidth: 0
Flags: W
HStem: 50 21G<60 119 417 476> 300 56<119 417> 577 20G<60 119 417 476>
VStem: 60 59<50 300 356 597> 417 59<50 300 356 597>
LayerCount: 2
Back
Fore
SplineSet
60 597 m 1
 119 597 l 1
 119 356 l 1
 417 356 l 1
 417 597 l 1
 476 597 l 1
 476 50 l 1
 417 50 l 1
 417 300 l 1
 119 300 l 1
 119 50 l 1
 60 50 l 1
 60 597 l 1
EndSplineSet
Validated: 1
EndChar

StartChar: I
Encoding: 72 73 168
Width: 540
VWidth: 0
Flags: W
HStem: 48 61<179 238 298 357> 537 60<179 238 298 357>
VStem: 179 178<48 109 537 597>
LayerCount: 2
Back
Fore
SplineSet
179 597 m 1
 357 597 l 1
 357 537 l 1
 298 537 l 1
 298 109 l 1
 357 109 l 1
 357 48 l 1
 179 48 l 1
 179 109 l 1
 238 109 l 1
 238 537 l 1
 179 537 l 1
 179 597 l 1
EndSplineSet
Validated: 1
EndChar

StartChar: J
Encoding: 73 74 169
Width: 540
VWidth: 0
Flags: W
HStem: 50 60<163 256> 537 60<238 298 357 417>
VStem: 60 59<151 232> 298 59<153 537>
LayerCount: 2
Back
Fore
SplineSet
60 232 m 1
 119 232 l 1
 119 151 l 1
 163 110 l 1
 256 110 l 1
 298 153 l 1
 298 537 l 1
 238 537 l 1
 238 597 l 1
 417 597 l 1
 417 537 l 1
 357 537 l 1
 357 141 l 2
 357 137 356 127 349 120 c 2
 290 59 l 2
 286 55 278 50 268 50 c 2
 150 50 l 2
 146 50 136 51 129 58 c 2
 69 116 l 2
 66 119 60 127 60 137 c 2
 60 232 l 1
EndSplineSet
Validated: 1
EndChar

StartChar: K
Encoding: 74 75 170
Width: 540
VWidth: 0
Flags: W
HStem: 49 21G<60 123 416 476> 577 20G<60 123 416 475>
VStem: 60 63<49 188 274 597> 416 60<49 68 578 597>
LayerCount: 2
Back
Fore
SplineSet
123 188 m 1
 123 49 l 1
 60 49 l 1
 60 597 l 1
 123 597 l 1
 123 274 l 1
 416 578 l 1
 416 597 l 1
 475 597 l 1
 475 566 l 2
 475 558 472 551 466 545 c 2
 251 323 l 1
 467 101 l 2
 473 95 476 88 476 80 c 2
 476 49 l 1
 416 49 l 1
 416 68 l 1
 209 281 l 1
 123 188 l 1
EndSplineSet
Validated: 1
EndChar

StartChar: L
Encoding: 75 76 171
Width: 540
VWidth: 0
Flags: W
HStem: 49 60<119 476> 577 20G<62.8905 119>
VStem: 60 59<109 597>
LayerCount: 2
Back
Fore
SplineSet
63 597 m 1
 119 597 l 1
 119 109 l 1
 476 109 l 1
 476 49 l 1
 60 49 l 1
 63 597 l 1
EndSplineSet
Validated: 1
EndChar

StartChar: M
Encoding: 76 77 172
Width: 540
VWidth: 0
Flags: W
HStem: 50 21G<60 120 416 476> 577 20G<88 93.5 442.5 457>
VStem: 60 60<50 494> 237 61<294 370> 416 60<50 496>
LayerCount: 2
Back
Fore
SplineSet
298 370 m 1
 298 294 l 1
 237 294 l 1
 237 370 l 1
 120 494 l 1
 120 50 l 1
 60 50 l 1
 60 566 l 2
 60 579 67 589 79 594 c 0
 83 596 86 597 90 597 c 0
 97 597 105 593 111 587 c 2
 266 426 l 1
 425 589 l 2
 431 595 439 597 446 597 c 0
 450 597 453 599 457 597 c 0
 469 592 476 581 476 568 c 2
 476 50 l 1
 416 50 l 1
 416 496 l 1
 298 370 l 1
EndSplineSet
Validated: 1
EndChar

StartChar: N
Encoding: 77 78 173
Width: 540
VWidth: 0
Flags: W
HStem: 50 21G<60 119 417 476> 577 20G<60 138.541 417 476>
VStem: 60 59<50 508> 417 59<50 200 292 597>
LayerCount: 2
Back
Fore
SplineSet
60 50 m 1
 60 597 l 1
 119 597 l 1
 417 292 l 1
 417 597 l 1
 476 597 l 1
 476 50 l 1
 417 50 l 1
 417 200 l 1
 119 508 l 1
 119 50 l 1
 60 50 l 1
EndSplineSet
Validated: 1
EndChar

StartChar: O
Encoding: 78 79 174
Width: 540
VWidth: 0
Flags: W
HStem: 50 60<161 373> 538 59<162 373>
VStem: 60 62<150 494> 416 60<153 493>
LayerCount: 2
Back
Fore
SplineSet
122 494 m 1
 122 150 l 1
 161 110 l 1
 373 110 l 1
 416 153 l 1
 416 493 l 1
 373 538 l 1
 162 538 l 1
 122 494 l 1
70 526 m 2
 127 588 l 2
 134 596 143 597 149 597 c 2
 386 597 l 2
 396 597 405 592 408 588 c 2
 468 526 l 2
 475 519 476 510 476 505 c 2
 476 140 l 2
 476 130 471 122 467 119 c 2
 406 59 l 2
 399 52 390 50 385 50 c 2
 149 50 l 2
 139 50 131 55 128 58 c 2
 69 115 l 2
 62 122 60 132 60 137 c 2
 60 506 l 2
 60 515 66 522 70 526 c 2
EndSplineSet
Validated: 1
EndChar

StartChar: P
Encoding: 79 80 175
Width: 540
VWidth: 0
Flags: W
HStem: 48 21G<60 119> 231 62<119 313> 537 60<119 314>
VStem: 60 59<48 231 293 537> 417 59<398 437>
LayerCount: 2
Back
Fore
SplineSet
119 293 m 1
 313 293 l 1
 417 398 l 1
 417 437 l 1
 314 537 l 1
 119 537 l 1
 119 293 l 1
119 231 m 1
 119 48 l 1
 60 48 l 1
 60 597 l 1
 326 597 l 2
 334 597 341 595 347 589 c 2
 467 470 l 2
 473 464 476 458 476 450 c 2
 476 386 l 2
 476 378 474 371 468 365 c 2
 347 242 l 2
 341 236 334 231 326 231 c 2
 119 231 l 1
EndSplineSet
Validated: 1
EndChar

StartChar: Q
Encoding: 80 81 176
Width: 540
VWidth: 0
Flags: W
HStem: 52 60<223 265> 538 59<223 315>
VStem: 60 60<214 436> 236 60<175 232> 416 60<213 434>
LayerCount: 2
Back
Fore
SplineSet
371 83 m 1
 472 -26 l 1
 428 -66 l 1
 320 52 l 1
 211 52 l 2
 203 52 196 55 190 61 c 2
 69 180 l 2
 63 186 60 193 60 201 c 2
 60 448 l 2
 60 456 63 464 69 470 c 2
 189 589 l 2
 195 595 202 597 210 597 c 2
 328 597 l 2
 336 597 343 595 349 589 c 2
 467 467 l 2
 473 461 476 454 476 446 c 2
 476 200 l 2
 476 191 473 185 467 179 c 2
 371 83 l 1
328 124 m 1
 416 213 l 1
 416 434 l 1
 315 538 l 1
 223 538 l 1
 120 436 l 1
 120 214 l 1
 223 112 l 1
 265 112 l 1
 240 152 l 2
 237 157 236 161 236 167 c 2
 236 232 l 1
 296 232 l 1
 296 175 l 1
 328 124 l 1
EndSplineSet
Validated: 1
EndChar

StartChar: R
Encoding: 81 82 177
Width: 540
VWidth: 0
Flags: W
HStem: 50 21G<60 119 417 476> 294 60<119 192 278 374> 537 60<119 373>
VStem: 60 59<50 294 354 537> 416 60<50 64 396 494>
LayerCount: 2
Back
Fore
SplineSet
278 294 m 1
 467 103 l 2
 473 97 476 90 476 82 c 2
 476 50 l 1
 417 50 l 1
 417 64 l 1
 192 294 l 1
 119 294 l 1
 119 50 l 1
 60 50 l 1
 60 597 l 1
 385 597 l 2
 393 597 400 594 406 588 c 2
 467 528 l 2
 473 522 476 515 476 507 c 2
 476 384 l 2
 476 376 473 369 467 363 c 2
 408 303 l 2
 402 297 395 294 387 294 c 2
 278 294 l 1
119 354 m 1
 374 354 l 1
 416 396 l 1
 416 494 l 1
 373 537 l 1
 119 537 l 1
 119 354 l 1
EndSplineSet
Validated: 1
EndChar

StartChar: S
Encoding: 82 83 178
Width: 540
VWidth: 0
Flags: W
HStem: 48 61<163 374> 478 21G<414 476> 538 59<166 376>
VStem: 63 60<151 170 463 495> 414 60<153 184 478 498>
LayerCount: 2
Back
Fore
SplineSet
414 498 m 1
 376 538 l 1
 166 538 l 1
 123 495 l 1
 123 463 l 1
 461 225 l 2
 470 219 474 210 474 200 c 2
 474 141 l 2
 474 133 471 127 466 121 c 2
 409 59 l 2
 403 53 396 48 387 48 c 2
 151 48 l 2
 143 48 136 51 130 57 c 2
 69 118 l 2
 63 124 60 131 60 139 c 2
 60 170 l 1
 120 170 l 1
 120 151 l 1
 163 109 l 1
 374 109 l 1
 414 153 l 1
 414 184 l 1
 76 422 l 2
 67 428 63 437 63 447 c 2
 63 507 l 2
 63 515 66 522 72 528 c 2
 133 589 l 2
 139 595 146 597 154 597 c 2
 388 597 l 2
 396 597 403 595 409 589 c 2
 467 531 l 2
 473 525 476 518 476 510 c 2
 476 478 l 1
 414 478 l 1
 414 498 l 1
EndSplineSet
Validated: 1
EndChar

StartChar: T
Encoding: 83 84 179
Width: 540
VWidth: 0
Flags: W
HStem: 49 21G<238 298> 537 60<60 238 298 476>
VStem: 238 60<49 537>
LayerCount: 2
Back
Fore
SplineSet
60 597 m 1
 476 597 l 1
 476 537 l 1
 298 537 l 1
 298 49 l 1
 238 49 l 1
 238 537 l 1
 60 537 l 1
 60 597 l 1
EndSplineSet
Validated: 1
EndChar

StartChar: U
Encoding: 84 85 180
Width: 540
VWidth: 0
Flags: W
HStem: 50 60<161 375> 577 20G<60 118 416 476>
VStem: 60 58<152 597> 416 60<153 597>
LayerCount: 2
Back
Fore
SplineSet
60 597 m 1
 118 597 l 1
 118 152 l 1
 161 110 l 1
 375 110 l 1
 416 153 l 1
 416 597 l 1
 476 597 l 1
 476 141 l 2
 476 137 475 128 468 121 c 2
 410 60 l 2
 406 56 398 50 388 50 c 2
 148 50 l 2
 143 50 134 52 127 59 c 2
 68 118 l 2
 65 121 60 129 60 139 c 2
 60 597 l 1
EndSplineSet
Validated: 1
EndChar

StartChar: V
Encoding: 85 86 181
Width: 540
VWidth: 0
Flags: W
HStem: 48 21G<258.5 271.5> 577 20G<60 120 416 476>
VStem: 60 60<513 597> 416 60<512 597>
LayerCount: 2
Back
Fore
SplineSet
120 513 m 1
 265 155 l 1
 416 512 l 1
 416 597 l 1
 476 597 l 1
 476 506 l 2
 476 502 475 498 474 494 c 2
 293 66 l 2
 288 55 278 48 265 48 c 0
 252 48 242 55 237 66 c 2
 60 495 l 2
 58 499 60 502 60 506 c 2
 60 597 l 1
 120 597 l 1
 120 513 l 1
EndSplineSet
Validated: 1
EndChar

StartChar: W
Encoding: 86 87 182
Width: 540
VWidth: 0
Flags: W
HStem: 48 21G<146 153.5 381.5 389> 577 20G<60 119 416 476>
VStem: 60 59<150 597> 237 60<213 352> 416 60<151 597>
LayerCount: 2
Back
Fore
SplineSet
266 157 m 1
 171 57 l 2
 165 51 157 48 150 48 c 0
 142 48 135 51 129 57 c 2
 69 117 l 2
 63 123 60 130 60 138 c 2
 60 597 l 1
 119 597 l 1
 119 150 l 1
 150 121 l 1
 237 213 l 1
 237 352 l 1
 297 352 l 1
 297 211 l 1
 385 121 l 1
 416 151 l 1
 416 597 l 1
 476 597 l 1
 476 138 l 2
 476 129 473 122 467 116 c 2
 406 57 l 2
 400 52 393 48 385 48 c 0
 378 48 370 52 364 58 c 2
 266 157 l 1
EndSplineSet
Validated: 1
EndChar

StartChar: X
Encoding: 87 88 183
Width: 540
VWidth: 0
Flags: W
HStem: 50 21G<60 120 416 476> 577 20G<60 120 416 476>
VStem: 60 60<50 127 520 597> 416 60<50 127 520 597>
LayerCount: 2
Back
Fore
SplineSet
266 281 m 1
 120 127 l 1
 120 50 l 1
 60 50 l 1
 60 139 l 2
 60 147 63 154 69 160 c 2
 224 323 l 1
 69 487 l 2
 63 493 60 500 60 508 c 2
 60 597 l 1
 120 597 l 1
 120 520 l 1
 267 366 l 1
 416 520 l 1
 416 597 l 1
 476 597 l 1
 476 508 l 2
 476 500 473 493 467 487 c 2
 309 324 l 1
 467 160 l 2
 473 154 476 147 476 139 c 2
 476 50 l 1
 416 50 l 1
 416 127 l 1
 266 281 l 1
EndSplineSet
Validated: 1
EndChar

StartChar: Y
Encoding: 88 89 184
Width: 540
VWidth: 0
Flags: W
HStem: 50 21G<237 298> 577 20G<60 120 416 476>
VStem: 60 60<578 597> 237 61<50 371> 416 60<578 597>
LayerCount: 2
Back
Fore
SplineSet
298 371 m 1
 298 50 l 1
 237 50 l 1
 237 371 l 1
 69 545 l 2
 63 551 60 558 60 566 c 2
 60 597 l 1
 120 597 l 1
 120 578 l 1
 269 426 l 1
 416 578 l 1
 416 597 l 1
 476 597 l 1
 476 568 l 2
 476 560 474 552 468 546 c 2
 298 371 l 1
EndSplineSet
Validated: 1
EndChar

StartChar: Z
Encoding: 89 90 185
Width: 540
VWidth: 0
Flags: W
HStem: 49 61<120 476> 537 60<60 415>
VStem: 60 60<110 129> 415 60<518 537>
LayerCount: 2
Back
Fore
SplineSet
475 506 m 2
 475 498 472 491 466 485 c 2
 120 129 l 1
 120 110 l 1
 476 110 l 1
 476 49 l 1
 60 49 l 1
 60 141 l 2
 60 149 63 156 69 162 c 2
 415 518 l 1
 415 537 l 1
 60 537 l 1
 60 597 l 1
 475 597 l 1
 475 506 l 2
EndSplineSet
Validated: 1
EndChar

StartChar: AE
Encoding: 197 198 186
Width: 540
VWidth: 0
Flags: W
HStem: 49 60<359 481> 231 62<115 298> 293 61<359 481> 537 60<359 481>
VStem: 53 62<49 231 293 374> 298 183<49 109 293 354> 298 61<109 231 354 537>
DStem2: 233 570 115 374 0.746734 0.665123<-218.479 26.0056>
LayerCount: 2
Back
Fore
SplineSet
298 537 m 1xda
 115 374 l 1
 115 293 l 1
 298 293 l 1xdc
 298 537 l 1xda
53 49 m 1
 53 121 53 191 53 256 c 0
 53 299 53 340 53 378 c 1
 53 406 67 420 87 438 c 2
 233 570 l 2
 249 584 259 592 273 597 c 1
 377 597 401 597 481 597 c 1
 481 537 l 1xdc
 359 537 l 1
 359 354 l 1xba
 481 354 l 1
 481 293 l 1xbc
 359 293 l 1
 359 109 l 1xba
 481 109 l 1
 481 49 l 1
 298 49 l 1xbc
 298 231 l 1xda
 115 231 l 1
 115 49 l 1
 53 49 l 1
EndSplineSet
Validated: 1
EndChar

StartChar: Oslash
Encoding: 215 216 187
Width: 540
VWidth: 0
Flags: W
HStem: 50 60<156 378> 538 59<157 378>
VStem: 55 62<217 494> 421 60<153 432>
DStem2: 117 217 125 140 0.711901 0.70228<0 367.408>
LayerCount: 2
Back
Fore
SplineSet
421 432 m 1
 125 140 l 1
 156 110 l 1
 378 110 l 1
 421 153 l 1
 421 432 l 1
408 506 m 1
 378 538 l 1
 157 538 l 1
 117 494 l 1
 117 217 l 1
 408 506 l 1
65 526 m 2
 122 588 l 2
 129 596 138 597 144 597 c 2
 391 597 l 2
 401 597 410 592 413 588 c 2
 473 526 l 2
 480 519 481 510 481 505 c 2
 481 140 l 2
 481 130 476 122 472 119 c 2
 411 59 l 2
 404 52 395 50 390 50 c 2
 144 50 l 2
 134 50 126 55 123 58 c 2
 64 115 l 2
 57 122 55 132 55 137 c 2
 55 506 l 2
 55 515 61 522 65 526 c 2
EndSplineSet
Validated: 1
EndChar

StartChar: semicolon
Encoding: 58 59 190
Width: 540
VWidth: 0
Flags: W
HStem: -96 285 300 111<238 357>
VStem: 238 119<107 189 300 411>
LayerCount: 2
Back
Fore
SplineSet
238 411 m 1
 357 411 l 1
 357 300 l 1
 238 300 l 1
 238 411 l 1
EndSplineSet
Refer: 51 44 N 1 0 0 1 0 0 2
Validated: 1
EndChar

StartChar: asterisk
Encoding: 41 42 191
Width: 540
VWidth: 0
Flags: W
HStem: 578 20G<237 298>
VStem: 237 61<170 354 414 598>
LayerCount: 2
Back
Fore
SplineSet
237 354 m 1
 298 354 l 1
 298 170 l 1
 237 170 l 1
 237 354 l 1
237 598 m 1
 298 598 l 1
 298 414 l 1
 237 414 l 1
 237 598 l 1
431 528 m 1
 474 486 l 1
 375 386 l 1
 476 282 l 1
 433 240 l 1
 290 386 l 1
 431 528 l 1
105 528 m 1
 246 386 l 1
 103 240 l 1
 61 282 l 1
 162 386 l 1
 63 486 l 1
 105 528 l 1
EndSplineSet
Validated: 1
EndChar

StartChar: copyright
Encoding: 168 169 208
Width: 540
VWidth: 0
Flags: W
HStem: 50 60<190 348> 171 60<279 359> 415 60<279 359> 538 59<191 348>
VStem: 58 60<182 464> 177 60<274 372> 420 60<182 464>
DStem2: 67 498 118 464 0.703189 0.711003<11.6886 115.636> 118 182 67 149 0.703146 -0.711046<0 101.822> 382 589 348 538 0.699294 -0.714834<12.6805 115.927> 420 182 472 149 0.707107 0.707107<-101.823 0>
LayerCount: 2
Back
Fore
SplineSet
359 475 m 1
 359 415 l 1
 279 415 l 1
 237 372 l 1
 237 274 l 1
 279 231 l 1
 359 231 l 1
 359 171 l 1
 267 171 l 2
 262 171 252 173 245 180 c 2
 185 241 l 2
 182 244 177 252 177 262 c 2
 177 384 l 2
 177 389 178 398 185 405 c 2
 245 466 l 2
 248 470 256 475 266 475 c 2
 359 475 l 1
67 498 m 2
 157 589 l 2
 164 596 172 597 177 597 c 2
 360 597 l 2
 370 597 379 593 382 589 c 2
 472 497 l 2
 479 490 480 481 480 476 c 2
 480 171 l 2
 480 161 475 152 472 149 c 2
 382 59 l 2
 375 52 365 50 360 50 c 2
 177 50 l 2
 167 50 159 56 156 59 c 2
 67 149 l 2
 60 156 58 166 58 171 c 2
 58 477 l 2
 58 487 64 495 67 498 c 2
118 464 m 1
 118 182 l 1
 190 110 l 1
 348 110 l 1
 420 182 l 1
 420 464 l 1
 348 538 l 1
 191 538 l 1
 118 464 l 1
EndSplineSet
Validated: 1
EndChar

StartChar: registered
Encoding: 173 174 209
Width: 540
VWidth: 0
Flags: W
HStem: 50 60<190 348> 293 60<236 262> 415 60<236 286> 538 59<191 348>
VStem: 58 60<182 464> 176 60<170 293 353 415> 298 60<171 226 367 402> 420 60<182 464>
DStem2: 67 498 118 464 0.703189 0.711003<11.6886 115.636> 118 182 67 149 0.703146 -0.711046<0 101.822> 472 497 420 464 0.699294 -0.714834<-116.021 -12.7738> 420 182 472 149 0.707107 0.707107<-101.823 0>
LayerCount: 2
Back
Fore
SplineSet
67 498 m 2
 157 589 l 2
 164 596 171 597 176 597 c 2
 360 597 l 2
 370 597 378 593 382 589 c 2
 472 497 l 2
 479 490 480 481 480 476 c 2
 480 170 l 2
 480 160 475 152 472 149 c 2
 382 59 l 2
 374 52 365 50 360 50 c 2
 176 50 l 2
 166 50 159 55 156 59 c 2
 67 149 l 2
 60 156 58 165 58 170 c 2
 58 477 l 2
 58 487 64 494 67 498 c 2
118 464 m 1
 118 182 l 1
 190 110 l 1
 348 110 l 1
 420 182 l 1
 420 464 l 1
 348 538 l 1
 191 538 l 1
 118 464 l 1
176 475 m 1
 298 475 l 2
 308 475 316 470 319 467 c 2
 351 437 l 2
 358 430 360 421 360 415 c 2
 360 354 l 2
 360 344 355 336 351 332 c 2
 324 306 l 1
 355 247 l 2
 356 244 358 239 358 233 c 2
 358 171 l 1
 298 171 l 1
 298 226 l 1
 262 293 l 1
 236 293 l 1
 236 170 l 1
 176 170 l 1
 176 475 l 1
236 415 m 1
 236 353 l 1
 286 353 l 1
 298 367 l 1
 298 402 l 1
 286 415 l 1
 236 415 l 1
EndSplineSet
Validated: 1
EndChar

StartChar: boxA
Encoding: 1627 -1 210
Width: 540
VWidth: 0
Flags: W
HStem: -13 62<61 475> 171 60<61 475> 415 60<61 244>
VStem: 0 61<49 171 293 415 475 556> 244 60<293 415 475 555> 475 61<49 171>
DStem2: 11 590 62 556 0.712926 0.701239<12.5171 140.505> 175 709 153 646 0.707107 -0.707107<28.9914 157.685>
LayerCount: 2
Back
Fore
SplineSet
0 231 m 1
 536 231 l 1
 536 -13 l 1
 0 -13 l 1
 0 231 l 1
61 171 m 1
 61 49 l 1
 475 49 l 1
 475 171 l 1
 61 171 l 1
60 293 m 1
 0 293 l 1
 2 569 l 2
 2 579 8 587 11 590 c 2
 133 710 l 2
 139 716 146 718 152 718 c 0
 162 718 170 714 175 709 c 2
 296 588 l 2
 303 581 304 572 304 567 c 2
 304 293 l 1
 244 293 l 1
 244 415 l 1
 61 415 l 1
 60 293 l 1
61 475 m 1
 244 475 l 1
 244 555 l 1
 153 646 l 1
 62 556 l 1
 61 475 l 1
EndSplineSet
Validated: 1
EndChar

StartChar: insert
Encoding: 1628 -1 211
Width: 540
VWidth: 0
Flags: W
HStem: 18 184<0 184 352 536> 456 20G<247.511 286.422>
DStem2: 0 202 0 18 0.697899 0.716196<0 250.081> 267 476 267 291 0.696671 -0.71739<132.717 386.122>
LayerCount: 2
Back
Fore
SplineSet
0 18 m 1
 0 202 l 1
 267 476 l 1
 536 199 l 1
 535 18 l 1
 267 291 l 1
 0 18 l 1
EndSplineSet
Validated: 1
EndChar

StartChar: boxB
Encoding: 1629 -1 212
Width: 540
VWidth: 0
Flags: W
HStem: -13 62<61 474> 171 60<61 474> 294 60<231 290 352 432> 476 60<352 430> 659 59<231 290 352 433>
VStem: 0 61<49 171> 290 62<354 476 536 659> 474 61<49 171 396 434 580 616>
LayerCount: 2
Back
Fore
SplineSet
0 231 m 1
 535 231 l 1
 535 -13 l 1
 0 -13 l 1
 0 231 l 1
61 171 m 1
 61 49 l 1
 474 49 l 1
 474 171 l 1
 61 171 l 1
231 659 m 1
 231 719 l 1
 445 718 l 2
 455 718 463 713 466 710 c 2
 527 649 l 2
 534 642 536 633 536 628 c 2
 536 568 l 2
 536 558 531 549 527 546 c 2
 487 508 l 1
 526 466 l 2
 533 459 534 450 534 446 c 2
 534 384 l 2
 534 374 529 366 526 363 c 2
 466 303 l 2
 459 296 450 294 445 294 c 2
 231 294 l 1
 231 354 l 1
 290 354 l 1
 290 659 l 1
 231 659 l 1
352 354 m 1
 432 354 l 1
 474 396 l 1
 474 434 l 1
 434 476 l 1
 352 476 l 1
 352 354 l 1
352 659 m 1
 352 536 l 1
 430 536 l 1
 476 580 l 1
 476 616 l 1
 433 659 l 1
 352 659 l 1
EndSplineSet
Validated: 1
EndChar

StartChar: box6
Encoding: 1630 -1 213
Width: 540
VWidth: 0
Flags: W
HStem: -73 60<61 475> 48 60<220 318> 172 60<177 195> 233 60<280 316> 537 61<61 475>
VStem: 0 61<-13 537> 117 60<151 172 232 372> 361 60<153 190> 475 61<-13 537>
LayerCount: 2
Back
Fore
SplineSet
177 232 m 1
 195 232 l 1
 246 284 l 2
 249 287 257 293 267 293 c 2
 329 293 l 2
 334 293 342 291 349 284 c 2
 411 224 l 2
 415 221 421 212 421 202 c 2
 421 140 l 2
 421 136 419 127 412 120 c 2
 353 58 l 2
 349 54 341 48 331 48 c 2
 207 48 l 2
 202 48 193 50 186 57 c 2
 125 118 l 2
 122 121 117 129 117 139 c 2
 117 384 l 2
 117 389 118 398 125 405 c 2
 185 467 l 1
 229 426 l 1
 177 372 l 1
 177 232 l 1
177 172 m 1
 177 151 l 1
 220 108 l 1
 318 108 l 1
 361 153 l 1
 361 190 l 1
 316 233 l 1
 280 233 l 1
 228 181 l 2
 221 174 212 172 207 172 c 2
 177 172 l 1
61 537 m 1
 61 -13 l 1
 475 -13 l 1
 475 537 l 1
 61 537 l 1
0 598 m 1
 536 598 l 1
 536 -73 l 1
 0 -73 l 1
 0 598 l 1
EndSplineSet
Validated: 1
EndChar

StartChar: plusminus
Encoding: 176 177 214
Width: 540
VWidth: 0
Flags: W
HStem: 109 62<54 481> 415 61<54 237 298 481> 639 20G<237 298>
VStem: 237 61<231 415 476 659>
LayerCount: 2
Back
Fore
SplineSet
237 659 m 1
 298 659 l 1
 298 476 l 1
 481 476 l 1
 481 415 l 1
 298 415 l 1
 298 231 l 1
 237 231 l 1
 237 415 l 1
 54 415 l 1
 54 476 l 1
 237 476 l 1
 237 659 l 1
54 171 m 1
 481 171 l 1
 481 109 l 1
 54 109 l 1
 54 171 l 1
EndSplineSet
Validated: 1
EndChar

StartChar: Eth
Encoding: 207 208 215
Width: 540
VWidth: 0
Flags: W
HStem: 49 61<54 115 176 317> 298 54<55 115 176 299> 538 59<54 115 176 317>
VStem: 115 61<110 298 352 538> 420 60<213 433>
DStem2: 351 588 317 538 0.701239 -0.712926<11.8042 158.889> 317 110 350 59 0.710035 0.704167<0 145.663>
LayerCount: 2
Back
Fore
SplineSet
115 538 m 1
 54 538 l 1
 54 597 l 1
 330 597 l 2
 340 597 348 592 351 588 c 2
 471 466 l 2
 478 459 480 450 480 445 c 2
 480 201 l 2
 480 191 475 183 471 179 c 2
 350 59 l 2
 343 52 334 49 329 49 c 2
 54 49 l 1
 54 109 l 1
 115 109 l 1
 115 298 l 1
 55 298 l 1
 55 352 l 1
 115 352 l 1
 115 538 l 1
176 110 m 1
 317 110 l 1
 420 213 l 1
 420 433 l 1
 317 538 l 1
 176 538 l 1
 176 352 l 1
 299 352 l 1
 299 298 l 1
 176 298 l 1
 176 110 l 1
EndSplineSet
Validated: 1
EndChar

StartChar: rightarrow
Encoding: 1631 -1 216
Width: 540
VWidth: 0
Flags: W
HStem: 293 61<0 305> 456 20G<305 328.66>
LayerCount: 2
Back
Fore
SplineSet
305 476 m 1
 486 323 l 1
 305 171 l 1
 305 293 l 1
 0 293 l 1
 0 354 l 1
 305 354 l 1
 305 476 l 1
EndSplineSet
Validated: 1
EndChar

StartChar: Thorn
Encoding: 221 222 217
Width: 540
VWidth: 0
Flags: W
HStem: 50 21G<55 113> 141 60<113 316> 447 60<113 317> 577 20G<55 113>
VStem: 55 58<50 141 201 447 507 597> 420 60<306 343>
DStem2: 316 201 350 150 0.707107 0.707107<0 147.785> 350 498 317 447 0.710011 -0.704191<12.4834 158.85>
LayerCount: 2
Back
Fore
SplineSet
55 597 m 1
 113 597 l 1
 113 507 l 1
 329 507 l 2
 339 507 347 501 350 498 c 2
 472 377 l 2
 479 370 480 360 480 355 c 2
 480 293 l 2
 480 283 475 275 472 272 c 2
 350 150 l 2
 343 143 334 141 329 141 c 2
 113 141 l 1
 113 50 l 1
 55 50 l 1
 55 597 l 1
113 447 m 1
 113 201 l 1
 316 201 l 1
 420 306 l 1
 420 343 l 1
 317 447 l 1
 113 447 l 1
EndSplineSet
Validated: 1
EndChar

StartChar: upshift
Encoding: 1632 -1 218
Width: 540
VWidth: 0
Flags: W
HStem: -11 60<234 299> 315 60<140 174 359 392>
VStem: 174 60<49 315> 299 60<49 315>
DStem2: 18 315 140 375 0.610186 0.792258<121.978 328.792> 266 637 266 539 0.608638 -0.793448<77.7579 284.572>
LayerCount: 2
Back
Fore
SplineSet
174 -11 m 1
 174 315 l 1
 18 315 l 1
 266 637 l 1
 513 315 l 1
 359 315 l 1
 359 -11 l 1
 174 -11 l 1
234 49 m 1
 299 49 l 1
 299 375 l 1
 392 375 l 1
 266 539 l 1
 140 375 l 1
 234 375 l 1
 234 49 l 1
EndSplineSet
Validated: 1
EndChar

StartChar: human
Encoding: 1633 -1 219
Width: 540
VWidth: 0
Flags: W
HStem: 354 61<54 237 298 481> 602 60<239.403 296.642>
VStem: 177 60<537.973 599.451> 237 61<245 354 415 491.593> 299 60<537.913 599.579>
DStem2: 66 104 104 57 0.771539 0.636182<0 211.7> 298 245 267 193 0.768585 -0.639747<9.44072 225.089>
LayerCount: 2
Back
Fore
SplineSet
104 57 m 1xd8
 66 104 l 1
 237 245 l 1
 237 354 l 1
 54 354 l 1
 54 415 l 1
 237 415 l 1
 237 481 l 1xd8
 200 494 177 530 177 568 c 0xe8
 177 621 220 662 268 662 c 0
 322 662 359 616 359 568 c 0
 359 526 332 493 297 481 c 1
 298 415 l 1
 481 415 l 1
 481 354 l 1
 298 354 l 1
 298 245 l 1
 471 101 l 1
 433 55 l 1
 267 193 l 1
 104 57 l 1xd8
237 568 m 0xe8
 237 550 251 536 268 536 c 0
 283 536 299 548 299 568 c 0
 299 586 285 602 268 602 c 0
 253 602 237 588 237 568 c 0xe8
EndSplineSet
Validated: 1
EndChar

StartChar: underB
Encoding: 1634 -1 220
Width: 540
VWidth: 0
Flags: W
HStem: 171 60<0 536> 294 60<117 177 238 319> 477 59<238 317> 659 60<117 177 238 319>
VStem: 177 61<354 477 536 659> 361 60<397 434 580 616>
LayerCount: 2
Back
Fore
SplineSet
117 659 m 1
 117 719 l 1
 331 719 l 2
 341 719 350 713 353 710 c 2
 414 650 l 2
 421 643 422 633 422 628 c 2
 422 568 l 2
 422 558 417 549 413 546 c 2
 374 508 l 1
 413 466 l 2
 420 459 421 450 421 446 c 2
 421 384 l 2
 421 374 415 366 412 363 c 2
 353 303 l 2
 346 296 336 294 331 294 c 2
 117 294 l 1
 117 354 l 1
 177 354 l 1
 177 659 l 1
 117 659 l 1
238 354 m 1
 319 354 l 1
 361 397 l 1
 361 434 l 1
 321 477 l 1
 238 477 l 1
 238 354 l 1
238 659 m 1
 238 536 l 1
 317 536 l 1
 362 580 l 1
 362 616 l 1
 319 659 l 1
 238 659 l 1
0 231 m 1
 536 231 l 1
 536 171 l 1
 0 171 l 1
 0 231 l 1
EndSplineSet
Validated: 1
EndChar

StartChar: downshift
Encoding: 1635 -1 221
Width: 540
VWidth: 0
Flags: W
HStem: 10 98<219 317> 272 60<142 176 362 394> 598 60<236 302>
VStem: 176 60<332 598> 302 60<332 598>
DStem2: 142 272 20 332 0.610186 -0.792258<0 206.814> 268 108 268 10 0.610186 0.792258<0 206.814>
LayerCount: 2
Back
Fore
SplineSet
176 658 m 1
 362 658 l 1
 362 332 l 1
 516 332 l 1
 268 10 l 1
 20 332 l 1
 176 332 l 1
 176 658 l 1
236 598 m 1
 236 272 l 1
 142 272 l 1
 268 108 l 1
 394 272 l 1
 302 272 l 1
 302 598 l 1
 236 598 l 1
EndSplineSet
Validated: 1
EndChar

StartChar: boxquestion
Encoding: 1636 -1 222
Width: 540
VWidth: 0
Flags: W
HStem: -73 60<61 475> 49 60<242 303> 538 60<224 323> 659 61<61 475>
VStem: 0 61<-13 659> 120 60<415 494> 243 60<49 109 172 251> 366 60<399 493> 475 61<-13 659>
DStem2: 252 284 303 251 0.704012 0.710188<12.4684 161.929>
LayerCount: 2
Back
Fore
SplineSet
180 415 m 1
 120 415 l 1
 120 507 l 2
 120 517 125 525 129 528 c 2
 191 589 l 2
 198 596 207 598 212 598 c 2
 336 598 l 2
 346 598 353 592 357 588 c 2
 417 526 l 2
 424 519 426 511 426 506 c 2
 426 386 l 2
 426 376 420 368 417 365 c 2
 303 251 l 1
 303 172 l 1
 243 172 l 1
 243 263 l 2
 243 268 245 277 252 284 c 2
 366 399 l 1
 366 493 l 1
 323 538 l 1
 224 538 l 1
 180 494 l 1
 180 415 l 1
242 109 m 1
 303 109 l 1
 303 49 l 1
 242 49 l 1
 242 109 l 1
61 659 m 1
 61 -13 l 1
 475 -13 l 1
 475 659 l 1
 61 659 l 1
0 720 m 1
 536 720 l 1
 536 -73 l 1
 0 -73 l 1
 0 720 l 1
EndSplineSet
Validated: 1
EndChar

StartChar: boxsolid
Encoding: 1637 -1 223
Width: 540
VWidth: 0
Flags: W
VStem: 0 536<-73 720>
LayerCount: 2
Back
Fore
SplineSet
0 720 m 1
 536 720 l 1
 536 -73 l 1
 0 -73 l 1
 0 720 l 1
EndSplineSet
Validated: 1
EndChar

StartChar: badcommhi
Encoding: 1653 -1 240
Width: 540
VWidth: 0
Flags: W
HStem: -30 183<352 535> 293 62<0 149 391 535> 507 182<0 182>
DStem2: 0 689 0 507 0.706447 -0.707765<128.813 341.654 432.161 473.76 556.496 757.312>
LayerCount: 2
Back
Fore
SplineSet
0 689 m 1
 336 355 l 1
 535 355 l 1
 535 294 l 1
 391 293 l 1
 535 153 l 1
 536 -30 l 1
 215 293 l 1
 0 293 l 1
 0 355 l 1
 149 355 l 1
 0 507 l 1
 0 689 l 1
EndSplineSet
Validated: 1
EndChar

StartChar: commhi
Encoding: 1654 -1 241
Width: 540
VWidth: 0
Flags: W
HStem: 293 59<0 536>
LayerCount: 2
Back
Fore
SplineSet
0 352 m 1
 536 352 l 1
 536 293 l 1
 0 293 l 1
 0 352 l 1
EndSplineSet
Validated: 1
EndChar

StartChar: commjag
Encoding: 1655 -1 242
Width: 540
VWidth: 0
Flags: W
HStem: 49 60<166 536> 295 60<0 264>
DStem2: 22 49 166 109 0.701287 0.712879<143.758 345.08>
LayerCount: 2
Back
Fore
SplineSet
0 295 m 1
 0 355 l 1
 408 355 l 1
 166 109 l 1
 536 109 l 1
 536 49 l 1
 22 49 l 1
 264 295 l 1
 0 295 l 1
EndSplineSet
Validated: 1
EndChar

StartChar: commlo
Encoding: 1656 -1 243
Width: 540
VWidth: 0
Flags: W
HStem: 48 62<0 536>
LayerCount: 2
Back
Fore
SplineSet
0 110 m 1
 536 110 l 1
 536 48 l 1
 0 48 l 1
 0 110 l 1
EndSplineSet
Validated: 1
EndChar

StartChar: clockleft
Encoding: 1657 -1 244
Width: 540
VWidth: 0
Flags: W
HStem: -136 66<426.33 487.822> -75 66<243.905 305.962> 46 66<122.317 183.683> 230 66<60.3303 121.822> 414 66<122.028 183.972> 534 66<245.028 306.972> 594 66<425.028 486.972>
VStem: 58 66<232.178 293.67> 120 66<48.0382 110.095 416.028 477.972> 242 66<-72.6826 -11.3174 536.317 597.683> 424 66<-133.822 -72.3303 4 250 596.317 657.683>
LayerCount: 2
Back
Fore
SplineSet
423 627 m 0x3a60
 423 645 438 660 456 660 c 0
 474 660 489 645 489 627 c 0
 489 609 474 594 456 594 c 0
 438 594 423 609 423 627 c 0x3a60
243 567 m 0
 243 585 258 600 276 600 c 0
 294 600 309 585 309 567 c 0
 309 549 294 534 276 534 c 0x3c60
 258 534 243 549 243 567 c 0
120 447 m 0x38e0
 120 465 135 480 153 480 c 0
 171 480 186 465 186 447 c 0
 186 429 171 414 153 414 c 0
 135 414 120 429 120 447 c 0x38e0
58 262 m 0x3960
 58 281 73 296 92 296 c 0
 110 296 124 281 124 262 c 0
 124 244 110 230 92 230 c 0
 73 230 58 244 58 262 c 0x3960
120 80 m 0x38e0
 120 98 135 112 153 112 c 0
 171 112 186 98 186 80 c 0
 186 61 171 46 153 46 c 0
 135 46 120 61 120 80 c 0x38e0
242 -42 m 0
 242 -24 256 -9 274 -9 c 0
 293 -9 308 -24 308 -42 c 0
 308 -60 293 -75 274 -75 c 0x7860
 256 -75 242 -60 242 -42 c 0
424 -104 m 0
 424 -85 439 -70 458 -70 c 0
 476 -70 490 -85 490 -104 c 0
 490 -122 476 -136 458 -136 c 0xb860
 439 -136 424 -122 424 -104 c 0
536 385 m 1
 536 300 l 1
 488 250 l 1
 488 4 l 1
 428 4 l 1
 428 262 l 2
 428 267 429 276 436 284 c 2
 536 385 l 1
EndSplineSet
Validated: 1
EndChar

StartChar: clockright
Encoding: 1658 -1 245
Width: 540
VWidth: 0
Flags: W
HStem: -14 66<124.178 185.544> 108 66<243.905 305.85> 291 66<303.905 365.85> 311 86<0 86> 476 66<245.317 306.683> 594 66<122.028 183.972>
VStem: 122 66<-11.5435 49.8216 596.95 657.05> 242 66<110.317 171.683 478.178 539.544> 302 66<293.317 354.683>
DStem2: -0 397 -0 311 0.699294 0.714834<0 195.927>
LayerCount: 2
Back
Fore
SplineSet
120 627 m 0xce
 120 645 135 660 153 660 c 0
 171 660 186 645 186 627 c 0
 186 609 171 594 153 594 c 0
 135 594 120 609 120 627 c 0xce
243 508 m 0
 243 526 258 542 276 542 c 0
 294 542 309 526 309 508 c 0
 309 490 294 476 276 476 c 0
 258 476 243 490 243 508 c 0
302 324 m 0xee80
 302 342 316 357 334 357 c 0
 352 357 368 342 368 324 c 0
 368 306 352 291 334 291 c 0
 316 291 302 306 302 324 c 0xee80
242 141 m 0xcf
 242 159 256 174 274 174 c 0
 292 174 308 159 308 141 c 0
 308 123 292 108 274 108 c 0
 256 108 242 123 242 141 c 0xcf
122 20 m 0
 122 38 136 52 154 52 c 0
 172 52 188 38 188 20 c 0
 188 2 172 -14 154 -14 c 0
 136 -14 122 2 122 20 c 0
138 537 m 1
 180 495 l 1
 -0 311 l 1
 0 340 0 368 -0 397 c 1xde
 138 537 l 1
EndSplineSet
Validated: 1
EndChar

StartChar: lock
Encoding: 1659 -1 246
Width: 540
VWidth: 0
Flags: W
DStem2: -2 203 -1 -71 0.705796 0.708415<0 215.31 409.415 569.571> 0 780 0 507 0.705127 -0.709081<193.579 405.878 600.166 758.725>
LayerCount: 2
Back
Fore
SplineSet
537 744 m 1
 537 470 l 1
 424 356 l 1
 536 243 l 1
 535 -31 l 1
 287 219 l 1
 -1 -71 l 1
 -2 203 l 1
 150 356 l 1
 0 507 l 1
 0 780 l 1
 287 493 l 1
 537 744 l 1
EndSplineSet
Validated: 1
EndChar

StartChar: leftarrow
Encoding: 1660 -1 248
Width: 540
VWidth: 0
Flags: W
HStem: 293 61<230 535> 456 20G<206.34 230>
LayerCount: 2
Back
Fore
SplineSet
230 476 m 1
 230 354 l 1
 535 354 l 1
 535 293 l 1
 230 293 l 1
 230 171 l 1
 49 323 l 1
 230 476 l 1
EndSplineSet
Validated: 1
EndChar

StartChar: thorn
Encoding: 253 254 249
Width: 540
VWidth: 0
Flags: W
HStem: 48 60<122 263> 414 60<122 264> 639 20G<60 122>
VStem: 60 62<-134 48 108 414 474 659> 367 60<213 311>
DStem2: 263 108 296 57 0.704215 0.709987<0 147.787> 298 465 264 414 0.704167 -0.710035<12.2701 157.933>
LayerCount: 2
Back
Fore
SplineSet
60 659 m 1
 122 659 l 1
 122 474 l 1
 276 474 l 2
 286 474 295 468 298 465 c 2
 418 344 l 2
 425 337 427 328 427 323 c 2
 427 201 l 2
 427 191 421 183 418 180 c 2
 296 57 l 2
 289 50 280 48 275 48 c 2
 122 48 l 1
 122 -134 l 1
 60 -134 l 1
 60 659 l 1
122 414 m 1
 122 108 l 1
 263 108 l 1
 367 213 l 1
 367 311 l 1
 264 414 l 1
 122 414 l 1
EndSplineSet
Validated: 1
EndChar

StartChar: keyleft
Encoding: 1661 -1 250
Width: 540
VWidth: 0
Flags: W
HStem: 226 60<276.906 399.636> 354 61<493.425 536> 490 60<275.787 399.417>
VStem: 176 60<325.787 449.094> 440 96<354.641 413.047>
LayerCount: 2
Back
Fore
SplineSet
236 388 m 0
 236 333 280 286 338 286 c 0
 393 286 440 330 440 388 c 0
 440 443 396 490 338 490 c 0
 283 490 236 446 236 388 c 0
176 388 m 0
 176 480 251 550 338 550 c 0
 420 550 485 490 498 415 c 1
 536 415 l 1
 536 354 l 1
 496 354 l 1
 480 279 414 226 338 226 c 0
 246 226 176 301 176 388 c 0
EndSplineSet
Validated: 1
EndChar

StartChar: keyright
Encoding: 1662 -1 251
Width: 540
VWidth: 0
Flags: W
HStem: 232 183<170 353> 354 61<0 170 353 414>
VStem: 170 183<232 354> 414 122<171 355>
LayerCount: 2
Back
Fore
SplineSet
0 415 m 1x70
 536 415 l 1x70
 536 171 l 1
 414 171 l 1
 414 355 l 1
 353 355 l 1
 353 232 l 1
 170 232 l 1xb0
 170 354 l 1
 0 354 l 1
 0 415 l 1x70
EndSplineSet
Validated: 1
EndChar

StartChar: box4
Encoding: 1663 -1 252
Width: 540
VWidth: 0
Flags: W
HStem: -74 61<59 477> 49 21G<301 361> 171 60<177 301 361 421> 455 20G<324.5 336.5> 538 58<59 477>
VStem: 0 59<-13 538> 117 60<231 249> 301 60<49 171 231 373> 477 59<-13 538>
DStem2: 309 467 301 373 0.705177 0.709031<-247.652 -72.2903>
LayerCount: 2
Back
Fore
SplineSet
361 231 m 1
 421 231 l 1
 421 171 l 1
 361 171 l 1
 361 49 l 1
 301 49 l 1
 301 171 l 1
 147 171 l 2
 136 171 117 180 117 201 c 2
 117 261 l 2
 117 266 119 275 126 283 c 2
 309 467 l 2
 310 467 318 475 331 475 c 0
 342 475 361 467 361 445 c 2
 361 231 l 1
301 231 m 1
 301 373 l 1
 177 249 l 1
 177 231 l 1
 301 231 l 1
59 538 m 1
 59 -13 l 1
 477 -13 l 1
 477 538 l 1
 59 538 l 1
0 596 m 1
 536 596 l 1
 536 -74 l 1
 0 -74 l 1
 0 596 l 1
EndSplineSet
Validated: 1
EndChar

StartChar: underA
Encoding: 1664 -1 253
Width: 540
VWidth: 0
Flags: W
HStem: 172 58<0 536> 418 60<183 366>
VStem: 122 61<297 418 478 560> 366 60<296 418 478 558>
DStem2: 133 594 184 560 0.715853 0.698251<12.768 140.055> 297 713 275 649 0.707107 -0.707107<29.6985 158.392>
LayerCount: 2
Back
Fore
SplineSet
0 230 m 1
 536 230 l 1
 536 172 l 1
 0 172 l 1
 0 230 l 1
182 296 m 1
 122 297 l 1
 124 573 l 2
 124 583 130 590 133 594 c 2
 255 713 l 2
 261 719 268 721 275 721 c 0
 284 721 292 718 297 713 c 2
 418 592 l 2
 425 584 426 575 426 570 c 2
 426 296 l 1
 366 296 l 1
 366 418 l 1
 183 418 l 1
 182 296 l 1
183 478 m 1
 366 478 l 1
 366 558 l 1
 275 649 l 1
 184 560 l 1
 183 478 l 1
EndSplineSet
Validated: 1
EndChar

StartChar: magcard
Encoding: 1665 -1 254
Width: 540
VWidth: 0
Flags: W
HStem: 108 66<60 480> 232 62<60 476> 474 64<60 476>
VStem: 0 60<174 232 294 474> 476 60<174 232 294 474>
LayerCount: 2
Back
Fore
SplineSet
60 232 m 1
 60 174 l 1
 480 174 l 1
 480 232 l 1
 60 232 l 1
60 474 m 1
 60 294 l 1
 476 294 l 1
 476 474 l 1
 60 474 l 1
0 538 m 1
 536 538 l 1
 536 108 l 1
 0 108 l 1
 0 538 l 1
EndSplineSet
Validated: 1
EndChar

StartChar: boxhuman
Encoding: 1666 -1 255
Width: 540
VWidth: 0
Flags: W
HStem: -70 54<98 436> 294 61<62 238 299 478> 542 60<240.403 297.642> 660 60<62 478>
VStem: 0 62<32 294 355 660> 178 60<477.973 539.451> 238 61<185 294 355 431.593> 300 60<477.913 539.579> 478 58<27 294 355 660>
DStem2: 62 32 98 -16 0.754698 0.656073<0 221.731> 299 185 268 133 0.749716 -0.66176<11.1703 235.725>
LayerCount: 2
Back
Fore
SplineSet
238 508 m 0xfd80
 238 490 252 476 269 476 c 0
 284 476 300 488 300 508 c 0
 300 526 286 542 269 542 c 0
 254 542 238 528 238 508 c 0xfd80
0 720 m 1
 536 720 l 1
 536 -70 l 1
 0 -70 l 1
 0 720 l 1
478 27 m 1
 478 294 l 1
 299 294 l 1
 299 185 l 1xfb80
 478 27 l 1
478 355 m 1
 478 660 l 1
 62 660 l 1
 62 355 l 1
 238 355 l 1
 238 421 l 1xfb80
 201 434 178 470 178 508 c 0xfd80
 178 561 221 602 269 602 c 0
 323 602 360 556 360 508 c 0
 360 466 333 433 298 421 c 1
 299 355 l 1
 478 355 l 1
98 -16 m 1
 436 -16 l 1
 268 133 l 1
 98 -16 l 1
62 294 m 1
 62 32 l 1
 238 185 l 1
 238 294 l 1
 62 294 l 1
EndSplineSet
Validated: 1
EndChar

StartChar: apl_bracketright
Encoding: 1668 -1 257
Width: 540
VWidth: 0
Flags: W
HStem: -13 62<184 305> 598 61<184 305>
VStem: 184 182<-13 49 598 659> 305 61<49 598>
LayerCount: 2
Back
Fore
SplineSet
184 659 m 1xe0
 366 659 l 1
 366 -13 l 1
 184 -13 l 1
 184 49 l 1xe0
 305 49 l 1
 305 598 l 1xd0
 184 598 l 1
 184 659 l 1xe0
EndSplineSet
Validated: 1
EndChar

StartChar: apl_bracketleft
Encoding: 1669 -1 258
Width: 540
VWidth: 0
Flags: W
HStem: -13 62<244 366> 598 61<244 366>
VStem: 184 182<-13 49 598 659> 184 60<49 598>
LayerCount: 2
Back
Fore
SplineSet
184 659 m 1xe0
 366 659 l 1
 366 598 l 1xe0
 244 598 l 1
 244 49 l 1xd0
 366 49 l 1
 366 -13 l 1
 184 -13 l 1
 184 659 l 1xe0
EndSplineSet
Validated: 1
EndChar

StartChar: apl_stile
Encoding: 1670 -1 259
Width: 540
VWidth: 0
Flags: W
VStem: 244 61<-200 800>
LayerCount: 2
Back
Fore
SplineSet
244 800 m 1
 305 800 l 1
 305 -200 l 1
 244 -200 l 1
 244 800 l 1
EndSplineSet
Validated: 1
EndChar

StartChar: apl_2vertical
Encoding: 1671 -1 260
Width: 540
VWidth: 0
Flags: W
VStem: 92 60<-199 801> 396 62<-199 801>
LayerCount: 2
Back
Fore
SplineSet
396 801 m 1
 458 801 l 1
 458 -199 l 1
 396 -199 l 1
 396 801 l 1
92 801 m 1
 152 801 l 1
 152 -199 l 1
 92 -199 l 1
 92 801 l 1
EndSplineSet
Validated: 1
EndChar

StartChar: apl_2horizontal
Encoding: 1672 -1 261
Width: 540
VWidth: 0
Flags: W
HStem: -104 61<0 536> 629 60<0 536>
LayerCount: 2
Back
Fore
SplineSet
0 -43 m 1
 536 -43 l 1
 536 -104 l 1
 0 -104 l 1
 0 -43 l 1
0 689 m 1
 536 689 l 1
 536 629 l 1
 0 629 l 1
 0 689 l 1
EndSplineSet
Validated: 1
EndChar

StartChar: apl_leftvbar
Encoding: 1673 -1 262
Width: 540
VWidth: 0
Flags: W
VStem: 92 60<-199 801>
LayerCount: 2
Back
Fore
SplineSet
92 801 m 1
 152 801 l 1
 152 -199 l 1
 92 -199 l 1
 92 801 l 1
EndSplineSet
Validated: 1
EndChar

StartChar: apl_rightvbar
Encoding: 1674 -1 263
Width: 540
VWidth: 0
Flags: W
VStem: 396 62<-199 801>
LayerCount: 2
Back
Fore
SplineSet
396 801 m 1
 458 801 l 1
 458 -199 l 1
 396 -199 l 1
 396 801 l 1
EndSplineSet
Validated: 1
EndChar

StartChar: apl_midvbar
Encoding: 1675 -1 264
Width: 540
VWidth: 0
Flags: W
VStem: 244 61<-199 801>
LayerCount: 2
Back
Fore
SplineSet
244 801 m 1
 305 801 l 1
 305 -199 l 1
 244 -199 l 1
 244 801 l 1
EndSplineSet
Validated: 1
EndChar

StartChar: apl_leftsolid
Encoding: 1676 -1 265
Width: 540
VWidth: 0
Flags: W
VStem: 0 275<-199 801>
LayerCount: 2
Back
Fore
SplineSet
0 801 m 1
 275 801 l 1
 275 -199 l 1
 0 -199 l 1
 0 801 l 1
EndSplineSet
Validated: 1
EndChar

StartChar: apl_rightsolid
Encoding: 1677 -1 266
Width: 540
VWidth: 0
Flags: W
VStem: 276 260<-200 801>
LayerCount: 2
Back
Fore
SplineSet
276 801 m 1
 536 801 l 1
 536 -200 l 1
 276 -200 l 1
 276 801 l 1
EndSplineSet
Validated: 1
EndChar

StartChar: apl_topsolid
Encoding: 1678 -1 267
Width: 540
VWidth: 0
Flags: W
HStem: 293 507<0 536>
VStem: 0 536<293 800>
LayerCount: 2
Back
Fore
SplineSet
0 800 m 1
 536 800 l 1
 536 293 l 1
 0 293 l 1
 0 800 l 1
EndSplineSet
Validated: 1
EndChar

StartChar: apl_bottomsolid
Encoding: 1679 -1 268
Width: 540
VWidth: 0
Flags: W
HStem: -200 493<0 536>
VStem: 0 536<-200 293>
LayerCount: 2
Back
Fore
SplineSet
0 293 m 1
 536 293 l 1
 536 -200 l 1
 0 -200 l 1
 0 293 l 1
EndSplineSet
Validated: 1
EndChar

StartChar: apl_solid
Encoding: 1680 -1 269
Width: 540
VWidth: 0
Flags: W
VStem: 0 536<-195 781>
LayerCount: 2
Back
Fore
SplineSet
0 781 m 1
 536 781 l 1
 536 -195 l 1
 0 -195 l 1
 0 781 l 1
EndSplineSet
Validated: 1
EndChar

StartChar: apl_midhbar
Encoding: 1681 -1 270
Width: 540
VWidth: 0
Flags: W
HStem: 293 61<0 535>
LayerCount: 2
Back
Fore
SplineSet
0 354 m 1
 535 354 l 1
 535 293 l 1
 0 293 l 1
 0 354 l 1
EndSplineSet
Validated: 1
EndChar

StartChar: apl_lowerleft
Encoding: 1682 -1 271
Width: 540
VWidth: 0
Flags: W
HStem: 294 60<345 535>
VStem: 242 60<396 780>
LayerCount: 2
Back
Fore
SplineSet
242 780 m 1
 302 780 l 1
 302 396 l 1
 345 354 l 1
 535 354 l 1
 535 294 l 1
 332 294 l 0
 325 294 317 297 311 303 c 0
 251 363 l 0
 246 368 242 376 242 384 c 0
 242 780 l 1
EndSplineSet
Validated: 1
EndChar

StartChar: apl_upperleft
Encoding: 1683 -1 272
Width: 540
VWidth: 0
Flags: W
HStem: 294 60<345 535>
VStem: 242 60<-132 252>
LayerCount: 2
Back
Fore
SplineSet
242 -132 m 1
 242 264 l 0
 242 272 246 280 251 285 c 0
 311 345 l 0
 317 351 325 354 332 354 c 0
 535 354 l 1
 535 294 l 1
 345 294 l 1
 302 252 l 1
 302 -132 l 1
 242 -132 l 1
EndSplineSet
Validated: 1
EndChar

StartChar: apl_leftjoin
Encoding: 1684 -1 273
Width: 540
VWidth: 0
Flags: W
HStem: 293 61<305 535>
VStem: 244 61<-199 293 354 801>
LayerCount: 2
Back
Fore
SplineSet
244 801 m 1
 305 801 l 1
 305 354 l 1
 535 354 l 1
 535 293 l 1
 305 293 l 1
 305 -199 l 1
 244 -199 l 1
 244 801 l 1
EndSplineSet
Validated: 1
EndChar

StartChar: apl_bottomjoin
Encoding: 1685 -1 274
Width: 540
VWidth: 0
Flags: W
HStem: 293 61<0 244 305 534>
VStem: 244 61<354 801>
LayerCount: 2
Back
Fore
SplineSet
244 801 m 1
 305 801 l 1
 305 354 l 1
 534 354 l 1
 534 293 l 1
 0 293 l 1
 0 354 l 1
 244 354 l 1
 244 801 l 1
EndSplineSet
Validated: 1
EndChar

StartChar: apl_intersect
Encoding: 1686 -1 275
Width: 540
VWidth: 0
Flags: W
HStem: 293 61<0 244 305 535>
VStem: 244 61<-198 293 354 801>
LayerCount: 2
Back
Fore
SplineSet
244 801 m 1
 305 801 l 1
 305 354 l 1
 535 354 l 1
 535 293 l 1
 305 293 l 1
 305 -198 l 1
 244 -198 l 1
 244 293 l 1
 0 293 l 1
 0 354 l 1
 244 354 l 1
 244 801 l 1
EndSplineSet
Validated: 1
EndChar

StartChar: apl_lowerright
Encoding: 1687 -1 276
Width: 540
VWidth: 0
Flags: W
HStem: 294 60<9 199>
VStem: 242 60<396 780>
LayerCount: 2
Back
Fore
SplineSet
302 780 m 1
 302 384 l 0
 302 376 298 368 293 363 c 0
 233 303 l 0
 227 297 219 294 212 294 c 0
 9 294 l 1
 9 354 l 1
 199 354 l 1
 242 396 l 1
 242 780 l 1
 302 780 l 1
EndSplineSet
Validated: 1
EndChar

StartChar: apl_rightjoin
Encoding: 1689 -1 278
Width: 540
VWidth: 0
Flags: W
HStem: 293 61<0 244>
VStem: 244 61<-199 293 354 801>
LayerCount: 2
Back
Fore
SplineSet
244 801 m 1
 305 801 l 1
 305 -199 l 1
 244 -199 l 1
 244 293 l 1
 0 293 l 1
 0 354 l 1
 244 354 l 1
 244 801 l 1
EndSplineSet
Validated: 1
EndChar

StartChar: apl_topjoin
Encoding: 1690 -1 279
Width: 540
VWidth: 0
Flags: W
HStem: 293 61<0 244 305 535>
VStem: 244 61<-198 293>
LayerCount: 2
Back
Fore
SplineSet
0 354 m 1
 535 354 l 1
 535 293 l 1
 305 293 l 1
 305 -198 l 1
 244 -198 l 1
 244 293 l 1
 0 293 l 1
 0 354 l 1
EndSplineSet
Validated: 1
EndChar

StartChar: dec_solid
Encoding: 1691 -1 280
Width: 540
VWidth: 0
Flags: W
VStem: 152 244<-199 801>
LayerCount: 2
Back
Fore
SplineSet
152 801 m 1
 396 801 l 1
 396 -199 l 1
 152 -199 l 1
 152 801 l 1
EndSplineSet
Validated: 1
EndChar

StartChar: dec_filled_circle
Encoding: 1692 -1 281
Width: 540
VWidth: 0
Flags: W
HStem: 203 240<212.684 339.756>
VStem: 162 228<253.653 392.782>
LayerCount: 2
Back
Fore
SplineSet
162 323 m 0
 162 390 214 443 276 443 c 0
 339 443 390 390 390 323 c 0
 390 257 339 203 276 203 c 0
 214 203 162 257 162 323 c 0
EndSplineSet
Validated: 1
EndChar

StartChar: dec_ht
Encoding: 1694 -1 283
Width: 540
VWidth: 0
Flags: W
HStem: 262 61<244 305 366 428> 507 60<152 214>
VStem: 92 60<385 507 567 689> 214 60<385 507 567 689> 305 61<19 262>
LayerCount: 2
Back
Fore
SplineSet
92 689 m 1
 152 689 l 1
 152 567 l 1
 214 567 l 1
 214 689 l 1
 274 689 l 1
 274 385 l 1
 214 385 l 1
 214 507 l 1
 152 507 l 1
 152 385 l 1
 92 385 l 1
 92 689 l 1
244 323 m 1
 428 323 l 1
 428 262 l 1
 366 262 l 1
 366 19 l 1
 305 19 l 1
 305 262 l 1
 244 263 l 1
 244 323 l 1
EndSplineSet
Validated: 1
EndChar

StartChar: dec_ff
Encoding: 1695 -1 284
Width: 540
VWidth: 0
Flags: W
HStem: 143 61<304 396> 266 60<304 426> 506 61<152 244> 629 60<152 274>
VStem: 92 60<385 506 567 629> 244 60<22 143 204 266>
LayerCount: 2
Back
Fore
SplineSet
244 326 m 1
 426 326 l 1
 426 266 l 1
 304 266 l 1
 304 204 l 1
 396 204 l 1
 396 143 l 1
 304 143 l 1
 304 22 l 1
 244 22 l 1
 244 326 l 1
92 689 m 1
 274 689 l 1
 274 629 l 1
 152 629 l 1
 152 567 l 1
 244 567 l 1
 244 506 l 1
 152 506 l 1
 152 385 l 1
 92 385 l 1
 92 689 l 1
EndSplineSet
Validated: 1
EndChar

StartChar: dec_cr
Encoding: 1696 -1 285
Width: 540
VWidth: 0
Flags: W
HStem: 262 60<305 355> 386 90<213 249.562> 386 60<162 204> 628 60<160 202>
VStem: 92 60<458 620> 213 60<456 476 598 617> 245 60<18 142 201 262> 366 60<18 43 243 251>
DStem2: 373 164 318 142 0.443661 -0.896195<0 105.334>
LayerCount: 2
Back
Fore
SplineSet
274 598 m 1xbd
 214 598 l 1
 214 617 l 1
 202 628 l 1
 160 628 l 1
 152 620 l 1
 152 458 l 1
 162 446 l 1
 204 446 l 1xbd
 213 456 l 1
 213 476 l 1
 273 476 l 1
 273 445 l 2
 273 440 271 432 265 425 c 2
 239 396 l 2
 235 392 228 386 217 386 c 2xdd
 149 386 l 2
 143 386 134 388 127 396 c 2
 100 426 l 2
 96 430 92 437 92 446 c 2
 92 632 l 2
 92 637 94 646 101 653 c 2
 127 679 l 2
 130 682 138 688 148 688 c 2
 214 688 l 2
 218 688 227 687 234 680 c 2
 264 652 l 2
 268 648 274 640 274 629 c 2
 274 598 l 1xbd
245 18 m 1x9b
 245 322 l 1
 368 322 l 2
 378 322 385 317 389 313 c 2
 418 283 l 2
 425 276 426 266 426 262 c 2
 426 231 l 2
 426 221 421 213 418 210 c 2
 373 164 l 1
 423 63 l 2
 426 58 426 53 426 50 c 2
 426 18 l 1
 366 18 l 1
 366 43 l 1
 318 142 l 1
 305 142 l 1
 305 18 l 1
 245 18 l 1x9b
305 201 m 1
 325 201 l 1
 366 243 l 1
 366 251 l 1
 355 263 l 1
 305 262 l 1
 305 201 l 1
EndSplineSet
Validated: 1
EndChar

StartChar: dec_lf
Encoding: 1697 -1 286
Width: 540
VWidth: 0
Flags: W
HStem: 143 61<304 396> 266 60<304 426> 385 60<152 274>
VStem: 92 60<445 689> 244 60<22 143 204 266>
LayerCount: 2
Back
Fore
SplineSet
244 326 m 1
 426 326 l 1
 426 266 l 1
 304 266 l 1
 304 204 l 1
 396 204 l 1
 396 143 l 1
 304 143 l 1
 304 22 l 1
 244 22 l 1
 244 326 l 1
92 689 m 1
 152 689 l 1
 152 445 l 1
 274 445 l 1
 274 385 l 1
 92 385 l 1
 92 689 l 1
EndSplineSet
Validated: 1
EndChar

StartChar: dec_degree
Encoding: 1698 -1 287
Width: 540
VWidth: 0
Flags: W
HStem: 420 50<193.797 291.314> 604 50<193.797 291.314>
VStem: 126 50<488.261 585.954> 310 50<488.809 585.406>
LayerCount: 2
Back
Fore
SplineSet
176 537 m 0
 176 500 206 470 242 470 c 0
 279 470 310 500 310 537 c 0
 310 574 279 604 242 604 c 0
 206 604 176 574 176 537 c 0
126 537 m 0
 126 602 178 654 242 654 c 0
 307 654 360 602 360 537 c 0
 360 473 307 420 242 420 c 0
 178 420 126 473 126 537 c 0
EndSplineSet
Validated: 1
EndChar

StartChar: dec_plusminus
Encoding: 1699 -1 288
Width: 540
VWidth: 0
Flags: W
HStem: 109 62<61 488> 415 61<61 244 305 488> 639 20G<244 305>
VStem: 244 61<231 415 476 659>
LayerCount: 2
Back
Fore
SplineSet
244 659 m 1
 305 659 l 1
 305 476 l 1
 488 476 l 1
 488 415 l 1
 305 415 l 1
 305 231 l 1
 244 231 l 1
 244 415 l 1
 61 415 l 1
 61 476 l 1
 244 476 l 1
 244 659 l 1
61 171 m 1
 488 171 l 1
 488 109 l 1
 61 109 l 1
 61 171 l 1
EndSplineSet
Validated: 1
EndChar

StartChar: dec_nl
Encoding: 1700 -1 289
Width: 540
VWidth: 0
Flags: W
HStem: 19 60<305 428>
VStem: 92 60<385 537> 244 61<79 323 537 689>
LayerCount: 2
Back
Fore
SplineSet
92 689 m 1
 152 689 l 1
 244 537 l 1
 244 689 l 1
 305 689 l 1
 305 385 l 1
 246 386 l 1
 152 537 l 1
 152 385 l 1
 92 385 l 1
 92 689 l 1
244 323 m 1
 305 323 l 1
 305 79 l 1
 428 79 l 1
 428 19 l 1
 244 19 l 1
 244 323 l 1
EndSplineSet
Validated: 1
EndChar

StartChar: dec_vt
Encoding: 1701 -1 290
Width: 540
VWidth: 0
Flags: W
HStem: 262 61<244 305 366 428>
VStem: 91 60<517 690> 244 60<517 690> 305 61<19 262>
LayerCount: 2
Back
Fore
SplineSet
91 690 m 1
 151 690 l 1
 151 517 l 1
 198 462 l 1
 244 517 l 1
 244 690 l 1
 304 690 l 1
 304 506 l 2
 304 501 303 494 297 487 c 2
 220 396 l 1
 220 396 223 398 217 393 c 0
 212 389 205 385 197 385 c 0
 189 385 181 388 175 396 c 2
 98 487 l 2
 95 490 91 497 91 506 c 2
 91 690 l 1
244 323 m 1
 428 323 l 1
 428 262 l 1
 366 262 l 1
 366 19 l 1
 305 19 l 1
 305 262 l 1
 244 263 l 1
 244 323 l 1
EndSplineSet
Validated: 1
EndChar

StartChar: dec_lowerright
Encoding: 1702 -1 291
Width: 540
VWidth: 0
Flags: W
HStem: 294 60<13 203>
VStem: 246 60<396 780>
LayerCount: 2
Back
Fore
SplineSet
306 780 m 1
 306 384 l 0
 306 376 302 368 297 363 c 0
 237 303 l 0
 231 297 223 294 216 294 c 0
 13 294 l 1
 13 354 l 1
 203 354 l 1
 246 396 l 1
 246 780 l 1
 306 780 l 1
EndSplineSet
Validated: 1
EndChar

StartChar: dec_intersect
Encoding: 1706 -1 295
Width: 540
VWidth: 0
Flags: W
HStem: 293 61<0 244 305 536>
VStem: 244 61<-200 293 354 800>
LayerCount: 2
Back
Fore
SplineSet
244 800 m 1
 305 800 l 1
 305 354 l 1
 536 354 l 1
 536 293 l 1
 305 293 l 1
 305 -200 l 1
 244 -200 l 1
 244 293 l 1
 0 293 l 1
 0 354 l 1
 244 354 l 1
 244 800 l 1
EndSplineSet
Validated: 1
EndChar

StartChar: dec_hbar1
Encoding: 1707 -1 296
Width: 540
VWidth: 0
Flags: W
HStem: 659 61<0 536>
LayerCount: 2
Back
Fore
SplineSet
0 720 m 1
 536 720 l 1
 536 659 l 1
 0 659 l 1
 0 720 l 1
EndSplineSet
Validated: 1
EndChar

StartChar: dec_hbar2
Encoding: 1708 -1 297
Width: 540
VWidth: 0
Flags: W
HStem: 476 61<0 536>
LayerCount: 2
Back
Fore
SplineSet
0 537 m 1
 536 537 l 1
 536 476 l 1
 0 476 l 1
 0 537 l 1
EndSplineSet
Validated: 1
EndChar

StartChar: dec_hbar3
Encoding: 1709 -1 298
Width: 540
VWidth: 0
Flags: W
HStem: 293 61<0 536>
LayerCount: 2
Back
Fore
SplineSet
0 354 m 1
 536 354 l 1
 536 293 l 1
 0 293 l 1
 0 354 l 1
EndSplineSet
Validated: 1
EndChar

StartChar: dec_hbar4
Encoding: 1710 -1 299
Width: 540
VWidth: 0
Flags: W
HStem: 109 62<0 536>
LayerCount: 2
Back
Fore
SplineSet
0 171 m 1
 536 171 l 1
 536 109 l 1
 0 109 l 1
 0 171 l 1
EndSplineSet
Validated: 1
EndChar

StartChar: dec_hbar5
Encoding: 1711 -1 300
Width: 540
VWidth: 0
Flags: W
HStem: -73 60<0 536>
LayerCount: 2
Back
Fore
SplineSet
0 -13 m 1
 536 -13 l 1
 536 -73 l 1
 0 -73 l 1
 0 -13 l 1
EndSplineSet
Validated: 1
EndChar

StartChar: dec_leftjoin
Encoding: 1712 -1 301
Width: 540
VWidth: 0
Flags: W
HStem: 293 61<305 536>
VStem: 244 61<-200 293 354 800>
LayerCount: 2
Back
Fore
SplineSet
244 800 m 1
 305 800 l 1
 305 354 l 1
 536 354 l 1
 536 293 l 1
 305 293 l 1
 305 -200 l 1
 244 -200 l 1
 244 800 l 1
EndSplineSet
Validated: 1
EndChar

StartChar: dec_rightjoin
Encoding: 1713 -1 302
Width: 540
VWidth: 0
Flags: W
HStem: 293 61<0 244>
VStem: 244 61<-200 293 354 800>
LayerCount: 2
Back
Fore
SplineSet
244 800 m 1
 305 800 l 1
 305 -200 l 1
 244 -200 l 1
 244 293 l 1
 0 293 l 1
 0 354 l 1
 244 354 l 1
 244 800 l 1
EndSplineSet
Validated: 1
EndChar

StartChar: dec_bottomjoin
Encoding: 1714 -1 303
Width: 540
VWidth: 0
Flags: W
HStem: 293 61<0 244 305 536>
VStem: 244 61<354 799>
LayerCount: 2
Back
Fore
SplineSet
244 799 m 1
 305 799 l 1
 305 354 l 1
 536 354 l 1
 536 293 l 1
 0 293 l 1
 0 354 l 1
 244 354 l 1
 244 799 l 1
EndSplineSet
Validated: 1
EndChar

StartChar: dec_topjoin
Encoding: 1715 -1 304
Width: 540
VWidth: 0
Flags: W
HStem: 293 61<0 244 305 536>
VStem: 244 61<-199 293>
LayerCount: 2
Back
Fore
SplineSet
0 354 m 1
 536 354 l 1
 536 293 l 1
 305 293 l 1
 305 -199 l 1
 244 -199 l 1
 244 293 l 1
 0 293 l 1
 0 354 l 1
EndSplineSet
Validated: 1
EndChar

StartChar: dec_vbar
Encoding: 1716 -1 305
Width: 540
VWidth: 0
Flags: W
VStem: 244 61<-200 800>
LayerCount: 2
Back
Fore
SplineSet
244 800 m 1
 305 800 l 1
 305 -200 l 1
 244 -200 l 1
 244 800 l 1
EndSplineSet
Validated: 1
EndChar

StartChar: dec_notgreater
Encoding: 1717 -1 306
Width: 540
VWidth: 0
Flags: W
HStem: -73 60<92 458>
DStem2: 132 351 190 323 0.696955 0.717115<20.3442 368.11> 190 323 132 295 0.704203 -0.709999<0 340.584>
LayerCount: 2
Back
Fore
SplineSet
418 99 m 2
 423 93 426 85 426 77 c 0
 426 69 422 62 417 56 c 0
 412 50 404 47 396 46 c 0
 388 45 382 46 375 50 c 1
 132 295 l 1
 132 351 l 1
 374 600 l 1
 380 603 387 604 394 603 c 0
 401 602 407 599 412 594 c 0
 418 589 421 581 422 573 c 0
 423 565 422 558 418 551 c 1
 190 323 l 1
 418 99 l 2
92 -13 m 1
 458 -13 l 1
 458 -73 l 1
 92 -73 l 1
 92 -13 l 1
EndSplineSet
Validated: 1
EndChar

StartChar: dec_notless
Encoding: 1718 -1 307
Width: 540
VWidth: 0
Flags: W
HStem: -73 60<92 458>
DStem2: 182 598 138 549 0.704203 -0.709999<-16.4771 323.403> 139 97 183 48 0.695517 0.718509<-24.8642 321.703>
LayerCount: 2
Back
Fore
SplineSet
138 549 m 2
 133 555 131 563 131 571 c 0
 131 579 135 586 140 592 c 0
 145 598 152 602 160 603 c 0
 168 604 175 602 182 598 c 1
 425 353 l 1
 425 298 l 1
 183 48 l 1
 177 45 170 45 163 46 c 0
 156 47 150 49 145 54 c 0
 139 59 135 67 134 75 c 0
 133 83 135 90 139 97 c 1
 366 325 l 1
 138 549 l 2
92 -13 m 1
 458 -13 l 1
 458 -73 l 1
 92 -73 l 1
 92 -13 l 1
EndSplineSet
Validated: 1
EndChar

StartChar: dec_pi
Encoding: 1719 -1 308
Width: 540
VWidth: 0
Flags: W
HStem: 49 21G<104.462 154.5 366 428> 477 60<62 123 183 366 427 488>
VStem: 123 60<149 477> 366 62<49 476>
LayerCount: 2
Back
Fore
SplineSet
61 537 m 1
 488 537 l 1
 488 476 l 1
 427 476 l 1
 428 49 l 1
 366 49 l 1
 366 476 l 1
 183 477 l 1
 183 142 l 2
 183 139 182 134 180 129 c 2
 146 49 l 1
 92 75 l 1
 123 149 l 1
 123 477 l 1
 62 477 l 1
 61 537 l 1
EndSplineSet
Validated: 1
EndChar

StartChar: dec_notequal
Encoding: 1720 -1 309
Width: 540
VWidth: 0
Flags: W
HStem: 231 62<61 141 288 488> 354 61<60 264 410 487>
DStem2: 65 154 107 112 0.70617 0.708043<0 108.188 255.894 282.136 428.428 533.787>
LayerCount: 2
Back
Fore
SplineSet
107 112 m 1
 65 154 l 1
 141 231 l 1
 61 231 l 1
 61 293 l 1
 203 293 l 1
 264 354 l 1
 60 354 l 1
 60 415 l 1
 325 415 l 1
 442 532 l 1
 484 490 l 1
 410 415 l 1
 487 415 l 1
 487 354 l 1
 349 354 l 1
 288 293 l 1
 488 293 l 1
 488 231 l 1
 226 231 l 1
 107 112 l 1
EndSplineSet
Validated: 1
EndChar

StartChar: dec_periodcentered
Encoding: 1722 -1 311
Width: 540
VWidth: 0
Flags: W
HStem: 231 123<184 305>
VStem: 184 121<231 354>
LayerCount: 2
Back
Fore
SplineSet
184 354 m 1
 305 354 l 1
 305 231 l 1
 184 231 l 1
 184 354 l 1
EndSplineSet
Validated: 1
EndChar

StartChar: quotesingle
Encoding: 38 39 312
Width: 540
VWidth: 0
Flags: W
HStem: 476 183<244 305>
VStem: 244 61<476 659>
LayerCount: 2
Fore
SplineSet
244 659 m 1
 305 659 l 1
 305 476 l 1
 244 476 l 1
 244 659 l 1
EndSplineSet
Validated: 1
EndChar

StartChar: uni00AD
Encoding: 172 173 313
Width: 540
VWidth: 0
Flags: W
HStem: 293 61<122 428>
VStem: 122 306<293 354>
LayerCount: 2
Fore
SplineSet
122 354 m 1
 428 354 l 1
 428 293 l 1
 122 293 l 1
 122 354 l 1
EndSplineSet
Validated: 1
EndChar

StartChar: uni00B5
Encoding: 180 181 314
Width: 540
VWidth: 0
Flags: W
HStem: 51 58<156 317 433 482> 456 20G<56 113 359 419>
VStem: 56 57<-134 68 150 476> 359 60<153 476>
LayerCount: 2
Fore
SplineSet
56 476 m 1
 113 476 l 1
 113 150 l 1
 156 109 l 1
 317 109 l 1
 359 153 l 1
 359 476 l 1
 419 476 l 1
 419 141 l 2
 419 138 417 134 415 129 c 1
 433 109 l 1
 482 109 l 1
 482 51 l 1
 421 51 l 2
 411 51 403 55 400 59 c 2
 374 84 l 1
 350 60 l 2
 347 57 339 51 329 51 c 2
 144 51 l 2
 139 51 131 52 124 59 c 2
 115 68 l 1
 115 -134 l 1
 56 -134 l 1
 56 476 l 1
EndSplineSet
Validated: 1
EndChar

StartChar: divide
Encoding: 246 247 315
Width: 540
VWidth: 0
Flags: W
HStem: 79 122<207 329> 293 61<54 481> 445 122<207 329>
VStem: 207 122<79 201 445 567>
LayerCount: 2
Fore
SplineSet
207 567 m 1
 329 567 l 1
 329 445 l 1
 207 445 l 1
 207 567 l 1
54 354 m 1
 481 354 l 1
 481 293 l 1
 54 293 l 1
 54 354 l 1
207 201 m 1
 329 201 l 1
 329 79 l 1
 207 79 l 1
 207 201 l 1
EndSplineSet
Validated: 1
EndChar

StartChar: ordmasculine
Encoding: 185 186 320
Width: 540
VWidth: 0
Flags: W
HStem: 49 60<54 422> 174 57<157 318> 539 58<157 319>
VStem: 54 60<273 495> 358 60<273 495>
LayerCount: 2
Fore
SplineSet
114 495 m 1
 114 273 l 1
 157 231 l 1
 318 231 l 1
 358 273 l 1
 358 495 l 1
 319 539 l 1
 157 539 l 1
 114 495 l 1
64 528 m 2
 125 589 l 2
 132 596 141 597 145 597 c 2
 332 597 l 2
 342 597 350 592 354 588 c 2
 410 525 l 2
 416 519 418 511 418 506 c 2
 418 261 l 2
 418 251 412 243 409 240 c 2
 351 181 l 2
 344 173 335 174 330 174 c 2
 145 174 l 2
 136 174 129 178 125 181 c 2
 63 239 l 2
 55 246 54 255 54 261 c 2
 54 508 l 2
 54 518 61 525 64 528 c 2
54 109 m 1
 422 109 l 1
 422 49 l 1
 54 49 l 1
 54 109 l 1
EndSplineSet
Validated: 1
EndChar

StartChar: Abreve
Encoding: 257 258 323
Width: 540
VWidth: 0
Flags: W
HStem: 49 21G<57 116 420 480> 232 61<117 420> 597 21G<264.5 272.5>
VStem: 57 59<49 232 293 312> 420 60<49 232 293 312>
DStem2: 66 346 117 312 0.705145 0.709063<11.8543 225.404> 288 527 267 464 0.709041 -0.705167<29.5356 245.204>
LayerCount: 2
Fore
SplineSet
186 710 m 0
 192 716 200 719 206 719 c 0
 215 719 223 715 228 710 c 2
 269 669 l 1
 311 710 l 2
 317 716 325 719 331 719 c 0
 348 719 362 704 362 688 c 0
 362 681 360 674 353 667 c 2
 290 605 l 2
 285 600 277 597 268 597 c 0
 261 597 254 599 248 605 c 2
 186 667 l 2
 181 672 177 680 177 689 c 0
 177 696 180 704 186 710 c 0
116 232 m 1
 116 49 l 1
 57 49 l 1
 57 325 l 2
 57 335 63 343 66 346 c 2
 246 527 l 2
 252 533 260 536 266 536 c 0
 275 536 283 532 288 527 c 2
 471 345 l 2
 478 338 480 329 480 324 c 2
 480 49 l 1
 420 49 l 1
 420 232 l 1
 116 232 l 1
117 293 m 1
 420 293 l 1
 420 312 l 1
 267 464 l 1
 117 312 l 1
 117 293 l 1
EndSplineSet
Validated: 1
EndChar

StartChar: abreve
Encoding: 258 259 324
Width: 540
VWidth: 0
Flags: W
HStem: 49 58<158 360 420 481> 234 58<159 360> 415 59<115 319> 639 20G<201 208.5 326 333.5>
VStem: 57 59<153 190> 360 60<109 234 292 373>
DStem2: 267 609 246 546 0.707107 -0.707107<-79.6032 0>
LayerCount: 2
Fore
SplineSet
184 650 m 0
 190 656 198 659 204 659 c 0
 213 659 221 655 226 650 c 2
 267 609 l 1
 309 650 l 2
 315 656 323 659 329 659 c 0
 338 659 346 655 351 650 c 0
 356 645 360 637 360 628 c 0
 360 622 357 614 351 608 c 2
 288 546 l 2
 283 541 275 537 266 537 c 0
 259 537 252 540 246 546 c 2
 184 608 l 2
 179 613 175 621 175 630 c 0
 175 636 178 644 184 650 c 0
360 109 m 1
 360 234 l 1
 159 234 l 1
 116 190 l 1
 116 153 l 1
 158 110 l 1
 360 109 l 1
420 107 m 1
 481 107 l 1
 481 49 l 1
 145 49 l 2
 135 49 127 58 124 61 c 2
 66 121 l 2
 59 128 57 138 57 142 c 2
 57 202 l 2
 57 212 63 220 66 223 c 2
 125 284 l 2
 132 291 141 292 146 292 c 2
 360 292 l 1
 360 373 l 1
 319 415 l 1
 115 415 l 1
 115 474 l 1
 331 474 l 2
 341 474 349 468 352 465 c 2
 411 405 l 2
 418 398 420 390 420 385 c 2
 420 107 l 1
EndSplineSet
Validated: 1
EndChar

StartChar: dcroat
Encoding: 272 273 329
Width: 540
VWidth: 0
Flags: W
HStem: 51 58<220 360> 416 59<217 360> 530 61<215 360 420 467> 639 20G<360 420>
VStem: 55 59<213 312> 360 60<109 416 475 530 591 659>
DStem2: 64 345 114 312 0.704167 0.710035<11.7772 158.15> 114 213 64 180 0.712879 -0.701287<0 148.499>
LayerCount: 2
Fore
SplineSet
360 109 m 1
 360 416 l 1
 217 416 l 1
 114 312 l 1
 114 213 l 1
 220 109 l 1
 360 109 l 1
420 51 m 1
 208 51 l 2
 204 51 194 52 187 59 c 2
 64 180 l 2
 61 183 55 191 55 201 c 2
 55 324 l 2
 55 329 57 338 64 345 c 2
 184 466 l 2
 187 469 194 475 204 475 c 2
 360 475 l 1
 360 530 l 1
 215 530 l 1
 215 591 l 1
 360 591 l 1
 360 659 l 1
 420 659 l 1
 420 591 l 1
 467 591 l 1
 467 530 l 1
 420 530 l 1
 420 51 l 1
EndSplineSet
Validated: 1
EndChar

StartChar: Dcroat
Encoding: 271 272 330
Width: 540
VWidth: 0
Flags: W
HStem: 49 61<54 115 176 317> 297 61<55 115 176 237> 538 59<54 115 176 317>
VStem: 115 61<110 297 358 538> 420 60<213 433>
DStem2: 351 588 317 538 0.701239 -0.712926<11.8042 158.889> 317 110 350 59 0.710035 0.704167<0 145.663>
LayerCount: 2
Fore
SplineSet
115 538 m 1
 54 538 l 1
 54 597 l 1
 330 597 l 2
 340 597 348 592 351 588 c 2
 471 466 l 2
 478 459 480 450 480 445 c 2
 480 201 l 2
 480 191 475 183 471 179 c 2
 350 59 l 2
 343 52 334 49 329 49 c 2
 54 49 l 1
 54 109 l 1
 115 109 l 1
 115 297 l 1
 55 297 l 1
 55 358 l 1
 115 358 l 1
 115 538 l 1
176 110 m 1
 317 110 l 1
 420 213 l 1
 420 433 l 1
 317 538 l 1
 176 538 l 1
 176 358 l 1
 237 358 l 1
 237 297 l 1
 176 297 l 1
 176 110 l 1
EndSplineSet
Validated: 1
EndChar

StartChar: Ebreve
Encoding: 275 276 333
Width: 540
VWidth: 0
Flags: W
HStem: 49 60<115 481> 231 62<115 359> 476 61<115 481> 601 58<207.315 317.468>
VStem: 54 61<109 231 293 476> 119 58<689.155 749> 351 60<692.575 749>
LayerCount: 2
Fore
SplineSet
113 749 m 1
 173 749 l 1
 174 741 175 734 177 726 c 0
 179 718 182 711 186 704 c 0
 190 697 195 693 200 688 c 0
 206 682 212 676 219 672 c 0
 226 668 233 666 241 664 c 0
 248 662 256 659 263 659 c 0
 271 659 279 662 286 664 c 0
 293 666 300 669 307 673 c 0
 314 677 320 683 325 688 c 0
 330 693 335 698 339 705 c 0
 343 712 346 721 348 729 c 0
 350 736 351 742 351 749 c 1
 411 749 l 1
 411 736 410 723 406 711 c 0
 402 699 397 687 391 676 c 0
 385 665 377 654 368 645 c 0
 359 636 349 628 338 622 c 0
 327 616 315 611 302 607 c 0
 290 604 278 601 265 601 c 0
 252 601 239 602 226 605 c 0
 213 608 201 614 190 620 c 0
 179 626 168 634 158 643 c 0
 149 652 140 662 134 673 c 0
 127 684 122 696 119 709 c 0
 116 721 113 736 113 749 c 1
  Spiro
    113 747 v
    173 749 v
    177 726 o
    186 704 o
    200 686 o
    219 672 o
    241 664 o
    263 661 o
    286 664 o
    307 673 o
    325 687 o
    339 705 o
    348 727 o
    351 749 v
    411 749 v
    406 711 o
    391 676 o
    368 645 o
    338 622 o
    302 607 o
    265 601 o
    226 605 o
    190 620 o
    158 643 o
    134 673 o
    119 709 o
    0 0 z
  EndSpiro
54 537 m 1
 481 537 l 1
 481 476 l 1
 115 476 l 1
 115 293 l 1
 359 293 l 1
 359 231 l 1
 115 231 l 1
 115 109 l 1
 481 109 l 1
 481 49 l 1
 54 49 l 1
 54 537 l 1
EndSplineSet
Validated: 1
EndChar

StartChar: Gbreve
Encoding: 285 286 343
Width: 540
VWidth: 0
Flags: W
HStem: 51 60<218 359> 232 61<237 359 419 482> 498 60<218 318> 597 21G<264.5 272.5>
VStem: 56 60<212 395> 359 60<111 232>
DStem2: 64 428 116 395 0.704167 0.710035<13.1855 158.144> 116 212 65 178 0.710059 -0.704142<0 143.544>
LayerCount: 2
Fore
SplineSet
186 710 m 0
 192 716 200 719 206 719 c 0
 215 719 223 715 228 710 c 2
 269 669 l 1
 311 710 l 2
 317 716 324 719 331 719 c 0
 340 719 348 715 353 709 c 0
 358 704 362 696 362 687 c 0
 362 681 359 673 353 667 c 2
 290 605 l 2
 285 600 277 597 268 597 c 0
 261 597 254 599 248 605 c 2
 186 667 l 2
 181 672 177 680 177 689 c 0
 177 696 180 704 186 710 c 0
237 293 m 1
 482 293 l 1
 482 232 l 1
 419 232 l 1
 419 80 l 2
 419 69 409 51 388 51 c 2
 206 51 l 2
 201 51 192 52 185 59 c 2
 65 178 l 2
 62 181 56 189 56 199 c 2
 56 407 l 2
 56 412 57 421 64 428 c 2
 184 549 l 2
 187 553 195 558 205 558 c 2
 330 558 l 2
 335 558 345 556 352 549 c 2
 412 488 l 1
 369 446 l 1
 318 498 l 1
 218 498 l 1
 116 395 l 1
 116 212 l 1
 218 111 l 1
 359 111 l 1
 359 232 l 1
 237 232 l 1
 237 293 l 1
EndSplineSet
Validated: 1
EndChar

StartChar: gbreve
Encoding: 286 287 344
Width: 540
VWidth: 0
Flags: W
HStem: -72 60<219 380> 109 62<219 315> 171 60<400 422> 417 60<219 377> 597 21G<264.5 272.5>
VStem: 55 60<272 313> 422 60<30 171 231 375>
DStem2: 64 347 115 313 0.715853 0.698251<12.768 159.835> 115 272 64 238 0.712926 -0.701239<0 144.969>
LayerCount: 2
Fore
SplineSet
186 710 m 0x9e
 192 716 200 719 206 719 c 0
 215 719 223 715 228 710 c 2
 269 669 l 1
 311 710 l 2
 317 716 324 719 331 719 c 0
 340 719 348 715 353 709 c 0
 358 704 362 696 362 687 c 0
 362 681 359 673 353 667 c 2
 290 605 l 2
 285 600 277 597 268 597 c 0
 261 597 254 599 248 605 c 2
 186 667 l 2
 181 672 177 680 177 689 c 0
 177 696 180 704 186 710 c 0x9e
422 231 m 1xbe
 422 375 l 1
 377 417 l 1
 219 417 l 1
 115 313 l 1
 115 272 l 1
 219 171 l 1
 315 171 l 1xde
 366 222 l 2
 372 228 379 231 387 231 c 2
 422 231 l 1xbe
422 171 m 1xbe
 400 171 l 1xbe
 349 120 l 2
 344 114 337 109 328 109 c 2
 207 109 l 2xde
 199 109 192 112 186 118 c 2
 64 238 l 2
 58 244 55 251 55 259 c 2
 55 326 l 2
 55 335 58 342 64 347 c 2
 186 466 l 2
 192 472 199 477 207 477 c 2
 389 477 l 2
 397 477 404 475 410 470 c 2
 473 410 l 2
 479 404 482 397 482 388 c 2
 482 18 l 2
 482 10 478 3 473 -3 c 2
 415 -63 l 2
 409 -69 402 -72 393 -72 c 2
 207 -72 l 2
 199 -72 192 -69 186 -63 c 2
 125 -3 l 1
 167 39 l 1
 219 -12 l 1
 380 -12 l 1
 422 30 l 1
 422 171 l 1xbe
EndSplineSet
Validated: 1
EndChar

StartChar: gcommaaccent
Encoding: 290 291 348
Width: 540
VWidth: 0
Flags: W
HStem: -181 57<113 194> -72 60<219 235 293 380> 109 62<219 315> 171 60<400 422> 417 60<219 377>
VStem: 55 60<272 313> 235 58<-81 -72 -12 60> 422 60<30 171 231 375>
DStem2: 64 347 115 313 0.715853 0.698251<12.768 159.835> 115 272 64 238 0.712926 -0.701239<0 144.969>
LayerCount: 2
Fore
SplineSet
422 171 m 1xdf
 400 171 l 1xdf
 349 120 l 2
 344 114 337 109 328 109 c 2
 207 109 l 2xef
 199 109 192 112 186 118 c 2
 64 238 l 2
 58 244 55 251 55 259 c 2
 55 326 l 2
 55 335 58 342 64 347 c 2
 186 466 l 2
 192 472 199 477 207 477 c 2
 389 477 l 2
 397 477 404 475 410 470 c 2
 473 410 l 2
 479 404 482 397 482 388 c 2
 482 18 l 2
 482 10 478 3 473 -3 c 2
 415 -63 l 2
 409 -69 402 -72 393 -72 c 2
 293 -72 l 1
 293 -92 l 2
 293 -100 290 -106 285 -112 c 2
 226 -172 l 2
 220 -178 214 -181 206 -181 c 2
 113 -181 l 1
 113 -124 l 1
 194 -124 l 1
 235 -81 l 1
 235 -72 l 1
 207 -72 l 2
 199 -72 192 -69 186 -63 c 2
 125 -3 l 1
 167 39 l 1
 219 -12 l 1
 235 -12 l 1
 235 60 l 1
 293 60 l 1
 293 -12 l 1
 380 -12 l 1
 422 30 l 1
 422 171 l 1xdf
422 231 m 1
 422 375 l 1
 377 417 l 1
 219 417 l 1
 115 313 l 1
 115 272 l 1
 219 171 l 1
 315 171 l 1xef
 366 222 l 2
 372 228 379 231 387 231 c 2
 422 231 l 1
EndSplineSet
Validated: 1
EndChar

StartChar: uniFF5D
Encoding: 1374 65373 517
Width: 540
VWidth: 0
Flags: W
HStem: -12 60<119 197> 294 60<344 380> 601 60<119 197>
VStem: 242 60<92 251 398 557>
LayerCount: 2
Fore
SplineSet
209 661 m 2
 211 661 213 660 214 660 c 0
 215 660 217 659 218 659 c 0
 219 659 221 658 222 658 c 0
 223 658 225 657 226 656 c 0
 227 655 227 655 228 654 c 0
 229 653 229 653 230 652 c 2
 293 591 l 2
 294 590 295 588 296 587 c 0
 297 586 298 585 299 583 c 0
 300 581 300 578 301 576 c 0
 301 575 302 574 302 573 c 0
 302 572 302 570 302 569 c 2
 302 398 l 1
 344 354 l 1
 380 354 l 1
 380 294 l 1
 344 294 l 1
 302 251 l 1
 302 79 l 2
 302 78 302 77 302 76 c 0
 302 75 301 74 301 73 c 0
 301 72 300 70 300 69 c 0
 300 68 300 66 299 65 c 0
 298 64 297 62 296 61 c 0
 295 60 294 59 293 58 c 2
 230 -3 l 2
 229 -4 229 -4 228 -5 c 0
 227 -6 227 -6 226 -7 c 0
 225 -8 223 -9 222 -9 c 0
 221 -9 219 -10 218 -10 c 0
 217 -10 215 -11 214 -11 c 0
 213 -11 211 -12 209 -12 c 2
 119 -12 l 1
 119 48 l 1
 197 48 l 1
 242 92 l 1
 242 263 l 2
 242 265 242 266 242 268 c 0
 242 270 242 271 243 272 c 0
 244 273 244 274 245 275 c 0
 246 276 246 278 247 279 c 0
 247 280 248 281 248 282 c 0
 248 283 249 283 250 284 c 2
 289 324 l 1
 250 365 l 2
 249 366 248 366 248 367 c 0
 248 368 247 369 247 370 c 0
 246 371 246 373 245 374 c 0
 244 375 244 376 243 377 c 0
 242 378 242 379 242 381 c 0
 242 383 242 384 242 386 c 2
 242 557 l 1
 197 601 l 1
 119 601 l 1
 119 661 l 1
 209 661 l 2
  Spiro
    209 661 ]
    210.961 660.741 o
    212.705 660.259 o
    214 660 o
    215.258 659.741 o
    216.742 659.259 o
    218 659 o
    219.258 658.741 o
    220.742 658.259 o
    222 658 o
    223.258 657.704 o
    224.742 656.962 o
    226 656 o
    228 654 o
    230 652 v
    293 591 ]
    293.999 589.742 o
    295.001 588.258 o
    296 587 o
    296.999 585.964 o
    298.001 584.702 o
    299 583 o
    299.74 580.743 o
    300.26 578.257 o
    301 576 o
    301.259 575.001 o
    301.741 573.999 o
    302 573 o
    302 569 v
    302 398 v
    344 354 v
    380 354 v
    380 294 v
    344 294 v
    302 251 v
    302 79 v
    302 76 o
    301.741 75.001 o
    301.259 73.999 o
    301 73 o
    300.741 71.7422 o
    300.259 70.2578 o
    300 69 o
    299.963 67.7422 o
    299.703 66.2578 o
    299 65 o
    298.001 63.7422 o
    296.999 62.2578 o
    296 61 o
    293 58 v
    230 -3 v
    228 -5 o
    226 -7 o
    224.742 -7.96207 o
    223.258 -8.70426 o
    222 -9 o
    220.742 -9.25881 o
    219.258 -9.74119 o
    218 -10 o
    216.742 -10.2588 o
    215.258 -10.7412 o
    214 -11 o
    212.705 -11.2588 o
    210.961 -11.7412 o
    209 -12 [
    119 -12 v
    119 48 v
    197 48 v
    242 92 v
    242 263 v
    242 268 o
    242.037 269.702 o
    242.297 270.964 o
    243 272 o
    243.74 272.999 o
    244.26 274.001 o
    245 275 o
    245.74 276.258 o
    246.26 277.742 o
    247 279 o
    247.259 279.999 o
    247.741 281.001 o
    248 282 o
    248.296 282.74 o
    249.038 283.26 o
    250 284 [
    289 324 v
    250 365 ]
    249.038 365.74 o
    248.296 366.26 o
    248 367 o
    247.741 367.999 o
    247.259 369.001 o
    247 370 o
    246.26 371.258 o
    245.74 372.742 o
    245 374 o
    244.26 374.999 o
    243.74 376.001 o
    243 377 o
    242.297 378.036 o
    242.037 379.298 o
    242 381 o
    242 386 v
    242 557 v
    197 601 v
    119 601 v
    119 661 v
    0 0 z
  EndSpiro
EndSplineSet
Validated: 1
EndChar

StartChar: uniFF61
Encoding: 1378 65377 521
Width: 540
VWidth: 0
Flags: W
HStem: 26 46<200 276> 148 46<200 276>
VStem: 154 46<72 148> 276 44<72 148>
LayerCount: 2
Fore
SplineSet
200 148 m 1
 200 72 l 1
 276 72 l 1
 276 148 l 1
 200 148 l 1
177 194 m 2
 298 194 l 0
 310 194 320 183 320 171 c 0
 320 49 l 0
 320 37 310 26 298 26 c 0
 177 26 l 0
 165 26 154 37 154 49 c 0
 154 171 l 0
 154 183 165 194 177 194 c 2
EndSplineSet
Validated: 1
EndChar

StartChar: uniFFE2
Encoding: 1385 65506 528
Width: 540
VWidth: 0
Flags: W
HStem: 411 60<55 420>
VStem: 420 62<306 411>
LayerCount: 2
Fore
SplineSet
482 306 m 25
 420 306 l 25
 420 411 l 25
 55 411 l 25
 55 471 l 25
 482 471 l 25
 482 306 l 25
EndSplineSet
Validated: 1
EndChar

StartChar: uniFFE3
Encoding: 1386 65507 529
Width: 540
VWidth: 0
Flags: W
HStem: 598 61<19 523>
LayerCount: 2
Fore
SplineSet
19 659 m 1
 523 659 l 1
 523 598 l 1
 19 598 l 1
 19 659 l 1
EndSplineSet
Validated: 1
EndChar

StartChar: uniFFE6
Encoding: 1389 65510 532
Width: 540
VWidth: 0
UnlinkRmOvrlpSave: 1
Flags: W
HStem: 48 21G<181 188.5 346.5 354> 244 56<60 476> 411 56<60 476> 577 20G<95 155 381 441>
VStem: 95 60<150 597> 237 60<213 352> 381 60<151 598>
LayerCount: 2
Fore
SplineSet
266 157 m 1
 206 57 l 2
 201 50 192 48 185 48 c 0
 177 48 170 51 164 57 c 2
 104 117 l 2
 98 123 95 130 95 138 c 2
 95 597 l 1
 155 597 l 1
 155 150 l 1
 185 121 l 1
 237 213 l 1
 237 352 l 1
 297 352 l 1
 297 211 l 1
 350 121 l 1
 381 151 l 1
 381 598 l 1
 441 598 l 1
 441 138 l 2
 441 129 438 122 432 116 c 2
 371 57 l 2
 365 52 358 49 350 49 c 0
 343 49 334 51 329 58 c 2
 266 157 l 1
EndSplineSet
Refer: 17 61 N 1 0 0 1 0 0 2
Validated: 5
EndChar

StartChar: uniFFE9
Encoding: 1392 65513 535
Width: 540
VWidth: 0
Flags: W
HStem: 293 61<230 435> 456 20G<206.34 230>
LayerCount: 2
Fore
SplineSet
230 476 m 1
 230 354 l 1
 435 354 l 1
 435 293 l 1
 230 293 l 1
 230 171 l 1
 49 323 l 1
 230 476 l 1
EndSplineSet
Validated: 1
EndChar

StartChar: uniFFEA
Encoding: 1393 65514 536
Width: 540
VWidth: 0
Flags: W
VStem: 212 60<130 336>
LayerCount: 2
Fore
SplineSet
394 336 m 1
 272 336 l 1
 272 130 l 1
 212 130 l 1
 212 336 l 1
 90 336 l 1
 242 516 l 1
 394 336 l 1
EndSplineSet
Validated: 1
EndChar

StartChar: uniFFEB
Encoding: 1394 65515 537
Width: 540
VWidth: 0
Flags: W
HStem: 293 61<149 354> 456 20G<354 377.66>
LayerCount: 2
Fore
SplineSet
354 476 m 1
 535 323 l 1
 354 171 l 1
 354 293 l 1
 149 293 l 1
 149 354 l 1
 354 354 l 1
 354 476 l 1
EndSplineSet
Validated: 1
EndChar

StartChar: uniFFEC
Encoding: 1395 65516 538
Width: 540
VWidth: 0
Flags: W
VStem: 212 60<312 516>
LayerCount: 2
Fore
SplineSet
90 312 m 1
 212 312 l 1
 212 516 l 1
 272 516 l 1
 272 312 l 1
 394 312 l 1
 242 130 l 1
 90 312 l 1
EndSplineSet
Validated: 1
EndChar

StartChar: uniFFED
Encoding: 1396 65517 539
Width: 540
VWidth: 0
Flags: W
HStem: 294 216<162 372>
VStem: 162 210<294 510>
LayerCount: 2
Fore
SplineSet
162 510 m 1
 372 510 l 1
 372 294 l 1
 162 294 l 1
 162 510 l 1
EndSplineSet
Validated: 1
EndChar

StartChar: uniFFEE
Encoding: 1397 65518 540
Width: 540
VWidth: 0
Flags: W
HStem: 239 50<210.834 336.738> 515 50<210.834 336.738>
VStem: 114 50<334.533 469.467> 384 50<335.629 468.371>
LayerCount: 2
Fore
SplineSet
164 402 m 0
 164 339 213 289 274 289 c 0
 334 289 384 339 384 402 c 0
 384 465 334 515 274 515 c 0
 213 515 164 465 164 402 c 0
114 402 m 0
 114 492 185 565 274 565 c 0
 362 565 434 492 434 402 c 0
 434 312 362 239 274 239 c 0
 185 239 114 312 114 402 c 0
EndSplineSet
Validated: 1
EndChar

StartChar: uniFFFC
Encoding: 1398 65532 541
Width: 540
VWidth: 0
Flags: W
HStem: -2 50<349 385> 241 50<190 196 246 262> 317 50<246 260> 388 50<190 196 246 260> 497 50<148 196> 641 50<148 196>
VStem: 98 50<547 641> 196 50<291 317 367 388 547 641> 286 50<60 97> 398 50<60 191>
LayerCount: 2
Fore
SplineSet
398 191 m 1
 448 191 l 1
 448 49 l 0
 448 42 445 34 440 30 c 0
 411 4 l 0
 406 0 400 -2 394 -2 c 0
 340 -2 l 0
 334 -2 328 1 323 5 c 0
 294 31 l 0
 289 36 286 43 286 49 c 0
 286 97 l 1
 336 97 l 1
 336 60 l 1
 349 48 l 1
 385 48 l 1
 398 60 l 1
 398 191 l 1
124 691 m 2
 222 691 l 0
 236 691 246 680 246 666 c 0
 246 522 l 0
 246 508 236 497 222 497 c 0
 124 497 l 0
 110 497 98 508 98 522 c 0
 98 666 l 0
 98 680 110 691 124 691 c 2
148 641 m 1
 148 547 l 1
 196 547 l 1
 196 641 l 1
 148 641 l 1
190 388 m 1
 190 438 l 1
 270 438 l 2
 276 438 282 436 286 432 c 2
 328 396 l 2
 334 391 336 385 336 378 c 0
 336 370 332 362 326 358 c 2
 308 341 l 1
 328 322 l 2
 334 317 336 310 336 303 c 0
 336 297 333 290 328 286 c 2
 290 248 l 2
 285 243 277 241 272 241 c 2
 190 241 l 1
 190 291 l 1
 196 291 l 1
 196 388 l 1
 190 388 l 1
246 291 m 1
 262 291 l 1
 274 303 l 1
 260 317 l 1
 246 317 l 1
 246 291 l 1
246 388 m 1
 246 367 l 1
 260 367 l 1
 272 377 l 1
 260 388 l 1
 246 388 l 1
EndSplineSet
Validated: 1
EndChar

StartChar: uniFFFD
Encoding: 1399 65533 542
Width: 540
VWidth: 0
Flags: W
HStem: 79 79<236.969 279.903> 208 40<228.14 277.86> 478 89<236.969 299.031>
DStem2: 247 558 177 441 0.707107 0.707107<-158.856 -63.2861> 289 558 336 471 0.707107 -0.707107<70.9758 162.524>
LayerCount: 2
Fore
SplineSet
210 368 m 2
 215 368 220 373 220 378 c 0
 220 413 l 1
 236 429 l 1
 307 429 l 1
 324 413 l 1
 324 403 l 1
 236 322 l 1
 230 317 228 310 228 304 c 0
 228 258 l 0
 228 253 233 248 238 248 c 0
 268 248 l 0
 273 248 278 253 278 258 c 0
 278 293 l 1
 366 375 l 1
 370 379 374 385 374 393 c 0
 374 423 l 0
 374 429 372 435 367 440 c 0
 336 471 l 0
 331 476 324 478 318 478 c 0
 226 478 l 0
 222 478 215 478 209 472 c 1
 177 441 l 1
 173 437 170 431 170 424 c 0
 170 378 l 0
 170 373 175 368 180 368 c 0
 210 368 l 2
236 208 m 2
 231 208 226 203 226 198 c 0
 226 168 l 0
 226 163 231 158 236 158 c 0
 270 158 l 0
 275 158 280 163 280 168 c 0
 280 198 l 0
 280 203 275 208 270 208 c 0
 236 208 l 2
33 344 m 2
 247 558 l 2
 253 564 260 567 268 567 c 0
 276 567 283 564 289 558 c 2
 503 344 l 2
 509 338 512 330 512 323 c 0
 512 316 509 308 503 302 c 2
 289 88 l 2
 283 82 276 79 268 79 c 0
 260 79 253 82 247 88 c 2
 33 302 l 2
 27 308 24 316 24 323 c 0
 24 330 27 338 33 344 c 2
EndSplineSet
Validated: 1
EndChar

StartChar: uni2B60
Encoding: 1245 11104 544
Width: 540
VWidth: 2048
Flags: W
VStem: 130 60<61 240 387 751> 302 60<404 552>
DStem2: 142 279 190 240 0.788024 0.615644<13.8151 203.039>
LayerCount: 2
Fore
SplineSet
130 751 m 1
 190 751 l 1
 190 387 l 1
 130 387 l 1
 130 751 l 1
190 61 m 1
 130 61 l 1
 130 255 l 2
 130 265 136 274 142 279 c 2
 302 404 l 1
 302 552 l 1
 256 552 l 1
 332 732 l 1
 408 552 l 1
 362 552 l 1
 362 389 l 2
 362 382 358 371 350 365 c 2
 190 240 l 1
 190 61 l 1
EndSplineSet
Validated: 1
EndChar

StartChar: uni2B61
Encoding: 1246 11105 545
Width: 540
VWidth: 0
Flags: W
HStem: 387 60<153 276>
VStem: 92 61<447 691> 244 60<19 171> 396 61<171 323>
LayerCount: 2
Fore
SplineSet
244 323 m 1
 304 323 l 1
 396 171 l 1
 396 323 l 1
 457 323 l 1
 457 19 l 1
 396 19 l 1
 304 171 l 1
 304 19 l 1
 244 19 l 1
 244 323 l 1
92 691 m 1
 153 691 l 1
 153 447 l 1
 276 447 l 1
 276 387 l 1
 92 387 l 1
 92 691 l 1
EndSplineSet
Validated: 1
EndChar

StartChar: uni2B62
Encoding: 1247 11106 546
Width: 540
VWidth: 2048
Flags: W
HStem: 250 45<204 260> 342 45<304 350> 430 40<260 350> 513 45<204 378>
VStem: 158 46<295 513> 260 44<295 342> 350 28<387 430>
LayerCount: 2
Fore
SplineSet
204 558 m 2
 378 558 l 1
 378 513 l 1
 204 513 l 1
 204 295 l 1
 260 295 l 1
 260 387 l 1
 350 387 l 1
 350 430 l 1
 260 430 l 1
 260 470 l 1
 378 470 l 1
 378 352 l 1
 375 349 370 347 364 345 c 0
 358 343 354 342 350 342 c 2
 304 342 l 1
 304 295 l 2
 304 283 301 272 292 263 c 0
 283 254 272 250 260 250 c 2
 204 250 l 2
 192 250 181 254 172 263 c 0
 163 272 158 283 158 295 c 2
 158 513 l 2
 158 525 163 536 172 545 c 0
 181 554 192 558 204 558 c 2
EndSplineSet
Validated: 1
EndChar

StartChar: uni2B63
Encoding: 1248 11107 547
Width: 540
VWidth: 2048
Flags: W
HStem: 250 45<204 260> 426 44<306 332> 513 45<158 332>
VStem: 158 46<295 470> 260 46<295 426> 332 46<470 513>
LayerCount: 2
Fore
SplineSet
158 558 m 1
 332 558 l 2
 344 558 355 554 364 545 c 0
 373 536 378 525 378 513 c 2
 378 470 l 2
 378 458 373 448 364 439 c 0
 355 430 344 426 332 426 c 2
 306 426 l 1
 306 295 l 2
 306 283 301 272 292 263 c 0
 283 254 272 250 260 250 c 2
 204 250 l 2
 192 250 181 254 172 263 c 0
 163 272 158 283 158 295 c 2
 158 352 l 1
 158 470 l 1
 204 470 l 1
 204 295 l 1
 260 295 l 1
 260 470 l 1
 332 470 l 1
 332 513 l 1
 158 513 l 1
 158 558 l 1
EndSplineSet
Validated: 1
EndChar

StartChar: uni2B64
Encoding: 1249 11108 548
Width: 540
VWidth: 2048
Flags: W
HStem: 214 79<242.723 293.284> 393 40<243.284 292.716> 553 40<237.162 297.857>
VStem: 128 110<295.188 391.479> 188 40<433 548.356> 298 110<295.278 391.479> 308 40<433 539.765>
LayerCount: 2
Fore
SplineSet
268 593 m 0xf0
 279 593 289 592 298 588 c 0xf4
 307 584 313 580 319 574 c 0
 325 568 329 560 333 553 c 0
 337 546 340 540 342 533 c 0
 344 526 345 519 346 513 c 0
 347 507 348 503 348 499 c 1
 348 494 l 1
 348 433 l 1xe2
 408 433 l 1
 408 373 l 2
 408 371 408 368 408 364 c 0
 408 360 407 353 405 342 c 0
 403 331 400 320 397 310 c 0
 394 300 389 289 382 277 c 0
 375 265 367 254 357 245 c 0
 347 236 335 229 320 223 c 0
 305 217 287 214 268 214 c 0
 253 214 239 215 226 219 c 0
 213 223 203 228 194 234 c 0
 185 240 177 247 170 255 c 0
 163 263 156 271 152 280 c 0
 148 289 143 298 140 307 c 0
 137 316 135 324 133 332 c 0
 131 340 129 347 128 353 c 0
 127 359 128 364 128 368 c 2
 128 373 l 1
 128 433 l 1xf4
 188 433 l 1
 188 494 l 2
 188 495 188 497 188 499 c 0
 188 501 187 506 188 513 c 0xe8
 189 520 192 527 194 533 c 0
 196 539 199 545 203 553 c 0
 207 561 212 568 217 574 c 0
 222 580 229 584 238 588 c 0
 247 592 257 593 268 593 c 0xf0
268 553 m 0
 261 553 256 552 251 550 c 0
 246 548 243 545 240 539 c 0
 237 533 235 529 233 524 c 0
 231 519 230 511 230 499 c 0
 230 487 228 478 228 470 c 0
 228 462 228 450 228 433 c 1
 308 433 l 1
 308 449 308 462 308 470 c 0
 308 478 308 488 308 499 c 0xea
 308 510 305 519 303 524 c 0
 301 529 301 535 298 540 c 0
 295 545 289 548 285 550 c 0
 281 552 275 553 268 553 c 0
268 393 m 0
 262 393 257 391 252 386 c 0
 247 381 243 374 241 367 c 0
 239 360 238 352 238 343 c 0
 238 334 239 326 241 319 c 0
 243 312 247 306 252 301 c 0
 257 296 262 293 268 293 c 0
 274 293 279 296 284 301 c 0
 289 306 293 312 295 319 c 0
 297 326 298 334 298 343 c 0xf4
 298 352 297 360 295 367 c 0
 293 374 289 381 284 386 c 0
 279 391 274 393 268 393 c 0
EndSplineSet
Validated: 1
EndChar

StartChar: uni2B80
Encoding: 1250 11136 549
Width: 540
VWidth: 2048
Flags: W
LayerCount: 2
Fore
SplineSet
11 796 m 1
 486 299 l 1
 16 -198 l 1
 0 -198 l 1
 0 796 l 1
 11 796 l 1
EndSplineSet
Validated: 1
EndChar

StartChar: uni2B81
Encoding: 1251 11137 550
Width: 540
VWidth: 2048
Flags: W
VStem: 403 55<271.5 326.5>
DStem2: 403 299 40 -191 0.65681 0.754056<-621.081 0> 40 788 403 299 0.6576 -0.753367<-15.4739 607.105>
LayerCount: 2
Fore
SplineSet
8 789 m 0
 12 793 16 796 24 796 c 0
 30 796 36 794 40 788 c 2
 452 316 l 2
 456 312 458 307 458 299 c 0
 458 291 456 286 452 282 c 1
 40 -191 l 2
 36 -197 30 -198 24 -198 c 0
 16 -198 12 -196 8 -192 c 0
 4 -186 0 -180 0 -174 c 0
 0 -166 2 -161 6 -157 c 1
 403 299 l 1
 6 755 l 1
 2 759 0 766 0 774 c 0
 0 780 4 783 8 789 c 0
EndSplineSet
Validated: 1
EndChar

StartChar: uni2B82
Encoding: 1252 11138 551
Width: 540
VWidth: 2048
Flags: W
VStem: 78 458<-198 796>
LayerCount: 2
Fore
SplineSet
536 796 m 1
 536 -198 l 1
 78 299 l 1
 536 796 l 1
EndSplineSet
Validated: 1
EndChar

StartChar: uni2B83
Encoding: 1253 11139 552
Width: 540
VWidth: 2048
Flags: W
VStem: 74 55<271.5 326.5>
DStem2: 80 316 129 299 0.658505 0.752577<19.4729 642.042> 129 299 80 282 0.657715 -0.753267<0 621.073>
LayerCount: 2
Fore
SplineSet
524 789 m 0
 528 785 532 780 532 774 c 0
 532 766 530 759 526 755 c 1
 129 299 l 1
 526 -157 l 1
 530 -161 532 -166 532 -174 c 0
 532 -182 528 -186 524 -192 c 0
 520 -196 515 -198 507 -198 c 0
 501 -198 497 -197 493 -191 c 2
 80 282 l 2
 76 286 74 291 74 299 c 0
 74 307 76 310 80 316 c 1
 493 788 l 2
 497 794 501 796 507 796 c 0
 515 796 520 793 524 789 c 0
EndSplineSet
Validated: 1
EndChar

StartChar: uni21E0
Encoding: 923 8672 553
Width: 540
VWidth: 0
Flags: W
HStem: 293 61<230 251 280 342 388 450 494 535> 456 20G<206.34 230>
VStem: 280 62<293 354> 388 62<293 354> 494 41<293 354>
LayerCount: 2
Fore
SplineSet
230 476 m 1
 230 354 l 1
 251 354 l 1
 251 293 l 1
 230 293 l 1
 230 171 l 1
 49 323 l 1
 230 476 l 1
280 354 m 1
 342 354 l 1
 342 293 l 1
 280 293 l 1
 280 354 l 1
494 354 m 1
 535 354 l 1
 535 293 l 1
 494 293 l 1
 494 354 l 1
388 354 m 1
 450 354 l 1
 450 293 l 1
 388 293 l 1
 388 354 l 1
EndSplineSet
Validated: 1
EndChar

StartChar: uni21E1
Encoding: 924 8673 554
Width: 540
VWidth: 0
Flags: W
HStem: 80 41<213 274> 165 62<213 274> 273 62<213 274>
VStem: 213 61<80 121 165 227 273 335 364 385>
LayerCount: 2
Fore
SplineSet
91 385 m 1
 244 566 l 1
 396 385 l 1
 274 385 l 1
 274 364 l 1
 213 364 l 1
 213 385 l 1
 91 385 l 1
213 335 m 1
 274 335 l 1
 274 273 l 1
 213 273 l 1
 213 335 l 1
213 121 m 1
 274 121 l 1
 274 80 l 1
 213 80 l 1
 213 121 l 1
213 227 m 1
 274 227 l 1
 274 165 l 1
 213 165 l 1
 213 227 l 1
EndSplineSet
Validated: 1
EndChar

StartChar: uni21E2
Encoding: 925 8674 555
Width: 540
VWidth: 0
Flags: W
HStem: 293 61<0 41 85 147 193 255 284 305> 456 20G<305 328.66>
VStem: 0 41<293 354> 85 62<293 354> 193 62<293 354>
LayerCount: 2
Fore
SplineSet
305 476 m 1
 486 323 l 1
 305 171 l 1
 305 293 l 1
 284 293 l 1
 284 354 l 1
 305 354 l 1
 305 476 l 1
255 354 m 1
 255 293 l 1
 193 293 l 1
 193 354 l 1
 255 354 l 1
41 354 m 1
 41 293 l 1
 0 293 l 1
 0 354 l 1
 41 354 l 1
147 354 m 1
 147 293 l 1
 85 293 l 1
 85 354 l 1
 147 354 l 1
EndSplineSet
Validated: 1
EndChar

StartChar: uni21E3
Encoding: 926 8675 556
Width: 540
VWidth: 0
Flags: W
HStem: 311 62<213 274> 419 62<213 274> 525 41<213 274>
VStem: 213 61<261 282 311 373 419 481 525 566>
LayerCount: 2
Fore
SplineSet
396 261 m 1
 243 80 l 1
 91 261 l 1
 213 261 l 1
 213 282 l 1
 274 282 l 1
 274 261 l 1
 396 261 l 1
274 311 m 1
 213 311 l 1
 213 373 l 1
 274 373 l 1
 274 311 l 1
274 525 m 1
 213 525 l 1
 213 566 l 1
 274 566 l 1
 274 525 l 1
274 419 m 1
 213 419 l 1
 213 481 l 1
 274 481 l 1
 274 419 l 1
EndSplineSet
Validated: 1
EndChar

StartChar: uni25B4
Encoding: 1184 9652 557
Width: 540
VWidth: 0
Flags: W
HStem: 272 322
LayerCount: 2
Fore
SplineSet
474 272 m 1
 60 272 l 1
 273 594 l 1
 474 272 l 1
EndSplineSet
Validated: 1
EndChar

StartChar: uni25BE
Encoding: 1188 9662 558
Width: 540
VWidth: 0
Flags: W
HStem: 272 322
LayerCount: 2
Fore
SplineSet
474 594 m 1
 273 272 l 1
 60 594 l 1
 474 594 l 1
EndSplineSet
Validated: 1
EndChar

StartChar: SF110000
Encoding: 1108 9474 559
Width: 540
VWidth: 0
Flags: W
VStem: 244 61<-200 800>
LayerCount: 2
Fore
SplineSet
305 800 m 1
 305 467 305 133 305 -200 c 1
 244 -200 l 1
 244 133 244 467 244 800 c 1
 305 800 l 1
EndSplineSet
Validated: 1
EndChar

StartChar: SF100000
Encoding: 1107 9472 560
Width: 540
VWidth: 0
Flags: W
HStem: 294 61<0 539>
LayerCount: 2
Fore
SplineSet
539 355 m 1
 539 294 l 1
 0 294 l 1
 0 355 l 1
 539 355 l 1
EndSplineSet
Validated: 1
EndChar

StartChar: SF050000
Encoding: 1117 9532 561
Width: 540
VWidth: 0
Flags: W
HStem: 293 61<0 244 305 539>
VStem: 244 61<-200 293 354 800>
LayerCount: 2
Fore
SplineSet
244 800 m 1
 305 800 l 1
 305 354 l 1
 539 354 l 1
 539 293 l 1
 305 293 l 1
 305 -200 l 1
 244 -200 l 1
 244 293 l 1
 0 293 l 1
 0 354 l 1
 244 354 l 1
 244 800 l 1
EndSplineSet
Validated: 1
EndChar

StartChar: uniE0B0
Encoding: 1260 57520 562
Width: 540
VWidth: 2048
Flags: W
VStem: 0 467<-198 796>
LayerCount: 2
Fore
SplineSet
9 796 m 1
 467 299 l 1
 9 -198 l 1
 0 -198 l 1
 0 796 l 1
 9 796 l 1
EndSplineSet
Validated: 1
EndChar

StartChar: uniE0B1
Encoding: 1261 57521 563
Width: 540
VWidth: 2048
Flags: W
VStem: 403 55<271.5 326.5>
DStem2: 403 299 40 -191 0.65681 0.754056<-621.081 0> 40 788 403 299 0.6576 -0.753367<-15.4739 607.105>
LayerCount: 2
Fore
SplineSet
8 789 m 0
 12 793 16 796 24 796 c 0
 30 796 36 794 40 788 c 2
 452 316 l 2
 456 312 458 307 458 299 c 0
 458 291 456 286 452 282 c 1
 40 -191 l 2
 36 -197 30 -198 24 -198 c 0
 16 -198 12 -196 8 -192 c 0
 4 -186 0 -180 0 -174 c 0
 0 -166 2 -161 6 -157 c 1
 403 299 l 1
 6 755 l 1
 2 759 0 766 0 774 c 0
 0 780 4 783 8 789 c 0
EndSplineSet
Validated: 1
EndChar

StartChar: uniE0A2
Encoding: 1259 57506 564
Width: 540
VWidth: 2048
Flags: HW
HStem: 119 119<235.234 300.681> 388 60<235.093 300.907> 628 60<225.863 310.981>
VStem: 58 165<249.295 377.735> 148 60<448 613.798> 313 165<249.35 377.735> 328 60<448 613.868>
LayerCount: 2
Fore
SplineSet
268 688 m 0xf0
 284 688 299 686 313 680 c 0xf4
 326 674 336 668 344 659 c 0
 354 650 360 639 366 628 c 0
 372 618 376 607 379 597 c 0
 382 586 384 577 385 568 c 0
 386 559 388 553 388 547 c 1
 388 539 l 1
 388 448 l 1xe2
 478 448 l 1
 478 358 l 2
 478 355 478 350 478 344 c 0
 478 338 476 328 474 311 c 0
 470 295 466 278 462 263 c 0
 457 248 450 232 439 214 c 0
 428 196 416 179 402 166 c 0
 386 152 368 142 346 133 c 0
 324 124 296 119 268 119 c 0
 246 119 224 121 205 127 c 0
 186 133 170 140 157 149 c 0
 144 158 132 169 121 181 c 0
 110 193 100 205 94 218 c 0
 88 232 80 245 76 259 c 0
 72 272 68 284 66 296 c 0
 62 308 62 319 61 328 c 0
 60 337 58 344 58 350 c 2
 58 358 l 1
 58 448 l 1xf4
 148 448 l 1
 148 539 l 2
 148 541 148 544 148 547 c 0xe8
 148 550 151 557 151 568 c 0
 151 578 154 588 157 597 c 0
 160 606 164 616 170 628 c 0
 176 640 184 650 192 659 c 0
 199 668 210 674 223 680 c 0
 236 686 252 688 268 688 c 0xf0
268 628 m 0
 258 628 250 626 242 623 c 0
 235 620 230 616 226 607 c 0
 222 598 218 592 216 584 c 0
 212 577 211 565 211 547 c 0
 211 529 208 515 208 503 c 0
 208 491 208 473 208 448 c 1
 328 448 l 1
 328 472 328 491 328 503 c 0
 328 515 328 530 328 547 c 0xea
 328 563 324 577 320 584 c 0
 318 592 314 601 310 608 c 0
 306 616 300 620 294 623 c 0
 288 626 278 628 268 628 c 0
268 388 m 0
 259 388 252 385 244 377 c 0
 236 370 230 359 228 349 c 0
 224 338 223 326 223 313 c 0
 223 299 224 287 228 277 c 0
 230 266 236 257 244 250 c 0
 252 242 259 238 268 238 c 0
 277 238 284 242 292 250 c 0
 300 257 306 266 308 277 c 0
 312 287 313 299 313 313 c 0xf4
 313 326 312 338 308 349 c 0
 306 359 300 370 292 377 c 0
 284 385 277 388 268 388 c 0
EndSplineSet
Validated: 1
EndChar

StartChar: uniE0A1
Encoding: 1258 57505 566
Width: 540
VWidth: 0
Flags: W
HStem: 387 60<153 276>
VStem: 92 61<447 691> 244 60<19 171> 396 61<171 323>
LayerCount: 2
Fore
SplineSet
244 323 m 1
 304 323 l 1
 396 171 l 1
 396 323 l 1
 457 323 l 1
 457 19 l 1
 396 19 l 1
 304 171 l 1
 304 19 l 1
 244 19 l 1
 244 323 l 1
92 691 m 1
 153 691 l 1
 153 447 l 1
 276 447 l 1
 276 387 l 1
 92 387 l 1
 92 691 l 1
EndSplineSet
Validated: 1
EndChar

StartChar: block
Encoding: 1155 9608 567
Width: 540
VWidth: 0
Flags: W
VStem: 0 536<-200 800>
LayerCount: 2
Fore
SplineSet
0 800 m 1
 536 800 l 1
 536 -200 l 1
 0 -200 l 1
 0 800 l 1
EndSplineSet
Validated: 1
EndChar

StartChar: NameMe.702
Encoding: 1723 -1 568
Width: 540
VWidth: 0
Flags: W
HStem: 58 60<121 415> 668 61<121 415>
VStem: 60 61<118 668> 415 61<118 668>
LayerCount: 2
Fore
SplineSet
121 668 m 1
 121 118 l 1
 415 118 l 1
 415 668 l 1
 121 668 l 1
60 729 m 1
 476 729 l 1
 476 58 l 1
 60 58 l 1
 60 729 l 1
EndSplineSet
Validated: 1
EndChar

StartChar: SF080000
Encoding: 1113 9500 570
Width: 540
VWidth: 0
Flags: W
HStem: 293 61<305 539>
VStem: 244 61<-200 293 354 800>
LayerCount: 2
Fore
SplineSet
244 800 m 1
 305 800 l 1
 305 354 l 1
 539 354 l 1
 539 293 l 1
 305 293 l 1
 305 -200 l 1
 244 -200 l 1
 244 800 l 1
EndSplineSet
Validated: 1
EndChar

StartChar: SF090000
Encoding: 1114 9508 571
Width: 540
VWidth: 0
Flags: W
HStem: 293 61<0 244>
VStem: 244 61<-200 293 354 800>
LayerCount: 2
Fore
SplineSet
244 800 m 1
 305 800 l 1
 305 -200 l 1
 244 -200 l 1
 244 293 l 1
 0 293 l 1
 0 354 l 1
 244 354 l 1
 244 800 l 1
EndSplineSet
Validated: 1
EndChar

StartChar: SF010000
Encoding: 1109 9484 572
Width: 540
VWidth: 0
Flags: W
HStem: 294 60<306 539>
VStem: 244 62<-199 294>
LayerCount: 2
Fore
SplineSet
244 -199 m 25
 244 354 l 25
 539 354 l 25
 539 294 l 25
 306 294 l 25
 306 -199 l 25
 244 -199 l 25
EndSplineSet
Validated: 1
EndChar

StartChar: SF030000
Encoding: 1110 9488 573
Width: 540
VWidth: 0
Flags: W
HStem: 294 60<0 244>
VStem: 244 62<-199 294>
LayerCount: 2
Fore
SplineSet
306 -199 m 25
 244 -199 l 25
 244 294 l 25
 0 294 l 25
 0 354 l 25
 306 354 l 25
 306 -199 l 25
EndSplineSet
Validated: 1
EndChar

StartChar: SF020000
Encoding: 1111 9492 574
Width: 540
VWidth: 0
Flags: W
HStem: 292 62<306 539>
VStem: 244 62<354 800>
LayerCount: 2
Fore
SplineSet
244 800 m 25
 306 800 l 25
 306 354 l 25
 539 354 l 25
 539 292 l 25
 244 292 l 25
 244 800 l 25
EndSplineSet
Validated: 1
EndChar

StartChar: SF040000
Encoding: 1112 9496 575
Width: 540
VWidth: 0
Flags: W
HStem: 292 62<0 244>
VStem: 244 62<354 800>
LayerCount: 2
Fore
SplineSet
306 800 m 25
 306 292 l 25
 0 292 l 25
 0 354 l 25
 244 354 l 25
 244 800 l 25
 306 800 l 25
EndSplineSet
Validated: 1
EndChar

StartChar: uniF0FF
Encoding: 1277 61695 576
Width: 540
Flags: W
HStem: 262 61<356.189 396.765> 307 36<220.735 314.629> 441 60<48.2827 90.6719> 599 36<221.241 313.811> 619 60<354.374 397.718>
VStem: 38 61<450.327 490.764> 140 6<452 490> 346 60<273.283 311.718 628.283 669.671> 346 51<262.734 293.671> 400 38<403.115 451 492 539.681>
LayerCount: 2
Fore
SplineSet
69 501 m 0x26
 77 501 84 498 91 491 c 0
 96 486 99 479 99 470 c 0
 99 463 96 454 91 449 c 1
 85 444 77 441 69 441 c 0
 62 441 54 445 48 450 c 1
 41 457 38 463 38 470 c 0
 38 478 42 486 48 491 c 0
 55 498 62 501 69 501 c 0x26
346 291 m 0xa7
 346 299 348 306 354 312 c 0
 355 313 356 313 356 314 c 0
 360 320 366 323 377 323 c 0
 385 323 390 322 396 316 c 0
 402 311 406 304 406 294 c 0xa7
 406 287 403 279 397 273 c 0
 397 272 l 0xa680
 392 265 386 262 375 262 c 0
 367 262 362 264 356 270 c 0
 355 271 l 0
 349 275 346 281 346 291 c 0xa7
146 470 m 0
 146 449 150 430 161 411 c 0
 170 396 181 384 194 373 c 1
 174 340 l 1
 160 351 148 363 140 376 c 0
 140 377 l 0
 129 391 121 408 116 424 c 1
 131 437 136 452 136 470 c 0
 136 490 129 507 116 518 c 1
 122 536 129 551 140 565 c 0
 141 566 l 0
 149 580 161 592 174 603 c 1
 194 570 l 1
 181 559 170 544 161 529 c 0
 150 511 146 492 146 470 c 0
273 599 m 0x3640
 257 599 240 596 228 591 c 1
 210 623 l 1
 231 632 250 635 273 635 c 0
 288 635 301 634 312 632 c 1
 315 616 324 607 334 598 c 0
 335 597 l 0
 347 588 361 582 377 582 c 0
 382 582 388 584 392 585 c 1
 419 557 435 527 438 492 c 1
 400 492 l 1
 396 522 380 546 360 565 c 1
 336 590 307 599 273 599 c 0x3640
273 343 m 0x6640
 307 343 337 355 360 377 c 1
 381 398 397 423 400 451 c 1
 438 451 l 1
 435 415 418 383 392 356 c 1
 387 358 384 360 377 360 c 0
 362 360 347 355 335 344 c 1
 324 335 315 324 312 310 c 1
 299 307 288 307 273 307 c 0
 250 307 230 311 210 320 c 1
 228 352 l 1
 242 347 257 343 273 343 c 0x6640
377 619 m 0x2e80
 369 619 362 622 354 628 c 1
 348 634 345 642 345 650 c 0
 345 661 348 666 353 670 c 0
 354 671 l 0
 360 677 367 679 375 679 c 0
 385 679 392 675 398 670 c 1
 403 663 406 655 406 648 c 0x2f
 406 638 402 631 397 627 c 0
 396 626 l 0
 390 620 386 619 377 619 c 0x2e80
EndSplineSet
Validated: 1
EndChar

StartChar: filledbox
Encoding: 1178 9632 582
Width: 540
VWidth: 0
Flags: W
HStem: 118 388<74 462>
VStem: 74 388<118 506>
LayerCount: 2
Fore
SplineSet
74 506 m 1
 462 506 l 1
 462 118 l 1
 74 118 l 1
 74 506 l 1
EndSplineSet
Validated: 1
EndChar

StartChar: dnblock
Encoding: 1151 9604 586
Width: 540
VWidth: 0
Flags: W
HStem: -200 512<0 536>
VStem: 0 536<-200 312>
LayerCount: 2
Fore
SplineSet
0 312 m 1
 536 312 l 1
 536 -200 l 1
 0 -200 l 1
 0 312 l 1
EndSplineSet
Validated: 1
EndChar

StartChar: NameMe.721
Encoding: 1724 -1 587
Width: 540
VWidth: 0
Flags: W
HStem: 220 60<97 189> 345 60<97 189>
VStem: 37 60<280 345> 189 60<187 220 405 439>
DStem2: 189 561 249 439 0.792258 -0.610186<121.978 328.792> 249 187 189 66 0.793448 0.608638<0 206.814>
LayerCount: 2
Fore
SplineSet
37 405 m 1
 189 405 l 1
 189 561 l 1
 511 313 l 1
 189 66 l 1
 189 220 l 1
 37 220 l 1
 37 405 l 1
97 345 m 1
 97 280 l 1
 249 280 l 1
 249 187 l 1
 413 313 l 1
 249 439 l 1
 249 345 l 1
 97 345 l 1
EndSplineSet
Validated: 1
EndChar

StartChar: Hbar
Encoding: 293 294 593
Width: 540
VWidth: 0
Flags: W
HStem: 49 21G<54 115 421 481> 293 61<115 421> 411 59<28 54 115 421 481 505> 577 20G<54 115 421 481>
VStem: 54 61<49 293 354 411 470 597> 421 60<49 293 354 411 470 597>
LayerCount: 2
Fore
SplineSet
54 597 m 1
 115 597 l 1
 115 470 l 1
 421 470 l 1
 421 597 l 1
 481 597 l 1
 481 470 l 1
 505 470 l 1
 505 411 l 1
 481 411 l 1
 481 49 l 1
 421 49 l 1
 421 293 l 1
 115 293 l 1
 115 49 l 1
 54 49 l 1
 54 411 l 1
 28 411 l 1
 28 470 l 1
 54 470 l 1
 54 597 l 1
421 411 m 1
 115 411 l 1
 115 354 l 1
 421 354 l 1
 421 411 l 1
EndSplineSet
Validated: 1
EndChar

StartChar: hbar
Encoding: 294 295 594
Width: 540
VWidth: 0
Flags: W
HStem: 48 21G<52 112 359 419> 416 59<217 314> 538 59<28 52 112 251>
VStem: 52 60<48 315 398 538 597 666> 359 60<48 372>
DStem2: 112 398 112 315 0.720701 0.693246<0 88.152>
LayerCount: 2
Fore
SplineSet
52 538 m 1
 28 538 l 1
 28 597 l 1
 52 597 l 1
 52 666 l 1
 112 666 l 1
 112 597 l 1
 251 597 l 1
 251 538 l 1
 112 538 l 1
 112 398 l 1
 184 470 l 2
 190 475 197 475 205 475 c 2
 326 475 l 2
 334 475 341 472 347 467 c 2
 410 407 l 2
 416 401 419 394 419 385 c 2
 419 48 l 1
 359 48 l 1
 359 372 l 1
 314 416 l 1
 217 416 l 1
 112 315 l 1
 112 48 l 1
 52 48 l 1
 52 538 l 1
EndSplineSet
Validated: 1
EndChar

StartChar: dotlessi
Encoding: 304 305 600
Width: 540
VWidth: 0
Flags: W
HStem: 49 21G<237 298> 456 20G<237 298>
VStem: 237 61<49 476>
LayerCount: 2
Fore
SplineSet
237 476 m 1
 298 476 l 1
 298 49 l 1
 237 49 l 1
 237 476 l 1
EndSplineSet
Validated: 1
EndChar

StartChar: Idotaccent
Encoding: 303 304 601
Width: 540
VWidth: 0
Flags: W
HStem: 48 61<176 237 298 359> 537 60<176 237 298 359> 659 61<237 298>
VStem: 176 183<48 109 537 597> 237 61<109 537 659 720>
LayerCount: 2
Fore
SplineSet
176 597 m 1xf0
 359 597 l 1
 359 537 l 1xf0
 298 537 l 1
 298 109 l 1xe8
 359 109 l 1
 359 48 l 1
 176 48 l 1
 176 109 l 1xf0
 237 109 l 1
 237 537 l 1xe8
 176 537 l 1
 176 597 l 1xf0
237 720 m 1xe8
 298 720 l 1
 298 659 l 1
 237 659 l 1
 237 720 l 1xe8
EndSplineSet
Validated: 1
EndChar

StartChar: ogonek
Encoding: 411 731 605
Width: 540
VWidth: 0
Flags: W
HStem: -50 58<195 217>
VStem: 116 57<31 81>
LayerCount: 2
Fore
SplineSet
119 6 m 1
 118 7 116 11 116 15 c 1
 116 81 l 1
 173 81 l 1
 173 31 l 1
 195 8 l 1
 217 8 l 1
 217 -50 l 1
 182 -50 l 2
 172 -50 168 -47 162 -41 c 2
 124 0 l 2
 119 6 l 1
EndSplineSet
Validated: 1
EndChar

StartChar: breve
Encoding: 408 728 606
Width: 540
VWidth: 0
InSpiro: 1
Flags: W
HStem: 511 60<204.456 320.544> 639 20G<113 173.5 351 411>
VStem: 119 58<598.173 659> 351 60<601.476 659>
LayerCount: 2
Fore
SplineSet
113 659 m 1
 173 659 l 1
 174 651 175 644 177 636 c 0
 179 628 182 621 186 614 c 0
 190 607 195 602 200 597 c 0
 206 591 212 586 219 582 c 0
 226 578 233 576 241 574 c 0
 248 572 256 571 263 571 c 0
 271 571 279 572 286 574 c 0
 293 576 300 579 307 583 c 0
 314 587 320 592 325 597 c 0
 330 602 335 608 339 615 c 0
 343 622 346 631 348 639 c 0
 350 646 351 652 351 659 c 1
 411 659 l 1
 411 646 410 633 406 621 c 0
 402 609 397 597 391 586 c 0
 385 575 377 564 368 555 c 0
 359 546 349 538 338 532 c 0
 327 526 315 521 302 517 c 0
 290 514 278 511 265 511 c 0
 252 511 239 512 226 515 c 0
 213 518 201 524 190 530 c 0
 179 536 168 544 158 553 c 0
 149 562 140 572 134 583 c 0
 127 594 122 606 119 619 c 0
 116 631 113 646 113 659 c 1
  Spiro
    113 657 v
    173 659 v
    177 636 o
    186 614 o
    200 596 o
    219 582 o
    241 574 o
    263 571 o
    286 574 o
    307 583 o
    325 597 o
    339 615 o
    348 637 o
    351 659 v
    411 659 v
    406 621 o
    391 586 o
    368 555 o
    338 532 o
    302 517 o
    265 511 o
    226 515 o
    190 530 o
    158 553 o
    134 583 o
    119 619 o
    0 0 z
  EndSpiro
EndSplineSet
Validated: 1
EndChar

StartChar: jcircumflex
Encoding: 308 309 608
Width: 540
VWidth: 0
UnlinkRmOvrlpSave: 1
Flags: W
HStem: -73 59<218 317> 456 20G<359 420> 521 187
VStem: 110 316 359 61<29 476>
LayerCount: 2
Fore
SplineSet
420 17 m 2xe8
 420 9 416 2 410 -4 c 2
 350 -65 l 2
 344 -71 338 -73 329 -73 c 2
 205 -73 l 2
 197 -73 190 -70 184 -64 c 2
 123 -3 l 1
 166 39 l 1
 218 -14 l 1
 317 -14 l 1
 359 29 l 1
 359 476 l 1
 420 476 l 1
 420 17 l 2xe8
EndSplineSet
Refer: 58 94 N 1 0 0 1 -1 46 2
Validated: 1
EndChar

StartChar: IJ
Encoding: 305 306 609
Width: 540
VWidth: 0
Flags: W
HStem: 48 61<58 97 158 198 300 346> 537 60<58 97 158 198 353 388 448 479>
VStem: 58 140<48 109 537 597> 198 58<151 232> 353 126<537 597> 388 60<153 537>
LayerCount: 2
Fore
SplineSet
198 232 m 1xd4
 256 232 l 1
 256 151 l 1
 300 110 l 1
 346 110 l 1
 388 153 l 1
 388 537 l 1xd4
 353 537 l 1
 353 597 l 1
 479 597 l 1
 479 537 l 1xc8
 448 537 l 1
 448 141 l 2
 448 137 447 127 440 120 c 2
 381 59 l 2
 377 55 369 48 359 48 c 2
 288 48 l 2
 284 48 274 51 267 58 c 2
 207 116 l 2
 204 119 198 127 198 137 c 2
 198 232 l 1xd4
58 597 m 1xe0
 198 597 l 1
 198 537 l 1
 158 537 l 1
 158 109 l 1
 198 109 l 1
 198 48 l 1
 58 48 l 1
 58 109 l 1
 97 109 l 1
 97 537 l 1
 58 537 l 1
 58 597 l 1xe0
EndSplineSet
Validated: 1
EndChar

StartChar: ellipsis
Encoding: 844 8230 611
Width: 540
VWidth: 0
Flags: W
HStem: 49 122<30 101 177 248 323 394>
VStem: 30 71<49 171> 177 71<49 171> 323 71<49 171>
LayerCount: 2
Fore
SplineSet
177 171 m 1
 248 171 l 1
 248 49 l 1
 177 49 l 1
 177 171 l 1
30 171 m 1
 101 171 l 1
 101 49 l 1
 30 49 l 1
 30 171 l 1
323 171 m 1
 394 171 l 1
 394 49 l 1
 323 49 l 1
 323 171 l 1
EndSplineSet
Validated: 1
EndChar

StartChar: uni27F3
Encoding: 1234 10227 612
Width: 540
VWidth: 0
Flags: W
HStem: 137 60<188.489 344.329> 352 60<231.18 407> 505 60<188.489 343.278>
VStem: 52 60<274.293 429.315> 440 60<474 622.82>
LayerCount: 2
Fore
SplineSet
440 474 m 1
 440 594 l 2
 440 610 454 624 470 624 c 0
 486 624 500 610 500 594 c 2
 500 382 l 2
 500 366 486 352 470 352 c 2
 260 352 l 2
 244 352 230 366 230 382 c 0
 230 398 244 412 260 412 c 2
 364 412 l 2
 364 412 369 412 375 412 c 0
 407 412 l 1
 383 467 329 505 266 505 c 0
 181 505 112 437 112 352 c 0
 112 267 181 197 266 197 c 0
 331 197 387 238 409 295 c 1
 472 295 l 1
 447 204 365 137 266 137 c 0
 148 137 52 234 52 352 c 0
 52 470 148 565 266 565 c 0
 338 565 401 529 440 474 c 1
EndSplineSet
Validated: 1
EndChar

StartChar: NameMe.755
Encoding: 1726 -1 618
Width: 540
VWidth: 0
Flags: W
HStem: 49 60<115 481> 244 61<115 359> 409 61<115 481>
VStem: 54 61<109 244 305 409>
LayerCount: 2
Fore
SplineSet
54 470 m 1
 481 470 l 1
 481 409 l 1
 115 409 l 1
 115 305 l 1
 359 305 l 1
 359 244 l 1
 115 244 l 1
 115 109 l 1
 481 109 l 1
 481 49 l 1
 54 49 l 1
 54 470 l 1
EndSplineSet
Validated: 1
EndChar

StartChar: NameMe.756
Encoding: 1727 -1 619
Width: 540
VWidth: 0
Flags: W
HStem: 50 60<157 379>
VStem: 56 59<152 470> 420 60<153 470>
LayerCount: 2
Fore
SplineSet
56 470 m 1
 115 470 l 1
 115 152 l 1
 157 110 l 1
 379 110 l 1
 420 153 l 1
 420 470 l 1
 480 470 l 1
 480 141 l 2
 480 137 479 128 472 121 c 2
 414 60 l 2
 410 56 402 50 392 50 c 2
 144 50 l 2
 139 50 130 52 123 59 c 2
 64 118 l 2
 61 121 56 129 56 139 c 2
 56 470 l 1
EndSplineSet
Validated: 1
EndChar

StartChar: smalll
Encoding: 1728 -1 624
Width: 540
VWidth: 0
Flags: W
HStem: 49 60<310 359>
VStem: 237 60<123 471>
LayerCount: 2
Fore
SplineSet
297 123 m 1
 310 109 l 1
 359 109 l 1
 359 49 l 1
 298 49 l 2
 290 49 283 52 277 58 c 2
 246 89 l 2
 240 95 237 102 237 110 c 2
 237 471 l 1
 297 471 l 1
 297 123 l 1
EndSplineSet
Validated: 1
EndChar

StartChar: SF060000
Encoding: 1115 9516 630
Width: 540
VWidth: 0
Flags: W
HStem: 293 61<0 244 305 539>
VStem: 244 61<-200 293>
LayerCount: 2
Fore
SplineSet
539 354 m 1
 539 293 l 1
 305 293 l 1
 305 -200 l 1
 244 -200 l 1
 244 293 l 1
 0 293 l 1
 0 354 l 1
 539 354 l 1
EndSplineSet
Validated: 1
EndChar

StartChar: SF070000
Encoding: 1116 9524 631
Width: 540
VWidth: 0
Flags: W
HStem: 293 61<0 244 305 539>
VStem: 244 61<354 800>
LayerCount: 2
Fore
SplineSet
0 293 m 1
 0 354 l 1
 244 354 l 1
 244 800 l 1
 305 800 l 1
 305 354 l 1
 539 354 l 1
 539 293 l 1
 0 293 l 1
EndSplineSet
Validated: 1
EndChar

StartChar: SF390000
Encoding: 1122 9556 632
Width: 540
VWidth: 0
Flags: W
HStem: 231 61<367 539> 354 61<246 539>
VStem: 185 61<-200 354> 306 61<-200 231>
LayerCount: 2
Fore
SplineSet
539 415 m 1
 539 354 l 1
 246 354 l 1
 246 -200 l 1
 185 -200 l 1
 185 415 l 1
 539 415 l 1
539 292 m 1
 539 231 l 1
 367 231 l 1
 367 -200 l 1
 306 -200 l 1
 306 292 l 1
 539 292 l 1
EndSplineSet
Validated: 1
EndChar

StartChar: SF250000
Encoding: 1125 9559 633
Width: 540
VWidth: 0
Flags: W
HStem: 231 61<0 185> 354 61<0 306>
VStem: 185 61<-200 231> 306 61<-200 354>
LayerCount: 2
Fore
SplineSet
367 415 m 1
 367 -200 l 1
 306 -200 l 1
 306 354 l 1
 0 354 l 1
 0 415 l 1
 367 415 l 1
246 292 m 1
 246 -200 l 1
 185 -200 l 1
 185 231 l 1
 0 231 l 1
 0 292 l 1
 246 292 l 1
EndSplineSet
Validated: 1
EndChar

StartChar: SF260000
Encoding: 1131 9565 634
Width: 540
VWidth: 0
Flags: W
HStem: 231 61<0 306> 354 61<0 185>
VStem: 185 61<415 800> 306 61<292 800>
LayerCount: 2
Fore
SplineSet
367 800 m 1
 367 231 l 1
 0 231 l 1
 0 292 l 1
 306 292 l 1
 306 800 l 1
 367 800 l 1
246 800 m 1
 246 354 l 1
 0 354 l 1
 0 415 l 1
 185 415 l 1
 185 800 l 1
 246 800 l 1
EndSplineSet
Validated: 1
EndChar

StartChar: SF380000
Encoding: 1128 9562 635
Width: 540
VWidth: 0
Flags: W
HStem: 231 61<246 539> 354 61<367 539>
VStem: 185 61<292 800> 306 61<415 800>
LayerCount: 2
Fore
SplineSet
539 415 m 1
 539 354 l 1
 306 354 l 1
 306 800 l 1
 367 800 l 1
 367 415 l 1
 539 415 l 1
539 292 m 1
 539 231 l 1
 185 231 l 1
 185 800 l 1
 246 800 l 1
 246 292 l 1
 539 292 l 1
EndSplineSet
Validated: 1
EndChar

StartChar: SF430000
Encoding: 1118 9552 636
Width: 540
VWidth: 0
Flags: W
HStem: 231 61<0 539> 354 61<0 539>
LayerCount: 2
Fore
SplineSet
539 292 m 1
 539 231 l 1
 0 231 l 1
 0 292 l 1
 539 292 l 1
539 415 m 1
 539 354 l 1
 0 354 l 1
 0 415 l 1
 539 415 l 1
EndSplineSet
Validated: 1
EndChar

StartChar: SF240000
Encoding: 1119 9553 637
Width: 540
VWidth: 0
Flags: W
VStem: 185 61<-200 800> 306 61<-200 800>
LayerCount: 2
Fore
SplineSet
246 800 m 1
 246 467 246 133 246 -200 c 1
 185 -200 l 1
 185 133 185 467 185 800 c 1
 246 800 l 1
367 800 m 1
 367 467 367 133 367 -200 c 1
 306 -200 l 1
 306 133 306 467 306 800 c 1
 367 800 l 1
EndSplineSet
Validated: 1
EndChar

StartChar: SF370000
Encoding: 1133 9567 638
Width: 540
VWidth: 0
Flags: W
HStem: 293 61<367 539>
VStem: 185 61<-200 800> 306 61<-200 293 354 800>
LayerCount: 2
Fore
SplineSet
246 800 m 1
 246 467 246 133 246 -200 c 1
 185 -200 l 1
 185 133 185 467 185 800 c 1
 246 800 l 1
539 354 m 1
 539 293 l 1
 367 293 l 1
 367 -200 l 1
 306 -200 l 1
 306 133 306 467 306 800 c 1
 367 800 l 1
 367 354 l 1
 539 354 l 1
EndSplineSet
Validated: 1
EndChar

StartChar: SF200000
Encoding: 1136 9570 639
Width: 540
VWidth: 0
Flags: HW
HStem: 293 61<0 185>
VStem: 185 61<-200 293 354 800> 306 61<-200 800>
LayerCount: 2
Fore
SplineSet
246 800 m 1
 246 467 246 133 246 -200 c 1
 185 -200 l 1
 185 293 l 1
 0 293 l 1
 0 354 l 1
 185 354 l 1
 185 800 l 1
 246 800 l 1
367 800 m 1
 367 467 367 133 367 -200 c 1
 306 -200 l 1
 306 133 306 467 306 800 c 1
 367 800 l 1
EndSplineSet
Validated: 1
EndChar

StartChar: SF440000
Encoding: 1146 9580 640
Width: 540
VWidth: 0
Flags: W
HStem: 231 61<0 185 367 539> 354 61<0 185 367 539>
VStem: 185 61<-200 231 415 800> 306 61<-200 231 415 800>
LayerCount: 2
Fore
SplineSet
246 800 m 1
 246 354 l 1
 0 354 l 1
 0 415 l 1
 185 415 l 1
 185 800 l 1
 246 800 l 1
539 415 m 1
 539 354 l 1
 306 354 l 1
 306 800 l 1
 367 800 l 1
 367 415 l 1
 539 415 l 1
539 292 m 1
 539 231 l 1
 367 231 l 1
 367 -200 l 1
 306 -200 l 1
 306 292 l 1
 539 292 l 1
246 292 m 1
 246 -200 l 1
 185 -200 l 1
 185 231 l 1
 0 231 l 1
 0 292 l 1
 246 292 l 1
EndSplineSet
Validated: 1
EndChar

StartChar: SF530000
Encoding: 1145 9579 641
Width: 540
VWidth: 0
Flags: W
HStem: 293 61<0 185 246 306 367 539>
VStem: 185 61<-200 293 354 800> 306 61<-200 293 354 800>
LayerCount: 2
Fore
SplineSet
539 354 m 1
 539 293 l 1
 367 293 l 1
 367 -200 l 1
 306 -200 l 1
 306 293 l 1
 246 293 l 1
 246 -200 l 1
 185 -200 l 1
 185 293 l 1
 0 293 l 1
 0 354 l 1
 185 354 l 1
 185 800 l 1
 246 800 l 1
 246 354 l 1
 306 354 l 1
 306 800 l 1
 367 800 l 1
 367 354 l 1
 539 354 l 1
EndSplineSet
Validated: 1
EndChar

StartChar: SF540000
Encoding: 1144 9578 642
Width: 540
VWidth: 0
Flags: W
HStem: 231 61<0 244 305 539> 354 61<0 244 305 539>
VStem: 244 61<-200 231 292 354 415 800>
LayerCount: 2
Fore
SplineSet
539 415 m 1
 539 354 l 1
 305 354 l 1
 305 292 l 1
 539 292 l 1
 539 231 l 1
 305 231 l 1
 305 -200 l 1
 244 -200 l 1
 244 231 l 1
 0 231 l 1
 0 292 l 1
 244 292 l 1
 244 354 l 1
 0 354 l 1
 0 415 l 1
 244 415 l 1
 244 800 l 1
 305 800 l 1
 305 415 l 1
 539 415 l 1
EndSplineSet
Validated: 1
EndChar

StartChar: SF230000
Encoding: 1137 9571 643
Width: 540
VWidth: 0
Flags: W
HStem: 231 61<0 185> 354 61<0 185>
VStem: 185 61<-200 231 415 800> 306 61<-200 800>
LayerCount: 2
Fore
SplineSet
246 292 m 1
 246 -200 l 1
 185 -200 l 1
 185 231 l 1
 0 231 l 1
 0 292 l 1
 246 292 l 1
246 800 m 1
 246 354 l 1
 0 354 l 1
 0 415 l 1
 185 415 l 1
 185 800 l 1
 246 800 l 1
367 800 m 1
 367 467 367 133 367 -200 c 1
 306 -200 l 1
 306 133 306 467 306 800 c 1
 367 800 l 1
EndSplineSet
Validated: 1
EndChar

StartChar: SF420000
Encoding: 1134 9568 644
Width: 540
VWidth: 0
Flags: W
HStem: 231 61<367 539> 354 61<367 539>
VStem: 185 61<-200 800> 306 61<-200 231 415 800>
LayerCount: 2
Fore
SplineSet
539 292 m 1
 539 231 l 1
 367 231 l 1
 367 -200 l 1
 306 -200 l 1
 306 292 l 1
 539 292 l 1
539 415 m 1
 539 354 l 1
 306 354 l 1
 306 800 l 1
 367 800 l 1
 367 415 l 1
 539 415 l 1
246 800 m 1
 246 467 246 133 246 -200 c 1
 185 -200 l 1
 185 133 185 467 185 800 c 1
 246 800 l 1
EndSplineSet
Validated: 1
EndChar

StartChar: SF410000
Encoding: 1140 9574 645
Width: 540
VWidth: 0
Flags: W
HStem: 231 61<0 185 367 539> 354 61<0 539>
VStem: 185 61<-200 231> 306 61<-200 231>
LayerCount: 2
Fore
SplineSet
539 292 m 1
 539 231 l 1
 367 231 l 1
 367 -200 l 1
 306 -200 l 1
 306 292 l 1
 539 292 l 1
246 292 m 1
 246 -200 l 1
 185 -200 l 1
 185 231 l 1
 0 231 l 1
 0 292 l 1
 246 292 l 1
539 415 m 1
 539 354 l 1
 0 354 l 1
 0 415 l 1
 539 415 l 1
EndSplineSet
Validated: 1
EndChar

StartChar: SF400000
Encoding: 1143 9577 646
Width: 540
VWidth: 0
Flags: W
HStem: 231 61<0 539> 354 61<0 185 367 539>
VStem: 185 61<415 800> 306 61<415 800>
LayerCount: 2
Fore
SplineSet
246 800 m 1
 246 354 l 1
 0 354 l 1
 0 415 l 1
 185 415 l 1
 185 800 l 1
 246 800 l 1
539 415 m 1
 539 354 l 1
 306 354 l 1
 306 800 l 1
 367 800 l 1
 367 415 l 1
 539 415 l 1
539 292 m 1
 539 231 l 1
 0 231 l 1
 0 292 l 1
 539 292 l 1
EndSplineSet
Validated: 1
EndChar

StartChar: trademark
Encoding: 867 8482 647
Width: 540
VWidth: 0
Flags: W
HStem: 638 51<50 112 162 225>
VStem: 112 50<385 638> 275 50<385 603> 407 50<385 603>
LayerCount: 2
Fore
SplineSet
275 689 m 1
 325 689 l 1
 365 627 l 1
 407 689 l 1
 457 689 l 1
 457 385 l 1
 407 385 l 1
 407 603 l 1
 365 543 l 1
 325 603 l 1
 325 385 l 1
 275 385 l 1
 275 689 l 1
50 689 m 1
 225 689 l 1
 225 638 l 1
 162 638 l 1
 162 385 l 1
 112 385 l 1
 112 638 l 1
 50 638 l 1
 50 689 l 1
EndSplineSet
Validated: 1
EndChar

StartChar: H18533
Encoding: 1192 9679 648
Width: 540
VWidth: 0
Flags: W
HStem: 138 416<177.769 358.231>
VStem: 60 416<255.769 436.231>
LayerCount: 2
Fore
SplineSet
60 346 m 0
 60 461 153 554 268 554 c 0
 383 554 476 461 476 346 c 0
 476 231 383 138 268 138 c 0
 153 138 60 231 60 346 c 0
EndSplineSet
Validated: 1
EndChar

StartChar: uni2583
Encoding: 1150 9603 649
Width: 540
VWidth: 0
Flags: W
HStem: -200 386<0 536>
LayerCount: 2
Fore
SplineSet
0 186 m 1
 536 186 l 1
 536 -200 l 1
 0 -200 l 1
 0 186 l 1
EndSplineSet
Validated: 1
EndChar

StartChar: uni2581
Encoding: 1148 9601 650
Width: 540
VWidth: 0
Flags: W
HStem: -200 143<0 536>
LayerCount: 2
Fore
SplineSet
0 -57 m 1
 536 -57 l 1
 536 -200 l 1
 0 -200 l 1
 0 -57 l 1
EndSplineSet
Validated: 1
EndChar

StartChar: uni2582
Encoding: 1149 9602 651
Width: 540
VWidth: 0
Flags: W
HStem: -200 270<0 536>
LayerCount: 2
Fore
SplineSet
0 70 m 1
 536 70 l 1
 536 -200 l 1
 0 -200 l 1
 0 70 l 1
EndSplineSet
Validated: 1
EndChar

StartChar: uni2585
Encoding: 1152 9605 652
Width: 540
VWidth: 0
Flags: W
HStem: -200 654<0 536>
VStem: 0 536<-200 454>
LayerCount: 2
Fore
SplineSet
0 454 m 1
 536 454 l 1
 536 -200 l 1
 0 -200 l 1
 0 454 l 1
EndSplineSet
Validated: 1
EndChar

StartChar: uni2586
Encoding: 1153 9606 653
Width: 540
VWidth: 0
Flags: W
VStem: 0 536<-200 580>
LayerCount: 2
Fore
SplineSet
0 580 m 1
 536 580 l 1
 536 -200 l 1
 0 -200 l 1
 0 580 l 1
EndSplineSet
Validated: 1
EndChar

StartChar: uni2587
Encoding: 1154 9607 654
Width: 540
VWidth: 0
Flags: W
VStem: 0 536<-200 702>
LayerCount: 2
Fore
SplineSet
0 702 m 1
 536 702 l 1
 536 -200 l 1
 0 -200 l 1
 0 702 l 1
EndSplineSet
Validated: 1
EndChar

StartChar: uni2589
Encoding: 1156 9609 655
Width: 540
VWidth: 0
Flags: W
HStem: -198 346<0 536>
LayerCount: 2
Fore
SplineSet
0 148 m 1
 536 148 l 1
 536 -198 l 1
 0 -198 l 1
 0 148 l 1
EndSplineSet
Validated: 1
EndChar

StartChar: uni23CE
Encoding: 1064 9166 656
Width: 540
VWidth: 0
Flags: W
HStem: 250 50<228 410> 347 50<228 318> 525 50<368 410>
VStem: 41 71<288.5 359.5> 318 50<397 525> 410 50<300 525>
DStem2: 112 324 41 324 0.712801 -0.701366<0 91.9323> 41 324 112 324 0.712801 0.701366<50.6089 142.541>
LayerCount: 2
Fore
SplineSet
318 575 m 1
 460 575 l 1
 460 250 l 1
 228 250 l 1
 228 140 l 1
 41 324 l 1
 228 508 l 1
 228 397 l 1
 318 397 l 1
 318 575 l 1
410 525 m 1
 368 525 l 1
 368 347 l 1
 178 347 l 1
 178 388 l 1
 112 324 l 1
 178 260 l 1
 178 300 l 1
 410 300 l 1
 410 525 l 1
EndSplineSet
Validated: 1
EndChar

StartChar: uni2318
Encoding: 977 8984 657
Width: 540
VWidth: 0
Flags: W
HStem: 124 55<82 146 366 432> 246 55<82 146 202 310 366 432> 414 56<81 146 202 310 366 432> 538 55<81 146 366 432>
VStem: 25 56<179 246 470 538> 146 56<179 246 301 414 470 538> 310 56<179 246 301 414 470 538> 432 56<179 246 470 538>
LayerCount: 2
Fore
SplineSet
146 301 m 1
 146 414 l 1
 48 414 l 0
 37 414 25 422 25 436 c 0
 25 560 l 0
 25 561 25 563 25 565 c 0
 28 580 43 593 58 593 c 0
 179 593 l 0
 190 593 202 584 202 570 c 0
 202 470 l 1
 310 470 l 1
 310 560 l 0
 310 561 310 563 310 565 c 0
 313 580 328 593 343 593 c 0
 465 593 l 0
 476 593 488 584 488 570 c 0
 488 446 l 0
 488 445 487 443 487 441 c 0
 484 426 470 414 455 414 c 0
 366 414 l 1
 366 301 l 1
 465 301 l 0
 476 301 488 292 488 278 c 0
 488 156 l 0
 488 155 487 153 487 151 c 0
 484 136 470 124 455 124 c 0
 333 124 l 0
 322 124 310 132 310 146 c 0
 310 246 l 1
 202 246 l 1
 202 156 l 0
 202 155 201 153 201 151 c 0
 198 136 184 124 169 124 c 0
 49 124 l 0
 38 124 25 132 25 146 c 0
 25 268 l 0
 25 269 25 271 25 273 c 0
 28 288 44 301 59 301 c 0
 146 301 l 1
202 414 m 1
 202 301 l 1
 310 301 l 1
 310 414 l 1
 202 414 l 1
366 470 m 1
 432 470 l 1
 432 538 l 1
 366 538 l 1
 366 470 l 1
366 246 m 1
 366 179 l 1
 432 179 l 1
 432 246 l 1
 366 246 l 1
146 246 m 1
 82 246 l 1
 82 179 l 1
 146 179 l 1
 146 246 l 1
146 470 m 1
 146 538 l 1
 81 538 l 1
 81 470 l 1
 146 470 l 1
EndSplineSet
Validated: 1
EndChar

StartChar: ltshade
Encoding: 1163 9617 658
Width: 540
VWidth: 0
Flags: W
HStem: 17 54<0 54 482 536> 270 55<481 536> 279 54<0 54> 510 55<481 536> 523 54<0 54>
VStem: 242 59<-200 -141 741 800>
DStem2: -0 577 0 523 0.735834 0.677162<0 329.079> 0 333 -0 279 0.736013 0.676967<0 689.302> 0 71 -0 17 0.735329 0.67771<0 691.651> -0 -169 26 -200 0.735329 0.67771<0 691.651> 242 -200 301 -200 0.735283 0.677761<43.3817 362.569>
LayerCount: 2
Fore
SplineSet
0 523 m 1x8c
 -0 577 l 1
 242 800 l 1
 301 800 l 1
 0 523 l 1x8c
0 333 m 1xa4
 507 800 l 1
 536 800 l 1
 536 772 l 1
 -0 279 l 1
 0 333 l 1xa4
-0 17 m 1
 0 71 l 1
 536 565 l 1
 536 510 l 1x94
 -0 17 l 1
-0 -169 m 1
 536 325 l 1
 536 270 l 1xc4
 26 -200 l 1
 0 -200 l 1
 -0 -169 l 1
-0 774 m 1
 0 800 l 1
 28 800 l 1
 -0 774 l 1
301 -200 m 1
 242 -200 l 1
 536 71 l 1
 536 16 l 1
 301 -200 l 1
505 -200 m 1
 536 -171 l 1
 536 -200 l 1
 505 -200 l 1
EndSplineSet
Validated: 1
EndChar

StartChar: shade
Encoding: 1164 9618 659
Width: 540
VWidth: 0
Flags: W
HStem: -17 122<0 122 414 536> 236 123<413 536> 245 122<0 122> 476 123<413 536> 489 122<0 122>
VStem: 206 133<-199 -66 668 801>
DStem2: 0 611 0 489 0.735801 0.677198<0 280.243> 0 367 0 245 0.736013 0.676967<0 640.466> 0 105 -0 -17 0.735329 0.67771<0 645.567> -0 -134 64 -199 0.736013 0.676967<3.10197 644.981> 206 -199 339 -199 0.735487 0.677539<97.8197 365.345>
LayerCount: 2
Fore
SplineSet
0 489 m 1x8c
 0 530 0 570 0 611 c 1
 206 801 l 1
 339 801 l 1
 0 489 l 1x8c
0 367 m 1xa4
 471 801 l 1
 536 801 l 1
 536 738 l 1
 0 245 l 1
 0 367 l 1xa4
-0 -17 m 1
 0 105 l 1
 536 599 l 1
 536 476 l 1x94
 -0 -17 l 1
-0 -134 m 1
 536 359 l 1
 536 236 l 1xc4
 64 -199 l 1
 0 -199 l 1
 -0 -134 l 1
-0 740 m 1
 0 801 l 1
 66 801 l 1
 -0 740 l 1
339 -199 m 1
 206 -199 l 1
 536 105 l 1
 536 -18 l 1
 339 -199 l 1
469 -199 m 1
 536 -137 l 1
 536 -199 l 1
 469 -199 l 1
EndSplineSet
Validated: 1
EndChar

StartChar: dkshade
Encoding: 1165 9619 660
Width: 540
VWidth: 0
Flags: W
HStem: -51 190<0 190 346 536> 202 191<345 536> 211 190<0 190> 442 191<345 536> 455 190<0 190>
VStem: 168 207<-200 7 593 800>
DStem2: -0 645 0 455 0.735931 0.677057<0 228.58> 0 401 0 211 0.736013 0.676967<0 588.804> 0 139 0 -51 0.735329 0.67771<0 599.483> 0 -101 99 -200 0.735329 0.67771<5.70429 599.483> 168 -200 375 -200 0.735493 0.677533<152.247 370.936>
LayerCount: 2
Fore
SplineSet
0 455 m 1x8c
 -0 645 l 1
 168 800 l 1
 375 800 l 1
 0 455 l 1x8c
0 401 m 1xa4
 433 800 l 1
 536 800 l 1
 536 704 l 1
 0 211 l 1
 0 274 0 338 0 401 c 1xa4
0 -51 m 1
 0 139 l 1
 536 633 l 1
 536 442 l 1x94
 0 -51 l 1
0 -101 m 1
 536 393 l 1
 536 202 l 1xc4
 99 -200 l 1
 0 -200 l 1
 0 -101 l 1
0 707 m 1
 0 800 l 1
 102 800 l 1
 0 707 l 1
375 -200 m 1
 168 -200 l 1
 536 139 l 1
 536 -52 l 1
 375 -200 l 1
431 -200 m 1
 536 -103 l 1
 536 -200 l 1
 431 -200 l 1
EndSplineSet
Validated: 1
EndChar

StartChar: uni2594
Encoding: 1166 9620 661
Width: 540
VWidth: 0
Flags: W
HStem: 668 133<0 536>
LayerCount: 2
Fore
SplineSet
0 801 m 1
 536 801 l 1
 536 668 l 1
 0 668 l 1
 0 801 l 1
EndSplineSet
Validated: 1
EndChar

StartChar: NameMe.795
Encoding: 1167 9621 662
Width: 540
VWidth: 0
Flags: W
VStem: 483 51<-198 801>
LayerCount: 2
Fore
SplineSet
483 801 m 1
 534 801 l 1
 534 -198 l 1
 483 -198 l 1
 483 801 l 1
EndSplineSet
Validated: 1
EndChar

StartChar: NameMe.796
Encoding: 1168 9622 663
Width: 540
VWidth: 0
Flags: W
VStem: 0 274<-195 293>
LayerCount: 2
Fore
SplineSet
274 -195 m 1
 0 -195 l 1
 0 293 l 1
 274 293 l 1
 274 -195 l 1
EndSplineSet
Validated: 1
EndChar

StartChar: NameMe.797
Encoding: 1169 9623 664
Width: 540
VWidth: 0
Flags: W
VStem: 274 261<-198 293>
LayerCount: 2
Fore
SplineSet
274 -198 m 1
 274 293 l 1
 535 293 l 1
 535 -198 l 1
 274 -198 l 1
EndSplineSet
Validated: 1
EndChar

StartChar: NameMe.798
Encoding: 1170 9624 665
Width: 540
VWidth: 0
Flags: W
VStem: 0 274<293 800>
LayerCount: 2
Fore
SplineSet
274 293 m 1
 0 293 l 1
 0 800 l 1
 274 800 l 1
 274 293 l 1
EndSplineSet
Validated: 1
EndChar

StartChar: NameMe.799
Encoding: 1171 9625 666
Width: 540
VWidth: 0
Flags: W
VStem: 0 536<-200 293> 0 275<293 801>
LayerCount: 2
Fore
SplineSet
0 801 m 1x40
 275 801 l 1
 275 293 l 1x40
 536 293 l 1
 536 -200 l 1
 0 -200 l 1
 0 -198 l 1x80
 0 801 l 1x40
EndSplineSet
Validated: 1
EndChar

StartChar: NameMe.800
Encoding: 1172 9626 667
Width: 540
VWidth: 0
Flags: W
VStem: 0 274<293 800> 275 261<-198 293>
LayerCount: 2
Fore
SplineSet
274 293 m 1
 0 293 l 1
 0 800 l 1
 274 800 l 1
 274 293 l 1
275 293 m 1
 536 293 l 1
 536 -198 l 1
 275 -198 l 1
 275 293 l 1
EndSplineSet
Validated: 1
EndChar

StartChar: NameMe.801
Encoding: 1173 9627 668
Width: 540
VWidth: 0
Flags: W
VStem: -1 537<293 802> -1 275<-198 293>
LayerCount: 2
Fore
SplineSet
-1 802 m 1x80
 536 802 l 1
 536 293 l 1x80
 274 293 l 1
 274 -198 l 1
 -1 -198 l 1x40
 -1 801 l 1
 -1 802 l 1x80
EndSplineSet
Validated: 1
EndChar

StartChar: NameMe.802
Encoding: 1174 9628 669
Width: 540
VWidth: 0
Flags: W
VStem: 0 536<293 802> 274 260<-198 293>
LayerCount: 2
Fore
SplineSet
0 802 m 1x80
 536 802 l 1
 536 293 l 1x80
 534 293 l 1
 534 -198 l 1
 274 -198 l 1
 274 293 l 1x40
 0 293 l 1
 0 802 l 1x80
EndSplineSet
Validated: 1
EndChar

StartChar: NameMe.803
Encoding: 1175 9629 670
Width: 540
VWidth: 0
Flags: W
VStem: 274 260<293 801>
LayerCount: 2
Fore
SplineSet
274 801 m 1
 534 801 l 1
 534 293 l 1
 274 293 l 1
 274 801 l 1
EndSplineSet
Validated: 1
EndChar

StartChar: NameMe.804
Encoding: 1176 9630 671
Width: 540
VWidth: 0
Flags: W
VStem: 0 276<-195 293> 277 259<293 801>
LayerCount: 2
Fore
SplineSet
277 801 m 1
 536 801 l 1
 536 293 l 1
 277 293 l 1
 277 801 l 1
276 -195 m 1
 0 -195 l 1
 0 293 l 1
 276 293 l 1
 276 -195 l 1
EndSplineSet
Validated: 1
EndChar

StartChar: NameMe.805
Encoding: 1177 9631 672
Width: 540
VWidth: 0
Flags: W
VStem: 0 535<-200 293> 274 260<293 801>
LayerCount: 2
Fore
SplineSet
274 801 m 1x40
 534 801 l 1
 534 293 l 1x40
 535 293 l 1
 535 -200 l 1
 0 -200 l 1
 0 293 l 1x80
 274 293 l 1
 274 801 l 1x40
EndSplineSet
Validated: 1
EndChar

StartChar: NameMe.806
Encoding: 1159 9613 673
Width: 540
VWidth: 0
Flags: W
VStem: 0 201<-198 801>
LayerCount: 2
Fore
SplineSet
0 801 m 1
 201 801 l 1
 201 -198 l 1
 0 -198 l 1
 0 801 l 1
EndSplineSet
Validated: 1
EndChar

StartChar: NameMe.807
Encoding: 1160 9614 674
Width: 540
VWidth: 0
Flags: W
VStem: 0 141<-198 801>
LayerCount: 2
Fore
SplineSet
0 801 m 1
 141 801 l 1
 141 -198 l 1
 0 -198 l 1
 0 801 l 1
EndSplineSet
Validated: 1
EndChar

StartChar: uni258A
Encoding: 1157 9610 675
Width: 540
VWidth: 0
Flags: W
VStem: 0 408<-198 801>
LayerCount: 2
Fore
SplineSet
0 801 m 1
 408 801 l 1
 408 -198 l 1
 0 -198 l 1
 0 801 l 1
EndSplineSet
Validated: 1
EndChar

StartChar: NameMe.809
Encoding: 1062 9099 676
Width: 540
VWidth: 0
UnlinkRmOvrlpSave: 1
Flags: W
HStem: 87 60<191.896 353.3>
VStem: 85 150<264 499> 442 60<235.7 396.696>
DStem2: 235 393 191 350 0.707107 -0.707107<0 304.056>
LayerCount: 2
Fore
SplineSet
330 473 m 1
 355 528 l 1
 441 495 502 412 502 315 c 0
 502 189 400 87 274 87 c 0
 178 87 96 146 62 230 c 1
 117 255 l 1
 141 192 202 147 274 147 c 0
 367 147 442 222 442 315 c 0
 442 388 395 450 330 473 c 1
EndSplineSet
Refer: 677 8598 N 1 0 0 1 0 0 2
Validated: 5
EndChar

StartChar: uni2196
Encoding: 911 8598 677
Width: 540
VWidth: 0
Flags: W
VStem: 85 150<264 499>
DStem2: 235 393 191 350 0.707107 -0.707107<0 304.056>
LayerCount: 2
Fore
SplineSet
321 479 m 1
 235 393 l 1
 450 178 l 1
 407 134 l 1
 191 350 l 1
 85 264 l 1
 85 499 l 1
 321 479 l 1
EndSplineSet
Validated: 1
EndChar

StartChar: uni2197
Encoding: 912 8599 678
Width: 540
VWidth: 0
Flags: W
DStem2: 85 178 128 134 0.705464 0.708745<0 303.914>
LayerCount: 2
Fore
SplineSet
214 499 m 1
 450 499 l 1
 450 264 l 1
 343 350 l 1
 128 134 l 1
 85 178 l 1
 300 393 l 1
 214 499 l 1
EndSplineSet
Validated: 1
EndChar

StartChar: uni2198
Encoding: 913 8600 679
Width: 540
VWidth: 0
Flags: W
DStem2: 128 499 85 456 0.705464 -0.708745<0.141092 304.055>
LayerCount: 2
Fore
SplineSet
214 134 m 1
 300 240 l 1
 85 456 l 1
 128 499 l 1
 343 284 l 1
 430 370 l 1
 430 134 l 1
 214 134 l 1
EndSplineSet
Validated: 1
EndChar

StartChar: uni2199
Encoding: 914 8601 680
Width: 540
VWidth: 0
Flags: W
DStem2: 191 284 235 240 0.708745 0.705464<0.144375 304.764>
LayerCount: 2
Fore
SplineSet
321 154 m 1
 105 154 l 1
 105 370 l 1
 191 284 l 1
 407 499 l 1
 450 456 l 1
 235 240 l 1
 321 154 l 1
EndSplineSet
Validated: 1
EndChar

StartChar: NameMe.814
Encoding: 1730 -1 681
Width: 540
VWidth: 0
Flags: W
HStem: 87 60<194.7 353.3> 483 60<194.7 353.3>
VStem: 46 60<235.7 394.3> 442 60<235.7 394.3>
LayerCount: 2
Fore
SplineSet
106 315 m 0
 106 222 181 147 274 147 c 0
 367 147 442 222 442 315 c 0
 442 408 367 483 274 483 c 0
 181 483 106 408 106 315 c 0
46 315 m 0
 46 441 148 543 274 543 c 0
 400 543 502 441 502 315 c 0
 502 189 400 87 274 87 c 0
 148 87 46 189 46 315 c 0
EndSplineSet
Validated: 1
EndChar

StartChar: uni2319
Encoding: 978 8985 682
Width: 540
VWidth: 0
Flags: W
HStem: 415 61<114 481> 577 20G<54 114>
VStem: 54 60<476 597>
LayerCount: 2
Fore
SplineSet
481 415 m 1
 54 415 l 1
 54 597 l 1
 114 597 l 1
 114 476 l 1
 481 476 l 1
 481 415 l 1
EndSplineSet
Validated: 1
EndChar

StartChar: NameMe.818
Encoding: 980 8988 684
Width: 540
VWidth: 0
Flags: W
HStem: 769 31<30 274>
VStem: 0 30<293 769>
LayerCount: 2
Fore
SplineSet
274 769 m 1
 30 769 l 1
 30 293 l 1
 0 293 l 1
 0 800 l 1
 274 800 l 1
 274 769 l 1
EndSplineSet
Validated: 1
EndChar

StartChar: NameMe.819
Encoding: 981 8989 685
Width: 540
VWidth: 0
Flags: W
HStem: 769 32<274 506>
VStem: 506 28<293 769>
LayerCount: 2
Fore
SplineSet
274 801 m 1
 534 801 l 1
 534 293 l 1
 506 293 l 1
 506 769 l 1
 274 769 l 1
 274 801 l 1
EndSplineSet
Validated: 1
EndChar

StartChar: NameMe.820
Encoding: 982 8990 686
Width: 540
VWidth: 0
Flags: W
HStem: -195 28<30 274>
VStem: 0 30<-167 293>
LayerCount: 2
Fore
SplineSet
274 -195 m 1
 0 -195 l 1
 0 293 l 1
 30 293 l 1
 30 -167 l 1
 274 -167 l 1
 274 -195 l 1
EndSplineSet
Validated: 1
EndChar

StartChar: NameMe.821
Encoding: 983 8991 687
Width: 540
VWidth: 0
Flags: W
HStem: -198 31<274 506>
VStem: 506 29<-167 293>
LayerCount: 2
Fore
SplineSet
506 293 m 1
 535 293 l 1
 535 -198 l 1
 274 -198 l 1
 274 -167 l 1
 506 -167 l 1
 506 293 l 1
EndSplineSet
Validated: 1
EndChar

StartChar: NameMe.822
Encoding: 1731 -1 688
Width: 540
VWidth: 0
Flags: W
VStem: 30 476<-167 769>
LayerCount: 2
Fore
SplineSet
30 769 m 1
 506 769 l 1
 506 -167 l 1
 30 -167 l 1
 30 769 l 1
EndSplineSet
Validated: 1
EndChar

StartChar: SF500000
Encoding: 1126 9560 689
Width: 540
VWidth: 0
Flags: W
HStem: 231 61<304 539> 354 61<304 539>
VStem: 244 60<292 354 415 800>
LayerCount: 2
Fore
SplineSet
539 292 m 1
 539 231 l 1
 244 231 l 1
 244 800 l 1
 304 800 l 1
 304 415 l 1
 539 415 l 1
 539 354 l 1
 304 354 l 1
 304 292 l 1
 539 292 l 1
EndSplineSet
Validated: 1
EndChar

StartChar: SF210000
Encoding: 1124 9558 690
Width: 540
VWidth: 0
Flags: W
HStem: 292 61<0 185 246 306>
VStem: 185 61<-200 292> 306 61<-200 292>
LayerCount: 2
Fore
SplineSet
0 353 m 1
 367 353 l 1
 367 -200 l 1
 306 -200 l 1
 306 292 l 1
 246 292 l 1
 246 -200 l 1
 185 -200 l 1
 185 292 l 1
 0 292 l 1
 0 353 l 1
EndSplineSet
Validated: 1
EndChar

